<?xml version="1.0" encoding="UTF-8" standalone="no"?>
<!-- Created with Inkscape (http://www.inkscape.org/) -->

<svg
   xmlns:dc="http://purl.org/dc/elements/1.1/"
   xmlns:cc="http://creativecommons.org/ns#"
   xmlns:rdf="http://www.w3.org/1999/02/22-rdf-syntax-ns#"
   xmlns:svg="http://www.w3.org/2000/svg"
   xmlns="http://www.w3.org/2000/svg"
   xmlns:sodipodi="http://sodipodi.sourceforge.net/DTD/sodipodi-0.dtd"
   xmlns:inkscape="http://www.inkscape.org/namespaces/inkscape"
   version="1.1"
   id="svg3680"
   width="136.53333"
   height="136.53333"
   viewBox="0 0 136.53333 136.53333"
   sodipodi:docname="icon.svg"
   inkscape:version="0.92.1 r15371">
  <metadata
     id="metadata3686">
    <rdf:RDF>
      <cc:Work
         rdf:about="">
        <dc:format>image/svg+xml</dc:format>
        <dc:type
           rdf:resource="http://purl.org/dc/dcmitype/StillImage" />
        <dc:title></dc:title>
      </cc:Work>
    </rdf:RDF>
  </metadata>
  <defs
     id="defs3684" />
  <sodipodi:namedview
     pagecolor="#ffffff"
     bordercolor="#666666"
     borderopacity="1"
     objecttolerance="10"
     gridtolerance="10"
     guidetolerance="10"
     inkscape:pageopacity="0"
     inkscape:pageshadow="2"
     inkscape:window-width="1920"
     inkscape:window-height="1017"
     id="namedview3682"
     showgrid="false"
     inkscape:zoom="3.1054689"
     inkscape:cx="134.83579"
     inkscape:cy="45.519066"
     inkscape:window-x="1912"
     inkscape:window-y="-8"
     inkscape:window-maximized="1"
     inkscape:current-layer="g3690"
     inkscape:showpageshadow="false"
     showborder="false"
     inkscape:pagecheckerboard="true" />
  <g
     id="g3690"
     inkscape:label="g3690">
    <path
	   class="svg_Edge"
       style="fill:#c1e0c9;stroke-width:1.0666666"
       d="M 51.199999,132.71884 C 28.255949,126.69307 9.6037532,107.87357 3.7493678,84.842559 1.3209178,75.289099 1.5728023,55.296518 4.2184991,47.606667 11.614813,26.108908 29.791931,9.315962 51.690771,3.7493678 c 8.161671,-2.0746629 24.990117,-2.0746629 33.151788,0 23.266981,5.9143719 42.027031,24.6744152 47.941401,47.9414032 1.01028,3.974396 1.61604,11.262215 1.61604,19.442315 0,11.286229 -0.35929,14.039421 -2.61377,20.029027 -4.0538,10.769927 -7.51816,15.846547 -16.72337,24.506157 -9.22234,8.67572 -19.160519,14.30435 -30.220301,17.11569 -7.998014,2.03306 -25.7845,1.99864 -33.64256,-0.0651 z"
       id="path3704"
       inkscape:connector-curvature="0"
       inkscape:label="Edge"
       sodipodi:nodetypes="csssscscsscc" />
    <path
       style="fill:#bcdac4;stroke-width:1.0666666"
       d="M 95.229953,86.133331 C 72.399534,63.253895 69.333332,59.241811 69.333332,52.247955 c 0,-6.766309 5.52917,-13.187703 12.477769,-14.491269 7.574619,-1.421007 10.37223,0.479687 30.724909,20.87447 10.55853,10.580374 19.61664,20.165252 20.12914,21.299728 1.35904,3.00839 0.0893,8.177006 -4.22037,17.179425 C 124.1779,106.02336 122.0672,108.8 119.55871,108.8 c -0.94086,0 -11.8888,-10.200002 -24.328757,-22.666669 z m -4.732671,-23.553033 2.33582,-2.486367 -2.161063,-1.955734 c -2.103844,-1.903954 -2.231328,-1.889724 -4.814957,0.537471 -2.486943,2.336361 -2.542943,2.615808 -0.89017,4.442101 2.264097,2.5018 2.716421,2.45784 5.53037,-0.537471 z M 81.997481,51.757165 c 5.040235,-5.46801 5.442578,-6.957166 1.8797,-6.957166 -4.22355,0 -8.14385,3.888321 -8.14385,8.077418 0,2.010753 0.418868,3.655915 0.930816,3.655915 0.511949,0 2.911949,-2.149276 5.333334,-4.776167 z M 47.928498,92.655327 35.733332,89.527394 19.964918,73.830363 C 11.292291,65.196996 3.9152577,57.033422 3.5715118,55.689086 2.3233189,50.807602 12.81202,27.733333 16.279154,27.733333 c 0.738046,0 10.302879,8.999999 21.255186,19.999999 l 19.913285,20 2.742092,10.133333 c 3.043261,11.246293 3.453109,16.566165 1.338781,17.377509 -0.772659,0.296497 -6.892659,-0.868485 -13.6,-2.588847 z"
       id="path3702"
       inkscape:connector-curvature="0" />
    <path
       style="fill:#99a59b;stroke-width:1.0666666"
       d="M 96.356874,85.066665 C 83.975872,72.599998 73.07062,60.863835 72.12298,58.986303 c -2.377868,-4.711206 -2.15623,-8.95369 0.691095,-13.228562 3.286929,-4.93488 9.311098,-7.793282 14.432307,-6.847971 3.311303,0.611224 7.215624,3.964981 24.032218,20.643341 11.04323,10.952454 20.5141,20.704941 21.04638,21.672193 2.18946,3.978673 -8.22734,26.508026 -12.25641,26.508026 -0.66043,0 -11.3307,-10.199999 -23.711696,-22.666665 z M 93.121175,64.094371 c 6.129623,-6.78476 6.672613,-8.391481 3.850944,-11.395011 -1.325862,-1.411315 -3.07572,-2.566028 -3.888575,-2.566028 -0.812853,0 -4.103099,2.482789 -7.311658,5.517311 l -5.833742,5.51731 3.440172,3.549356 c 1.892094,1.952145 4.010157,3.549356 4.706806,3.549356 0.69665,0 2.962874,-1.877533 5.036053,-4.172294 z M 83.045271,51.797184 c 3.018432,-3.191549 5.48806,-6.311549 5.48806,-6.933333 0,-0.621786 -1.716922,-1.130519 -3.815384,-1.130519 -6.454333,0 -11.546643,6.595339 -9.403827,12.179427 0.990535,2.581294 1.8102,2.144956 7.731151,-4.115575 z m -36.645272,39.252734 -9.6,-2.661633 L 20.997387,72.727474 C 12.305952,64.114029 4.7577773,56.280318 4.2236675,55.319226 3.5535412,54.113383 4.1069236,51.469183 6.0091354,46.787811 9.7351802,37.617959 13.568538,30.176823 15.032522,29.27203 c 0.719368,-0.444594 9.301457,7.341013 21.257603,19.284738 l 20.05118,20.030347 2.90599,10.963712 c 1.598294,6.030041 2.616565,11.71794 2.262824,12.639774 -0.858787,2.237963 -3.696711,2.023725 -15.11012,-1.140683 z"
       id="path3700"
       inkscape:connector-curvature="0" />
    <path
       style="fill:#c6b04e;stroke-width:1.0666666"
       d="M 96.904042,83.466665 C 84.211269,70.706665 73.29536,59.218221 72.646469,57.936789 c -3.109608,-6.140851 0.643247,-14.581751 7.672584,-17.257137 7.43672,-2.830436 9.825642,-1.261078 32.193177,21.148709 l 20.24557,20.283811 -2.48809,7.308259 c -2.48417,7.296777 -7.95368,17.246229 -9.48076,17.246229 -0.44393,0 -11.19213,-10.439996 -23.884908,-23.199995 z M 95.304296,63.012518 c 3.315969,-3.476447 6.029034,-6.693596 6.029034,-7.149218 0,-1.274738 -6.670338,-7.863301 -7.960898,-7.863301 -1.520478,0 -12.044911,9.252833 -13.396082,11.77752 -0.848364,1.585181 -0.38941,2.759333 2.256505,5.772863 1.82681,2.080622 4.158683,3.78295 5.18194,3.78295 1.023256,0 4.573532,-2.844366 7.889501,-6.320814 z M 83.647471,52.35343 c 7.036488,-7.110684 7.373656,-9.686764 1.267844,-9.686764 -4.31365,0 -9.67895,3.984921 -10.667302,7.92283 -0.686415,2.734893 0.829728,8.077169 2.292308,8.077169 0.472886,0 3.671103,-2.840955 7.10715,-6.313235 z m -37.247472,37.62996 -9.6,-2.661496 L 20.511704,71.127613 C 1.9381721,52.661285 2.6549642,54.537582 9.0276701,41.066666 15.550993,27.27737 13.101194,26.550364 35.566281,48.942299 l 19.673025,19.608964 2.780347,10.346424 c 1.52919,5.690532 2.780346,11.146497 2.780346,12.124366 0,2.393272 -2.731748,2.196233 -14.4,-1.038663 z"
       id="path3698"
       inkscape:connector-curvature="0" />
    <path
       style="fill:#cd6956;stroke-width:1.0666666"
       d="M 96.904042,83.466665 C 84.211269,70.706665 73.29536,59.218221 72.646469,57.936789 c -3.109608,-6.140851 0.643247,-14.581751 7.672584,-17.257137 7.43672,-2.830436 9.825642,-1.261078 32.193177,21.148709 l 20.24557,20.283811 -2.48809,7.308259 c -2.48417,7.296777 -7.95368,17.246229 -9.48076,17.246229 -0.44393,0 -11.19213,-10.439996 -23.884908,-23.199995 z M 95.304296,63.012518 c 3.315969,-3.476447 6.029034,-6.693596 6.029034,-7.149218 0,-1.274738 -6.670338,-7.863301 -7.960898,-7.863301 -1.520478,0 -12.044911,9.252833 -13.396082,11.77752 -0.848364,1.585181 -0.38941,2.759333 2.256505,5.772863 1.82681,2.080622 4.158683,3.78295 5.18194,3.78295 1.023256,0 4.573532,-2.844366 7.889501,-6.320814 z M 83.647471,52.35343 c 7.036488,-7.110684 7.373656,-9.686764 1.267844,-9.686764 -4.31365,0 -9.67895,3.984921 -10.667302,7.92283 -0.686415,2.734893 0.829728,8.077169 2.292308,8.077169 0.472886,0 3.671103,-2.840955 7.10715,-6.313235 z m -37.247472,37.62996 -9.6,-2.661496 L 20.497031,71.127613 C 6.1608505,56.887008 4.2729021,54.611625 4.847571,52.266665 5.9871687,47.61649 11.691669,34.770347 13.847254,31.999999 l 2.074911,-2.666666 19.658571,19.608966 19.65857,19.608964 2.780347,10.346424 c 1.52919,5.690532 2.780346,11.146497 2.780346,12.124366 0,2.393272 -2.731748,2.196233 -14.4,-1.038663 z m 9.084595,-3.071661 c 1.086026,-1.308582 1.059763,-2.681961 -0.136059,-7.1148 -0.815028,-3.021258 -2.052217,-5.681653 -2.749309,-5.911988 -1.84121,-0.608379 -12.714986,10.166242 -11.474374,11.369743 1.202031,1.166072 7.552908,3.047152 10.744539,3.182447 1.248166,0.05291 2.875007,-0.633521 3.615203,-1.525402 z"
       id="path3696"
       inkscape:connector-curvature="0" />
    <path
       style="fill:#798278;stroke-width:1.0666666"
       d="M 96.904042,83.466665 C 84.211269,70.706665 73.29536,59.218221 72.646469,57.936789 c -3.109608,-6.140851 0.643247,-14.581751 7.672584,-17.257137 7.43672,-2.830436 9.825642,-1.261078 32.193177,21.148709 l 20.24557,20.283811 -2.48809,7.308259 c -2.48417,7.296777 -7.95368,17.246229 -9.48076,17.246229 -0.44393,0 -11.19213,-10.439996 -23.884908,-23.199995 z M 95.304296,63.012518 c 3.315969,-3.476447 6.029034,-6.693596 6.029034,-7.149218 0,-1.274738 -6.670338,-7.863301 -7.960898,-7.863301 -1.520478,0 -12.044911,9.252833 -13.396082,11.77752 -0.848364,1.585181 -0.38941,2.759333 2.256505,5.772863 1.82681,2.080622 4.158683,3.78295 5.18194,3.78295 1.023256,0 4.573532,-2.844366 7.889501,-6.320814 z M 83.647471,52.35343 c 7.036488,-7.110684 7.373656,-9.686764 1.267844,-9.686764 -4.31365,0 -9.67895,3.984921 -10.667302,7.92283 -0.686415,2.734893 0.829728,8.077169 2.292308,8.077169 0.472886,0 3.671103,-2.840955 7.10715,-6.313235 z m -37.247472,37.62996 -9.6,-2.661496 L 20.533333,71.14052 C 11.586666,62.240763 4.2666666,54.239338 4.2666666,53.359575 c 0,-0.879763 7.0858114,5.474429 15.7462474,14.120427 8.660436,8.645998 16.264351,15.719996 16.897591,15.719996 0.63324,0 4.184135,-3.158336 7.89088,-7.018526 L 51.540918,69.162948 32.584661,50.184719 C 19.907147,37.492513 14.06068,30.939328 14.933502,30.399895 c 0.849795,-0.525202 8.108107,5.988955 20.805452,18.672386 l 19.500352,19.478982 2.780347,10.346424 c 1.52919,5.690532 2.780346,11.146497 2.780346,12.124366 0,2.393272 -2.731748,2.196233 -14.4,-1.038663 z m 9.084595,-3.071661 c 1.086026,-1.308582 1.059763,-2.681961 -0.136059,-7.1148 -0.815028,-3.021258 -2.052217,-5.681653 -2.749309,-5.911988 -1.84121,-0.608379 -12.714986,10.166242 -11.474374,11.369743 1.202031,1.166072 7.552908,3.047152 10.744539,3.182447 1.248166,0.05291 2.875007,-0.633521 3.615203,-1.525402 z"
       id="path3694"
       inkscape:connector-curvature="0" />
    <path
       style="fill:#575953;stroke-width:1.0666666"
       d="M 103.19062,88.790995 C 93.955777,79.542604 86.399998,71.621196 86.399998,71.187868 c 0,-0.433328 0.613867,-0.78787 1.364147,-0.78787 2.177458,0 14.635855,-13.177417 14.635855,-15.480545 0,-1.471013 4.28423,2.169688 14.46871,12.295366 13.61163,13.533054 14.43719,14.589458 13.93666,17.833741 -0.61575,3.99113 -8.20201,19.68365 -9.76806,20.20567 -0.58084,0.19361 -8.61185,-7.214845 -17.84669,-16.463235 z m -49.734728,1.973988 c -1.172288,-0.742424 -0.979061,-1.202404 0.935541,-2.227068 2.162042,-1.157089 2.35227,-1.862316 1.829199,-6.781319 l -0.583781,-5.489931 2.018206,5.866666 c 2.702012,7.854407 2.643283,9.603845 -0.321725,9.583666 -1.32,-0.009 -3.064848,-0.43739 -3.87744,-0.952014 z M 22.213372,71.779446 C 13.516018,63.151476 6.3999998,55.597907 6.3999998,54.993737 c 0,-0.60417 6.6062132,5.495079 14.6804722,13.553885 8.07426,8.058807 15.198177,14.652376 15.830925,14.652376 0.632749,0 4.183175,-3.158264 7.889834,-7.018366 L 51.540613,69.163266 33.020442,50.620385 C 22.834348,40.421801 14.862892,31.714883 15.306096,31.27168 c 0.443203,-0.443203 9.660642,8.085367 20.483197,18.952375 16.418749,16.486191 19.677372,20.268157 19.677372,22.837609 0,2.867405 -0.100512,2.941948 -1.459999,1.082744 -1.375706,-1.881391 -1.810673,-1.665014 -7.533965,3.747839 -4.159068,3.933473 -5.916093,6.348221 -5.573196,7.659462 1.223433,4.678415 -3.875001,0.920709 -18.686133,-13.772263 z M 75.733331,61.333332 c -1.087542,-1.310409 -1.01465,-1.6 0.402726,-1.6 0.951834,0 1.730608,0.72 1.730608,1.6 0,0.88 -0.181227,1.6 -0.402726,1.6 -0.221499,0 -1.000273,-0.72 -1.730608,-1.6 z M 90.666664,44.799999 c 0,-1.173333 0.405607,-2.133333 0.901347,-2.133333 0.49574,0 1.770135,0.96 2.831987,2.133333 1.884579,2.082437 1.863075,2.133333 -0.901346,2.133333 -2.120876,0 -2.831988,-0.535679 -2.831988,-2.133333 z"
       id="path3692"
       inkscape:connector-curvature="0" />
  </g>
  <g
     inkscape:groupmode="layer"
     id="layer1"
     inkscape:label="Pencil" />
</svg>
