<?xml version="1.0" standalone="no"?>
<!DOCTYPE svg PUBLIC "-//W3C//DTD SVG 1.1//EN" "http://www.w3.org/Graphics/SVG/1.1/DTD/svg11.dtd" >
<svg xmlns="http://www.w3.org/2000/svg" xmlns:xlink="http://www.w3.org/1999/xlink" version="1.1">
<metadata>
Created by FontForge 20150824 at Tue Oct 18 14:10:03 2016
 By Everything Fonts
A Petit Formal Script specifically tailored to be used on the web, that can resist being set as small as 13px.
</metadata>
<defs>
<font id="PetitFormalScript-Regular" horiz-adv-x="1057" >
  <font-face 
    font-family="Petit Formal Script"
    font-weight="400"
    font-stretch="normal"
    units-per-em="2048"
    panose-1="3 2 6 2 4 8 7 8 11 6"
    ascent="1638"
    descent="-410"
    x-height="1185"
    cap-height="1610"
    bbox="-691 -527 3432 2033"
    underline-thickness="94"
    underline-position="-190"
    stemh="49"
    stemv="75"
    unicode-range="U+000D-FB02"
  />
<missing-glyph horiz-adv-x="1180" 
d="M42 -188l676 1872h680l-677 -1872h-679zM801 1592l-609 -1687h447l609 1687h-447z" />
    <glyph glyph-name="f_i" unicode="fi" horiz-adv-x="1404" 
d="M-77 1145v40h292l15 40c113 312 285 487 573 487c195 0 324 -81 324 -227c0 -74 -34 -118 -90 -118c-45 0 -73 27 -73 73c0 42 25 71 62 71c6 0 12 -1 19 -4c2 -1 9 -2 11 -2c6 0 9 4 9 18c0 85 -110 142 -255 142c-203 0 -314 -112 -429 -432l-18 -48h300v-40h-315
l-608 -1672h-148l608 1672h-277zM624 485l255 700h148l-255 -700c-38 -104 -76 -220 -76 -303c0 -92 48 -151 150 -151c180 0 327 155 506 470l52 92l26 -19l-51 -92c-195 -344 -347 -501 -555 -501c-163 0 -249 103 -249 260c0 69 17 154 49 244z" />
    <glyph glyph-name="f_l" unicode="fl" horiz-adv-x="1404" 
d="M-77 1145v40h292l15 40c124 342 299 487 574 487c90 0 186 -16 251 -40l15 40h148l-446 -1227c-38 -104 -76 -220 -76 -303c0 -92 48 -151 150 -151c180 0 327 155 506 470l52 92l26 -19l-51 -92c-195 -344 -347 -501 -555 -501c-163 0 -249 103 -249 260
c0 69 17 154 49 244l417 1145c-56 21 -143 35 -223 35c-213 0 -313 -103 -437 -431l-19 -49h301v-40h-315l-608 -1672h-148l608 1672h-277z" />
    <glyph glyph-name=".notdef" horiz-adv-x="1180" 
d="M42 -188l676 1872h680l-677 -1872h-679zM801 1592l-609 -1687h447l609 1687h-447z" />
    <glyph glyph-name="C" unicode="C" horiz-adv-x="1187" 
d="M468 -39c-296 0 -467 188 -467 513c0 89 13 192 39 294c123 486 492 841 878 841c123 0 262 -53 262 -221c0 -149 -95 -252 -215 -322l-18 25c107 86 158 194 158 308c0 119 -57 172 -163 172c-272 0 -581 -344 -722 -786c-45 -142 -70 -285 -70 -404
c0 -249 110 -371 333 -371c254 0 463 158 652 491l52 92l27 -19l-52 -92c-202 -356 -417 -521 -694 -521z" />
    <glyph glyph-name="D" unicode="D" horiz-adv-x="2184" 
d="M1050 1224c59 90 193 249 348 316c-79 20 -170 31 -274 31c-426 0 -758 -172 -758 -610c0 -90 14 -204 112 -266l-13 -21c-119 57 -176 150 -176 305c0 378 347 630 830 630c501 0 787 -271 787 -679c0 -254 -111 -494 -269 -666c-157 -171 -385 -304 -691 -304
c-187 0 -339 49 -427 83c-97 -56 -202 -82 -318 -82c-164 0 -201 51 -201 100c0 95 140 108 242 108c109 0 202 -15 288 -41c83 93 166 251 270 512c188 471 208 521 250 584zM1778 996c0 284 -113 459 -343 533c-72 -36 -140 -101 -179 -160c-46 -68 -83 -169 -233 -578
c-125 -340 -260 -561 -418 -689c101 -38 242 -93 410 -93c263 0 435 135 551 300c128 184 212 443 212 687zM208 -3c99 0 179 14 253 68c-54 17 -202 60 -305 60c-67 0 -116 -18 -116 -65c0 -35 28 -63 168 -63z" />
    <glyph glyph-name="E" unicode="E" horiz-adv-x="1179" 
d="M606 894c-274 -34 -449 -251 -449 -555c0 -220 92 -326 280 -326c254 0 516 180 690 488l52 92l26 -19l-51 -92c-192 -346 -461 -519 -742 -519c-255 0 -412 156 -412 402c0 295 228 510 559 540c-99 56 -155 156 -155 277c0 235 210 427 467 427c164 0 280 -96 280 -232
c0 -127 -86 -232 -220 -309l-14 30c103 59 168 170 168 288c0 119 -66 184 -184 184c-208 0 -382 -202 -382 -443c0 -104 33 -183 88 -215c6 3 24 6 37 6c18 0 28 -5 28 -14c0 -11 -10 -16 -29 -16c-13 0 -28 3 -37 6z" />
    <glyph glyph-name="F" unicode="F" horiz-adv-x="1636" 
d="M1142 1221c44 81 111 158 188 223c-235 22 -469 91 -664 91c-248 0 -331 -111 -331 -217c0 -100 74 -192 215 -192c80 0 188 29 260 71l20 -24c-87 -50 -196 -80 -284 -80c-159 0 -252 99 -252 225c0 168 161 292 466 292c228 0 454 -68 701 -76c106 60 221 98 334 98
c57 0 74 -9 74 -38c0 -89 -176 -156 -407 -156c-19 0 -38 0 -57 1c-18 -18 -34 -37 -47 -57c-35 -52 -64 -129 -214 -541h292v-40h-306c-208 -587 -478 -840 -782 -840c-196 0 -348 104 -348 295c0 127 66 244 151 244c28 0 51 -12 51 -49c0 -94 -155 -45 -155 -210
c0 -151 114 -244 304 -244c213 0 342 114 552 643c24 60 45 113 63 161h-270v40h285c106 266 130 325 161 380zM1790 1604c-83 0 -173 -27 -253 -70c151 4 298 32 298 58c0 8 -14 12 -45 12z" />
    <glyph glyph-name="H" unicode="H" horiz-adv-x="2217" 
d="M495 1207l-35 -20c-17 31 -27 71 -27 121c0 188 148 302 344 302c144 0 152 -61 414 -61c135 0 194 20 304 60v-18c-73 -15 -180 -106 -229 -170c-47 -60 -73 -135 -271 -685c140 31 293 69 447 119c155 401 458 754 749 754c112 0 150 -52 150 -129
c0 -189 -236 -372 -473 -496c-86 -45 -176 -84 -265 -118c-80 -204 -130 -422 -130 -608c0 -202 59 -248 155 -248c183 0 352 167 536 491l52 92l26 -19l-51 -92c-203 -358 -375 -521 -580 -521c-215 0 -273 181 -273 382c0 147 31 306 86 461c-153 -48 -304 -84 -445 -113
c-191 -499 -382 -730 -676 -730c-204 0 -303 110 -303 266c0 235 228 349 520 415c77 16 178 35 295 57c130 341 163 444 236 556c51 79 137 188 248 266c-90 -28 -190 -45 -265 -45c-141 0 -286 64 -370 64c-102 0 -189 -93 -189 -231c0 -41 7 -75 20 -102zM289 0
c221 0 303 122 508 654c-100 -21 -192 -38 -271 -56c-258 -59 -480 -145 -480 -375c0 -128 76 -223 243 -223zM2203 1571c-199 0 -430 -297 -578 -650c76 31 152 65 225 104c226 118 449 287 449 453c0 57 -27 93 -96 93z" />
    <glyph glyph-name="I" unicode="I" horiz-adv-x="1530" 
d="M1606 1609v-18c-88 -24 -177 -101 -228 -174c-49 -71 -86 -170 -251 -626c-213 -586 -433 -830 -775 -830c-231 0 -352 110 -352 290c0 135 69 249 146 249c34 0 56 -20 56 -54c0 -53 -56 -72 -98 -86c-43 -14 -57 -54 -57 -113c0 -151 108 -248 286 -248
c262 0 369 129 570 641c161 410 202 515 261 613c61 102 146 200 246 268c-90 -28 -191 -45 -265 -45c-141 0 -287 64 -370 64c-102 0 -189 -93 -189 -231c0 -41 7 -75 20 -102l-35 -20c-16 31 -27 71 -27 121c0 188 148 302 344 302c144 0 152 -61 414 -61
c125 0 194 22 304 60z" />
    <glyph glyph-name="J" unicode="J" horiz-adv-x="1744" 
d="M1232 609c-77 -216 -154 -399 -236 -552c390 30 521 135 696 444l52 92l27 -19l-52 -92c-200 -353 -367 -427 -745 -466c-204 -365 -431 -542 -724 -542c-159 0 -249 80 -249 222c0 193 237 292 836 347c54 114 109 250 172 415c180 472 250 650 331 792
c63 110 138 202 237 268c-88 -26 -185 -42 -257 -42c-141 0 -287 64 -370 64c-102 0 -189 -93 -189 -230c0 -42 7 -76 20 -103l-35 -20c-16 31 -27 71 -27 119c0 190 147 304 344 304c144 0 152 -61 414 -61c136 0 192 18 304 60v-18c-77 -24 -153 -67 -225 -175
c-79 -121 -148 -312 -324 -807zM256 -477c236 0 382 107 562 479c-412 -36 -767 -108 -767 -305c0 -117 78 -174 205 -174z" />
    <glyph glyph-name="K" unicode="K" horiz-adv-x="2203" 
d="M606 1207l-35 -20c-16 31 -27 71 -27 121c0 188 148 302 344 302c144 0 152 -61 414 -61c134 0 194 20 304 60v-18c-88 -24 -177 -101 -228 -174c-49 -71 -86 -170 -251 -626c-211 -582 -462 -830 -785 -830c-216 0 -342 110 -342 292c0 133 69 247 146 247
c34 0 56 -20 56 -54c0 -53 -56 -72 -98 -86c-40 -13 -57 -49 -57 -112c0 -149 109 -247 282 -247c247 0 375 133 574 639c161 410 203 517 261 613c62 103 146 200 245 267c-90 -27 -190 -44 -264 -44c-141 0 -286 64 -370 64c-102 0 -189 -93 -189 -231
c0 -41 7 -75 20 -102zM2323 1590l-13 -22c-28 8 -59 12 -88 12c-366 0 -355 -719 -863 -719c136 -27 242 -74 242 -219c0 -139 -97 -301 -97 -449c0 -128 73 -183 171 -183c188 0 308 195 476 491l52 92l26 -19l-51 -92c-200 -353 -304 -521 -540 -521
c-160 0 -299 78 -299 243c0 146 110 365 110 481c0 83 -57 155 -118 168c-5 -1 -11 -1 -14 -1c-17 0 -26 6 -26 13c0 6 11 14 25 14c9 0 18 0 30 -8c346 95 394 738 848 738c55 0 95 -9 129 -19z" />
    <glyph glyph-name="L" unicode="L" horiz-adv-x="1780" 
d="M1382 966l-25 31c157 155 257 346 257 470c0 54 -19 104 -91 104c-75 0 -156 -54 -228 -152c-111 -152 -179 -387 -272 -628c-130 -337 -258 -557 -409 -685c129 -36 318 -83 490 -83c306 0 441 154 625 478l51 92l27 -19l-52 -92c-253 -449 -470 -552 -695 -552
c-153 0 -347 60 -529 116c-98 -58 -204 -85 -326 -85c-167 0 -205 50 -205 99c0 95 136 114 238 114c110 0 211 -22 295 -44c83 95 160 253 267 510c168 401 257 677 421 838c91 89 196 131 289 131c126 0 162 -73 162 -166c0 -157 -103 -320 -290 -477zM206 -3
c110 0 190 17 261 70c-87 27 -200 59 -301 59c-78 0 -126 -20 -126 -66c0 -35 28 -63 166 -63z" />
    <glyph glyph-name="O" unicode="O" horiz-adv-x="1684" 
d="M170 769c124 483 494 840 868 840c251 0 389 -162 389 -456c0 -126 -25 -271 -72 -411c-152 -452 -502 -781 -831 -781c-248 0 -394 187 -394 502c0 97 14 202 40 306zM539 10c265 0 566 320 726 767c57 160 90 324 90 448c0 217 -102 346 -274 346
c-276 0 -588 -335 -731 -785c-45 -144 -70 -290 -70 -412c0 -236 91 -364 259 -364z" />
    <glyph glyph-name="P" unicode="P" horiz-adv-x="1780" 
d="M275 -39c-184 0 -275 107 -275 324c0 193 69 411 196 624c261 436 673 700 1094 700c290 0 452 -117 452 -325c0 -284 -285 -513 -643 -516v11c316 53 512 256 512 528c0 137 -51 216 -166 248c-72 -31 -147 -92 -194 -163c-43 -62 -69 -126 -242 -601
c-206 -566 -440 -830 -734 -830zM1037 1230c92 155 231 278 370 333c-32 5 -67 8 -107 8c-400 0 -807 -260 -1057 -676c-122 -201 -187 -415 -187 -611c0 -195 67 -281 211 -281c208 0 324 145 518 637c174 442 204 510 252 590z" />
    <glyph glyph-name="R" unicode="R" horiz-adv-x="2085" 
d="M276 -40c-185 0 -276 108 -276 325c0 192 69 411 196 625c260 435 674 699 1096 699c285 0 450 -114 450 -310c0 -231 -226 -429 -500 -438c165 -31 241 -99 241 -214c0 -130 -97 -306 -97 -454c0 -116 62 -182 172 -182c154 0 259 108 475 490l52 92l27 -19l-52 -92
c-243 -429 -339 -521 -541 -521c-182 0 -298 95 -298 245s110 365 110 479c0 78 -52 154 -117 168c-4 -1 -9 -1 -14 -1c-16 0 -27 5 -27 13c0 7 12 14 25 14c14 0 21 -2 31 -8c216 49 382 250 382 464c0 117 -54 189 -165 220c-73 -29 -148 -91 -197 -164
c-42 -62 -65 -121 -240 -600c-206 -568 -440 -831 -733 -831zM1035 1229c94 159 230 280 373 334c-31 5 -67 8 -107 8c-401 0 -807 -259 -1058 -676c-122 -201 -187 -415 -187 -611c0 -195 78 -280 204 -280c208 0 327 140 525 636c182 456 206 513 250 589z" />
    <glyph glyph-name="S" unicode="S" horiz-adv-x="1453" 
d="M1277 1114l-34 16c51 75 74 140 74 209c0 143 -97 235 -255 235c-187 0 -310 -127 -310 -320c0 -287 271 -535 271 -811c0 -282 -280 -481 -573 -481c-296 0 -450 202 -450 418c0 137 62 259 145 259c36 0 58 -22 58 -56c0 -57 -64 -68 -98 -84s-61 -50 -61 -131
c0 -166 121 -359 387 -359c231 0 427 141 427 413c0 308 -249 457 -249 751c0 251 181 434 458 434c201 0 326 -97 326 -254c0 -86 -37 -161 -116 -239z" />
    <glyph glyph-name="T" unicode="T" horiz-adv-x="1582" 
d="M1142 1219c46 84 112 161 188 225c-235 22 -463 91 -673 91c-236 0 -322 -88 -322 -218s85 -191 210 -191c86 0 190 29 265 71l20 -24c-87 -50 -195 -80 -287 -80c-155 0 -249 85 -249 226c0 187 164 291 461 291c239 0 458 -68 705 -76c107 61 224 98 335 98
c57 0 74 -9 74 -38c0 -89 -175 -156 -408 -156c-19 0 -37 0 -56 1c-18 -19 -34 -37 -47 -57c-36 -53 -66 -134 -231 -591c-212 -585 -431 -830 -774 -830c-225 0 -353 105 -353 290c0 135 68 249 147 249c34 0 55 -21 55 -60c0 -38 -20 -47 -98 -80
c-39 -17 -57 -43 -57 -111c0 -163 99 -248 298 -248c246 0 348 104 558 639c177 451 201 511 239 579zM1790 1604c-83 0 -173 -27 -253 -70c152 5 298 32 298 58c0 8 -14 12 -45 12z" />
    <glyph glyph-name="U" unicode="U" horiz-adv-x="1691" 
d="M1319 1609h148l-408 -1124c-40 -110 -76 -234 -76 -318c0 -95 46 -157 153 -157c176 0 319 165 503 491l52 92l26 -19l-51 -92c-201 -354 -347 -521 -555 -521c-163 0 -249 102 -249 267c0 52 8 119 28 192c-176 -304 -298 -459 -484 -459c-149 0 -272 96 -272 276
c0 302 380 955 380 1215c0 67 -21 119 -88 119c-116 0 -263 -150 -399 -479l-27 18c146 363 304 499 455 499c111 0 185 -74 185 -202c0 -267 -369 -956 -369 -1229c0 -112 64 -168 157 -168c160 0 289 169 471 491l49 88z" />
    <glyph glyph-name="X" unicode="X" horiz-adv-x="1765" 
d="M205 1335l-26 13c97 194 192 261 338 261c338 0 357 -316 373 -701l3 -92c232 153 442 346 552 532c70 118 76 193 80 237c3 34 27 44 48 44c36 0 51 -29 51 -62c0 -45 -30 -110 -68 -174c-135 -226 -389 -458 -660 -635l12 -289c14 -341 42 -459 211 -459
c216 0 426 191 594 490l52 93l27 -19l-52 -93c-195 -347 -405 -520 -655 -520c-303 0 -319 254 -336 620l-5 100c-244 -157 -466 -366 -570 -543c-47 -81 -61 -139 -66 -191c-2 -35 -7 -91 -55 -91c-34 0 -53 27 -53 64c0 44 27 108 65 173c129 219 392 463 677 646l-17 347
c-9 197 -23 482 -246 482c-136 0 -211 -103 -274 -233z" />
    <glyph glyph-name="a" unicode="a" horiz-adv-x="1492" 
d="M-4 584c145 434 471 620 691 620c151 0 200 -97 200 -241l81 222h148l-255 -700c-38 -104 -76 -220 -76 -303c0 -92 48 -151 150 -151c180 0 330 152 506 470l51 92l27 -19l-52 -92c-195 -346 -346 -501 -554 -501c-163 0 -249 103 -249 260c0 52 9 114 28 179
c-174 -292 -344 -439 -519 -439c-164 0 -231 128 -231 300c0 93 19 199 54 303zM209 31c288 0 640 654 640 952c0 136 -73 181 -147 181c-150 0 -378 -182 -529 -570c-62 -160 -94 -304 -94 -396c0 -104 41 -167 130 -167z" />
    <glyph glyph-name="b" unicode="b" horiz-adv-x="1238" 
d="M555 1712l-341 -937c171 285 340 429 513 429c164 0 231 -128 231 -300c0 -93 -19 -198 -54 -303c-146 -433 -471 -620 -691 -620c-197 0 -302 103 -302 260c0 69 17 154 49 244l446 1227h149zM695 1154c-286 0 -663 -688 -663 -972c0 -99 53 -161 165 -161
s340 99 528 571c64 159 96 293 96 389c0 111 -41 173 -126 173z" />
    <glyph glyph-name="c" unicode="c" 
d="M751 945c-45 0 -73 28 -73 73c0 43 25 72 62 72c6 0 12 -1 19 -4s9 -3 11 -3c6 0 9 5 9 13c0 36 -58 68 -123 68c-246 0 -536 -464 -536 -858c0 -197 69 -275 237 -275c247 0 477 167 648 470l52 92l27 -19l-52 -92c-191 -338 -421 -501 -694 -501
c-247 0 -373 133 -373 375c0 71 11 149 31 226c95 357 364 622 635 622c71 0 126 -19 163 -56c30 -30 47 -68 47 -107c0 -58 -36 -96 -90 -96z" />
    <glyph glyph-name="d" unicode="d" horiz-adv-x="1492" 
d="M-4 584c145 434 471 620 691 620c151 0 200 -97 200 -241l272 749h148l-446 -1227c-38 -105 -76 -220 -76 -303c0 -92 48 -151 150 -151c180 0 330 152 506 470l51 92l27 -19l-52 -92c-195 -345 -346 -501 -554 -501c-163 0 -249 103 -249 260c0 52 9 114 28 179
c-174 -292 -344 -439 -519 -439c-164 0 -231 128 -231 300c0 93 19 199 54 303zM209 31c288 0 640 654 640 952c0 136 -73 181 -147 181c-150 0 -378 -182 -529 -570c-62 -160 -94 -304 -94 -396c0 -104 41 -167 130 -167z" />
    <glyph glyph-name="dotlessi" unicode="&#x131;" horiz-adv-x="741" 
d="M-39 485l255 700h148l-255 -700c-38 -104 -76 -220 -76 -303c0 -92 48 -151 150 -151c180 0 327 155 506 470l52 92l27 -19l-52 -92c-195 -344 -347 -501 -555 -501c-163 0 -249 103 -249 260c0 69 17 154 49 244z" />
    <glyph glyph-name="dotlessj" unicode="&#x237;" horiz-adv-x="601" 
d="M-525 -527c-68 0 -114 22 -142 73c-15 29 -24 68 -24 105c0 68 35 108 92 108c46 0 75 -27 75 -71c0 -42 -25 -73 -59 -73c-15 0 -21 6 -33 6c-7 0 -9 -2 -9 -15c0 -57 34 -90 94 -90c105 0 176 102 272 364l474 1305h148l-471 -1297c-98 -268 -249 -415 -417 -415z" />
    <glyph glyph-name="e" unicode="e" 
d="M342 -19c-240 0 -377 128 -377 376c0 68 10 146 31 225c95 357 367 622 632 622c133 0 215 -67 215 -179c0 -127 -106 -249 -274 -319c-103 -44 -227 -66 -386 -66c-39 -108 -62 -227 -62 -347c0 -185 75 -262 243 -262c281 0 508 235 641 470l52 92l27 -19l-52 -92
c-164 -290 -394 -501 -690 -501zM656 1164c-168 0 -358 -209 -461 -488c146 3 247 28 324 64c123 57 241 183 241 328c0 71 -46 96 -104 96z" />
    <glyph glyph-name="f" unicode="f" horiz-adv-x="741" 
d="M-76 1145v40h291l41 112c97 267 258 415 448 415c120 0 206 -66 206 -156c0 -63 -35 -101 -90 -101c-45 0 -73 28 -73 73c0 43 25 72 62 72c7 0 12 -1 20 -4c2 -1 7 -3 10 -3c5 0 9 4 9 12c0 39 -75 60 -133 60c-127 0 -215 -103 -309 -360l-44 -120h302v-40h-316
l-608 -1672h-148l608 1672h-276z" />
    <glyph glyph-name="g" unicode="g" horiz-adv-x="1353" 
d="M83 -527c-128 0 -213 34 -264 108c-26 36 -41 78 -41 118c0 60 34 97 88 97c46 0 75 -27 75 -72c0 -42 -25 -72 -60 -72c-15 0 -21 6 -32 6c-7 0 -9 -2 -9 -13c0 -74 102 -129 239 -129c195 0 322 109 414 364l190 526c-170 -282 -338 -425 -510 -425
c-164 0 -231 128 -231 300c0 93 19 199 54 303c145 434 471 620 691 620c152 0 200 -92 200 -237l80 218h148l-472 -1297c-98 -269 -295 -415 -560 -415zM209 31c288 0 640 654 640 952c0 136 -73 181 -147 181c-150 0 -378 -182 -529 -570c-62 -160 -94 -304 -94 -396
c0 -104 41 -167 130 -167z" />
    <glyph glyph-name="h" unicode="h" horiz-adv-x="1453" 
d="M-217 0l623 1712h149l-349 -957c181 305 320 449 514 449c163 0 249 -111 249 -278c0 -178 -224 -580 -224 -744c0 -92 48 -151 150 -151c180 0 327 155 506 470l52 92l27 -19l-52 -92c-195 -344 -347 -501 -555 -501c-163 0 -249 103 -249 260c0 171 224 587 224 743
c0 104 -48 170 -150 170c-180 0 -329 -162 -557 -580l-210 -574h-148z" />
    <glyph glyph-name="k" unicode="k" horiz-adv-x="1369" 
d="M555 1712l-349 -957c209 356 334 467 519 467c151 0 235 -74 235 -206c0 -111 -58 -206 -161 -273c-66 -42 -153 -75 -318 -116v-4c163 -11 254 -79 254 -174c0 -84 -71 -187 -71 -281c0 -81 53 -137 154 -137c164 0 316 146 499 470l52 92l27 -19l-52 -92
c-218 -387 -364 -501 -571 -501c-122 0 -232 40 -232 176c0 108 67 223 67 308c0 83 -65 145 -205 149v5c139 39 253 98 329 166c75 68 111 145 111 237c0 108 -50 162 -150 162c-156 0 -289 -129 -552 -610l-210 -574h-148l623 1712h149z" />
    <glyph glyph-name="l" unicode="l" horiz-adv-x="740" 
d="M-39 485l446 1227h149l-447 -1227c-38 -104 -76 -220 -76 -303c0 -92 48 -151 150 -151c180 0 327 155 506 470l52 92l27 -19l-52 -92c-195 -344 -347 -501 -555 -501c-163 0 -249 103 -249 260c0 69 16 153 49 244z" />
    <glyph glyph-name="m" unicode="m" horiz-adv-x="2155" 
d="M-217 0l432 1185h148l-157 -429c178 303 309 448 496 448c163 0 249 -111 249 -275c0 -51 -8 -105 -33 -191c179 309 312 466 502 466c166 0 252 -119 252 -259c0 -225 -224 -597 -224 -772c0 -81 48 -142 155 -142c172 0 326 155 501 470l51 92l27 -19l-52 -92
c-190 -337 -344 -501 -550 -501c-167 0 -253 110 -253 240c0 210 224 584 224 775c0 89 -48 158 -154 158c-167 0 -304 -171 -483 -488l-50 -89l-210 -577h-148l215 593c70 194 109 307 109 395c0 100 -49 166 -154 166c-167 0 -301 -165 -483 -488l-52 -92l-210 -574h-148z
" />
    <glyph glyph-name="n" unicode="n" horiz-adv-x="1453" 
d="M-217 0l432 1185h148l-157 -430c180 305 324 449 510 449c167 0 253 -118 253 -258c0 -226 -224 -597 -224 -773c0 -81 48 -142 155 -142c172 0 324 157 501 470l52 92l27 -19l-52 -92c-191 -337 -345 -501 -550 -501c-168 0 -254 110 -254 240c0 210 224 583 224 775
c0 90 -48 158 -157 158c-169 0 -314 -162 -498 -488l-52 -92l-210 -574h-148z" />
    <glyph glyph-name="o" unicode="o" horiz-adv-x="1223" 
d="M-8 581c93 358 376 623 654 623c225 0 299 -163 299 -348c0 -99 -21 -203 -52 -293c-114 -336 -376 -582 -628 -582c-190 0 -304 140 -304 373c0 73 11 152 31 227zM280 31c192 0 408 229 523 555c31 88 67 223 67 341c0 129 -43 237 -188 237
c-207 0 -419 -233 -517 -571c-33 -113 -52 -233 -52 -326c0 -158 55 -236 167 -236z" />
    <glyph glyph-name="p" unicode="p" horiz-adv-x="1237" 
d="M-408 -527l636 1745h148l-161 -441c170 284 339 427 512 427c164 0 231 -129 231 -298c0 -89 -19 -200 -53 -305c-136 -415 -457 -620 -707 -620c-136 0 -191 62 -195 215l-263 -723h-148zM693 1154c-284 0 -653 -693 -653 -967c0 -94 43 -166 141 -166
c128 0 377 125 547 570c58 153 93 303 93 397c0 102 -41 166 -128 166z" />
    <glyph glyph-name="q" unicode="q" horiz-adv-x="1353" 
d="M343 -527l340 934c-170 -283 -339 -426 -511 -426c-164 0 -231 128 -231 300c0 93 19 199 54 303c145 434 471 620 691 620c151 0 200 -97 200 -241l81 222h148l-623 -1712h-149zM209 31c288 0 640 654 640 952c0 136 -73 181 -147 181c-150 0 -378 -182 -529 -570
c-62 -160 -94 -304 -94 -396c0 -104 41 -167 130 -167z" />
    <glyph glyph-name="r" unicode="r" horiz-adv-x="931" 
d="M747 1114c0 21 -28 49 -80 49c-106 0 -246 -111 -497 -553l-50 -88l-189 -522h-149l432 1185h148l-175 -480c220 376 355 499 485 499c88 0 141 -57 141 -141c0 -70 -36 -127 -96 -127c-43 0 -86 28 -86 81c0 44 30 90 76 90c7 0 16 -1 21 -2c3 -2 8 -5 11 -5
c5 0 8 6 8 14z" />
    <glyph glyph-name="s" unicode="s" horiz-adv-x="1026" 
d="M-133 271c0 136 63 276 138 329l422 614c14 108 52 179 103 179c40 0 70 -24 70 -55c0 -22 -9 -38 -36 -60c-61 -50 -82 -87 -82 -147c0 -58 14 -114 84 -338c34 -111 51 -212 51 -308c0 -183 -67 -323 -199 -417c-78 -56 -173 -87 -266 -87c-176 0 -285 112 -285 290z
M421 1121v21l-357 -521c42 0 70 -31 70 -77c0 -48 -30 -90 -65 -90c-22 0 -35 14 -59 14c-57 0 -100 -83 -100 -194c0 -150 86 -243 226 -243c93 0 176 41 235 117c72 92 108 232 108 416c0 92 -8 171 -30 311c-18 118 -28 197 -28 246z" />
    <glyph glyph-name="space" unicode=" " horiz-adv-x="741" 
 />
    <glyph glyph-name="t" unicode="t" horiz-adv-x="786" 
d="M-79 1145v40h292l95 262h148l-95 -262h300v-40h-315l-240 -660c-38 -105 -75 -223 -75 -303c0 -92 50 -151 151 -151c197 0 370 147 552 470l52 92l27 -19l-52 -92c-211 -373 -387 -501 -601 -501c-163 0 -251 103 -251 260c0 69 16 154 49 244l240 660h-277z" />
    <glyph glyph-name="u" unicode="u" horiz-adv-x="1480" 
d="M-40 485l255 700h148l-255 -700c-38 -104 -76 -220 -76 -303c0 -92 49 -151 150 -151c180 0 330 154 506 470l49 88l218 596h148l-255 -700c-38 -104 -76 -220 -76 -303c0 -92 48 -151 150 -151c180 0 328 155 506 470l52 92l26 -19l-51 -92
c-192 -347 -347 -501 -555 -501c-163 0 -249 103 -249 260c0 52 9 114 28 178c-178 -300 -323 -438 -519 -438c-163 0 -249 103 -249 260c0 69 17 154 49 244z" />
    <glyph glyph-name="v" unicode="v" horiz-adv-x="1122" 
d="M362 1185l-254 -700c-52 -143 -76 -238 -76 -303c0 -95 52 -151 149 -151c182 0 389 202 503 467c53 123 83 256 83 395c0 202 -62 227 -62 264c0 24 25 46 51 46c58 0 83 -103 83 -229c0 -182 -53 -360 -115 -495c-133 -290 -355 -498 -570 -498
c-152 0 -243 102 -243 260c0 67 17 154 49 244l254 700h148z" />
    <glyph glyph-name="w" unicode="w" horiz-adv-x="1727" 
d="M1023 1185l-253 -700c-52 -143 -76 -238 -76 -303c0 -95 46 -151 130 -151c169 0 361 201 467 467c49 124 82 256 82 395c0 202 -62 227 -62 264c0 24 24 46 51 46c58 0 83 -103 83 -229c0 -182 -56 -358 -115 -495c-125 -291 -331 -498 -533 -498
c-141 0 -224 102 -224 260c0 19 1 40 4 63c-122 -196 -284 -323 -442 -323c-141 0 -224 102 -224 260c0 67 17 154 49 244l254 700h148l-254 -700c-52 -143 -76 -238 -76 -303c0 -95 46 -151 130 -151c163 0 370 205 460 454l253 700h148z" />
    <glyph glyph-name="x" unicode="x" horiz-adv-x="1555" 
d="M899 -19c-214 0 -286 120 -302 312c-99 -176 -219 -312 -396 -312c-109 0 -195 62 -195 157c0 62 36 102 92 102c47 0 71 -27 71 -70c0 -45 -28 -75 -62 -75c-15 0 -23 7 -31 7c-7 0 -10 -5 -10 -13c0 -38 57 -69 114 -69c245 0 470 498 470 870c0 163 -40 275 -141 275
c-133 0 -258 -194 -442 -517l-53 -93l-26 18l53 94c188 333 298 537 490 537c140 0 210 -111 213 -386c126 234 283 386 449 386c100 0 198 -57 198 -157c0 -62 -37 -102 -93 -102c-45 0 -71 27 -71 70c0 44 28 75 62 75c15 0 21 -7 32 -7c9 0 9 5 9 14c0 36 -58 68 -116 68
c-231 0 -485 -489 -485 -869c0 -157 49 -265 204 -265c176 0 362 126 567 470l55 92l25 -19l-54 -92c-228 -382 -394 -501 -627 -501z" />
    <glyph glyph-name="y" unicode="y" horiz-adv-x="1342" 
d="M-40 485l255 700h148l-255 -700c-38 -104 -76 -220 -76 -303c0 -92 49 -151 150 -151c180 0 324 156 506 470l53 91l215 593h149l-472 -1297c-97 -268 -295 -415 -560 -415c-129 0 -213 34 -265 108c-26 36 -40 78 -40 118c0 60 34 97 88 97c46 0 75 -27 75 -72
c0 -42 -25 -72 -60 -72c-15 0 -21 6 -32 6c-8 0 -9 -2 -9 -13c0 -74 101 -129 239 -129c195 0 321 110 413 364l196 538c-177 -299 -323 -437 -518 -437c-163 0 -249 103 -249 260c0 69 17 154 49 244z" />
    <glyph glyph-name="z" unicode="z" horiz-adv-x="1398" 
d="M1189 1197l27 -40l-937 -972c28 12 61 20 100 20c180 0 427 -134 526 -134c63 0 114 14 172 68c80 76 167 195 266 362l55 92l26 -19l-55 -92c-105 -176 -189 -300 -272 -379c-104 -99 -194 -122 -329 -122c-154 0 -364 130 -511 130c-69 0 -74 -40 -175 -130l-23 38
l1008 1053c-85 -54 -167 -89 -249 -89c-146 0 -323 130 -387 130c-67 0 -199 -171 -365 -467l-53 -93l-26 18l53 94c217 386 326 542 489 542c149 0 267 -130 410 -130c69 0 149 30 250 120z" />
    <glyph glyph-name="G" unicode="G" horiz-adv-x="1743" 
d="M1319 1088l-34 11c45 45 99 184 99 293c0 97 -49 179 -205 179c-287 0 -572 -240 -714 -611c-53 -138 -83 -283 -83 -406c0 -185 67 -271 207 -271c190 0 375 159 567 496l8 13h132l-65 -183c-76 -216 -155 -399 -237 -552c351 38 496 87 698 444l51 92l27 -19l-52 -92
c-201 -355 -343 -426 -747 -466c-204 -366 -430 -542 -701 -542c-183 0 -270 81 -270 206c0 269 437 323 834 362c55 115 111 252 174 416l26 68c-106 -142 -266 -292 -465 -292c-203 0 -338 159 -338 408c0 89 17 193 52 298c135 397 489 669 862 669
c220 0 302 -100 302 -223c0 -98 -52 -210 -128 -298zM274 -477c220 0 369 126 542 479c-423 -36 -766 -92 -766 -317c0 -105 76 -162 224 -162z" />
    <glyph glyph-name="Q" unicode="Q" horiz-adv-x="1875" 
d="M1556 -6l29 -12c-211 -286 -365 -340 -521 -340c-154 0 -323 49 -496 105c-126 -47 -251 -73 -366 -73c-163 0 -201 51 -201 100c0 94 140 113 241 113c130 0 257 -35 385 -70c348 166 671 518 832 960c58 160 91 319 91 445c0 222 -102 349 -272 349
c-261 0 -558 -301 -708 -711c-80 -220 -91 -397 -91 -431c0 -148 0 -321 183 -321c73 0 170 28 290 113l9 -29c-116 -88 -222 -121 -307 -121c-248 0 -323 279 -323 418c0 27 3 169 61 354c138 446 480 766 839 766c255 0 391 -161 391 -459c0 -125 -24 -267 -73 -407
c-149 -429 -499 -770 -858 -943c120 -31 273 -64 403 -64c198 0 325 76 462 258zM196 -290c102 0 208 20 312 57l-10 3c-92 31 -219 69 -330 69c-80 0 -127 -20 -127 -65c0 -33 28 -64 155 -64z" />
    <glyph glyph-name="N" unicode="N" horiz-adv-x="1748" 
d="M1396 1333c0 -262 -355 -830 -355 -1166c0 -95 45 -157 152 -157c177 0 319 165 503 491l52 92l27 -19l-52 -92c-201 -354 -346 -521 -555 -521c-200 0 -274 94 -274 241c0 256 365 952 365 1190c0 113 -64 179 -156 179c-160 0 -320 -187 -498 -502l-50 -88l-357 -982
h-148l394 1086c23 60 74 224 74 345c0 80 -23 141 -92 141c-116 0 -263 -150 -399 -479l-27 18c146 363 304 499 455 499c148 0 187 -121 187 -267c0 -51 -9 -120 -29 -193c176 300 325 460 512 460c148 0 271 -96 271 -276z" />
    <glyph glyph-name="M" unicode="M" horiz-adv-x="2333" 
d="M49 0l395 1085c23 60 74 224 74 345c0 80 -23 141 -92 141c-116 0 -263 -150 -399 -479l-27 18c146 363 304 499 455 499c148 0 187 -121 187 -267c0 -38 -5 -87 -16 -138c156 265 273 405 435 405c148 0 271 -96 271 -276c0 -44 -7 -84 -20 -127
c156 264 272 403 434 403c144 0 267 -96 267 -276c0 -308 -369 -812 -369 -1166c0 -95 40 -157 135 -157c176 0 318 165 502 491l52 92l27 -19l-52 -92c-201 -354 -346 -521 -554 -521c-187 0 -258 94 -258 241c0 366 375 942 375 1190c0 113 -60 168 -147 168
c-149 0 -274 -174 -453 -491l-19 -34l-375 -1035h-148l301 832c82 228 165 435 165 560c0 113 -64 179 -156 179c-149 0 -273 -185 -451 -498l-391 -1073h-148z" />
    <glyph glyph-name="V" unicode="V" horiz-adv-x="1427" 
d="M1298 1499c0 -548 -489 -1538 -916 -1538c-136 0 -263 101 -263 268c0 293 395 945 395 1226c0 65 -21 116 -89 116c-115 0 -262 -150 -398 -479l-27 18c151 371 302 499 465 499c121 0 192 -70 192 -186c0 -275 -401 -992 -401 -1250c0 -95 56 -163 148 -163
c334 0 822 893 822 1395c0 173 -58 236 -58 268c0 17 16 43 48 43c63 0 82 -108 82 -217z" />
    <glyph glyph-name="W" unicode="W" horiz-adv-x="2178" 
d="M947 622l313 860h148l-363 -997c-36 -100 -66 -207 -66 -291c0 -109 51 -184 157 -184c363 0 841 892 841 1394c0 175 -59 237 -59 269c0 17 17 43 49 43c62 0 82 -107 82 -218c0 -548 -476 -1537 -940 -1537c-174 0 -254 140 -254 302c0 35 4 73 12 110
c-143 -242 -318 -412 -488 -412c-131 0 -260 101 -260 268c0 293 395 945 395 1226c0 65 -21 116 -89 116c-115 0 -262 -150 -398 -479l-27 18c151 371 302 499 465 499c121 0 192 -70 192 -186c0 -275 -401 -993 -401 -1249c0 -96 57 -164 146 -164c180 0 396 282 545 612z
" />
    <glyph glyph-name="A" unicode="A" horiz-adv-x="2097" 
d="M340 589c0 -48 -59 -59 -127 -71c-56 -10 -170 -73 -170 -267c0 -199 120 -259 242 -259c139 0 246 78 365 244c219 307 414 828 583 1131c118 212 181 244 285 244c148 0 212 -65 212 -191c0 -290 -340 -970 -340 -1250c0 -101 44 -160 151 -160c177 0 320 165 504 491
l52 92l27 -19l-52 -92c-197 -348 -344 -521 -553 -521c-164 0 -253 108 -253 244c0 118 67 326 141 544h-421c-99 -205 -205 -406 -305 -543c-130 -180 -251 -253 -399 -253c-176 0 -282 107 -282 302c0 210 120 382 274 382c39 0 66 -11 66 -48zM1278 1355
c-73 -137 -167 -346 -269 -557h415c87 255 178 519 178 662c0 94 -38 113 -95 113c-88 0 -140 -47 -229 -218z" />
    <glyph glyph-name="Y" unicode="Y" horiz-adv-x="1742" 
d="M1568 1536l-338 -927c-79 -218 -156 -403 -238 -558c368 37 509 115 699 450l51 92l27 -19l-52 -92c-200 -354 -361 -427 -745 -466c-204 -365 -430 -542 -724 -542c-159 0 -249 80 -249 222c0 193 232 286 830 341c52 110 108 242 171 401l47 119
c-123 -187 -261 -318 -422 -318c-148 0 -271 96 -271 276c0 320 285 632 285 929c0 68 -21 127 -88 127c-116 0 -263 -157 -399 -487l-27 19c146 363 304 506 455 506c133 0 219 -81 219 -209c0 -295 -308 -671 -308 -944c0 -101 59 -168 138 -168c233 0 470 394 546 596
l244 652h149zM237 -482c225 0 387 101 575 483c-411 -35 -763 -108 -763 -304c0 -117 60 -179 188 -179z" />
    <glyph glyph-name="Z" unicode="Z" horiz-adv-x="1516" 
d="M1396 1611l27 -40l-563 -707h309v-40h-340l-514 -645c33 15 71 26 123 26c191 0 456 -134 600 -134c46 0 93 14 154 68c76 68 169 197 267 362l55 92l26 -19l-55 -92c-109 -183 -189 -300 -273 -379c-105 -99 -201 -122 -298 -122c-235 0 -434 130 -598 130
c-81 0 -72 -31 -183 -130l-23 38l644 805h-324v40h355l515 644c-124 -69 -284 -120 -372 -120c-142 0 -302 118 -412 118c-65 0 -134 -33 -291 -312l-53 -93l-26 18l53 94c185 328 245 399 377 399c156 0 260 -131 410 -131c65 0 240 24 410 130z" />
    <glyph glyph-name="zero" unicode="0" horiz-adv-x="1304" 
d="M228 371c0 447 300 1053 731 1053c255 0 333 -186 333 -384c0 -425 -314 -1079 -736 -1079c-250 0 -328 195 -328 410zM571 11c357 0 647 722 647 1099c0 144 -49 274 -223 274c-366 0 -627 -715 -627 -1117c0 -143 48 -256 203 -256z" />
    <glyph glyph-name="one" unicode="1" horiz-adv-x="1092" 
d="M517 0h-154l428 1211c-183 -207 -410 -289 -567 -289v33c191 0 488 142 675 469h132z" />
    <glyph glyph-name="two" unicode="2" horiz-adv-x="1222" 
d="M1048 149l-63 -150h-913l54 150c101 282 854 586 854 994c0 121 -66 246 -271 246c-255 0 -414 -196 -424 -396h-45c7 219 172 436 480 436c224 0 411 -114 411 -313c0 -424 -851 -757 -937 -967h854z" />
    <glyph glyph-name="three" unicode="3" horiz-adv-x="1269" 
d="M428 1107h-43c0 209 204 317 402 317c190 0 372 -100 372 -301c0 -180 -146 -331 -372 -356c201 -61 290 -203 290 -351c0 -221 -197 -455 -517 -455c-267 0 -386 148 -386 307c0 62 19 158 95 246l24 -31c-62 -73 -76 -160 -76 -212c0 -151 125 -261 310 -261
c253 0 394 217 394 417c0 154 -84 298 -266 326c-7 -3 -24 -8 -37 -8c-18 0 -29 7 -29 17c0 9 11 16 29 16c14 0 29 -4 38 -8c247 26 347 198 347 361c0 177 -117 248 -245 248c-157 0 -330 -108 -330 -272z" />
    <glyph glyph-name="dotaccent" unicode="&#x2d9;" horiz-adv-x="740" 
d="M296 1447c0 47 37 85 84 85c46 0 84 -38 84 -84s-38 -83 -85 -83s-83 36 -83 82z" />
    <glyph glyph-name="i" unicode="i" horiz-adv-x="741" 
d="M-39 485l255 700h148l-255 -700c-38 -104 -76 -220 -76 -303c0 -92 48 -151 150 -151c180 0 327 155 506 470l52 92l27 -19l-52 -92c-195 -344 -347 -501 -555 -501c-163 0 -249 103 -249 260c0 69 17 154 49 244zM296 1447c0 47 37 85 84 85c46 0 84 -38 84 -84
s-38 -83 -85 -83s-83 36 -83 82z" />
    <glyph glyph-name="j" unicode="j" horiz-adv-x="601" 
d="M-525 -527c-106 0 -166 63 -166 178c0 68 35 108 92 108c46 0 75 -27 75 -71c0 -42 -25 -73 -59 -73c-15 0 -21 6 -33 6c-7 0 -9 -2 -9 -15c0 -57 34 -90 94 -90c105 0 176 101 272 364l474 1305h148l-471 -1297c-98 -268 -249 -415 -417 -415zM296 1447
c0 47 37 85 84 85c46 0 84 -38 84 -84s-38 -83 -85 -83s-83 36 -83 82z" />
    <glyph glyph-name="dieresis" unicode="&#xa8;" horiz-adv-x="740" 
d="M148 1447c0 47 33 85 74 85c42 0 75 -38 75 -84s-34 -83 -76 -83c-40 0 -73 36 -73 82zM463 1447c0 47 33 85 74 85c42 0 75 -38 75 -84s-34 -83 -76 -83c-41 0 -73 36 -73 82z" />
    <glyph glyph-name="four" unicode="4" horiz-adv-x="1272" 
d="M114 249l-15 40l1119 1135h132l-413 -1135h234l-15 -40h-233l-158 -435h-161l157 435h-647zM153 289h622l355 981z" />
    <glyph glyph-name="five" unicode="5" horiz-adv-x="1139" 
d="M5 141l28 40c43 -101 169 -171 316 -171c308 0 515 260 515 492c0 177 -144 335 -486 335c-20 0 -40 -1 -60 -2l219 588h602l-63 -150h-541l-120 -336c416 -1 597 -201 597 -419c0 -265 -254 -557 -668 -557c-145 0 -280 73 -339 180z" />
    <glyph glyph-name="six" unicode="6" horiz-adv-x="1345" 
d="M1444 1509l-15 -43c-74 20 -144 29 -208 29c-355 0 -567 -290 -697 -658c97 81 200 96 283 96c304 0 431 -194 431 -406c0 -269 -202 -568 -569 -568c-285 0 -399 181 -399 447c0 449 328 1143 920 1143c80 0 165 -13 254 -40zM667 8c258 0 437 296 437 539
c0 176 -93 329 -315 329c-121 0 -215 -45 -284 -144c-69 -98 -105 -236 -105 -368c0 -186 71 -356 267 -356z" />
    <glyph glyph-name="nine" unicode="9" horiz-adv-x="1319" 
d="M66 -125l15 44c75 -21 144 -30 208 -30c355 0 567 290 697 658c-97 -81 -200 -96 -283 -96c-304 0 -431 194 -431 406c0 269 202 568 569 568c285 0 399 -181 399 -446c0 -450 -328 -1144 -920 -1144c-80 0 -164 13 -254 40zM843 1376c-258 0 -437 -296 -437 -539
c0 -176 93 -329 315 -329c121 0 215 45 284 144c69 98 105 236 105 368c0 186 -71 356 -267 356z" />
    <glyph glyph-name="seven" unicode="7" horiz-adv-x="1191" 
d="M336 1274l63 150h906l-1057 -1666l-144 65l1025 1451h-793z" />
    <glyph glyph-name="eight" unicode="8" horiz-adv-x="1222" 
d="M125 310c0 237 241 408 482 508c-94 109 -177 220 -177 348c0 252 245 406 456 406c164 0 309 -84 309 -272c0 -190 -213 -365 -428 -444c113 -135 233 -274 233 -452c0 -276 -258 -441 -490 -441c-192 0 -385 98 -385 347zM861 381c0 149 -113 275 -223 401
c-217 -86 -438 -247 -438 -472c0 -191 138 -300 268 -300c183 0 393 121 393 371zM567 1237c0 -131 81 -241 175 -352c203 88 378 268 378 432c0 157 -100 219 -215 219c-149 0 -338 -131 -338 -299z" />
    <glyph glyph-name="fraction" unicode="&#x2044;" horiz-adv-x="1393" 
d="M54 -186l1148 1756h116l-1148 -1756h-116z" />
    <glyph glyph-name="zerosuperior" unicode="&#x2070;" horiz-adv-x="994" 
d="M365 463c-201 0 -291 144 -291 324c0 279 217 638 550 638c207 0 296 -139 296 -312c0 -281 -234 -650 -555 -650zM377 513c243 0 467 392 467 649c0 129 -56 223 -178 223c-242 0 -468 -367 -468 -641c0 -148 67 -231 179 -231z" />
    <glyph glyph-name="onesuperior" unicode="&#xb9;" horiz-adv-x="673" 
d="M245 463h-130l283 783c-94 -79 -212 -110 -321 -122l-3 34c153 20 314 81 420 267h105z" />
    <glyph glyph-name="twosuperior" unicode="&#xb2;" horiz-adv-x="876" 
d="M739 593l-46 -130h-629l42 117c80 217 565 346 565 647c0 75 -30 158 -171 158c-161 0 -255 -110 -264 -250h-46c11 133 90 290 336 290c186 0 276 -90 276 -207c0 -294 -575 -440 -639 -625h576z" />
    <glyph glyph-name="threesuperior" unicode="&#xb3;" horiz-adv-x="849" 
d="M131 801l44 -1c-29 -51 -43 -100 -43 -143c0 -88 60 -151 179 -151c174 0 270 136 270 262c0 89 -49 175 -153 206l9 25c133 11 206 118 206 218c0 88 -55 168 -158 168c-67 0 -211 -34 -211 -174h-47c0 144 137 214 273 214c159 0 267 -96 267 -203
c0 -87 -73 -182 -237 -234c90 -26 183 -86 183 -220c0 -175 -157 -305 -374 -305c-174 0 -250 82 -250 190c0 46 15 97 42 148z" />
    <glyph glyph-name="foursuperior" unicode="&#x2074;" horiz-adv-x="936" 
d="M83 698l-9 46l671 681h117l-248 -681h132v-46h-149l-85 -235h-134l85 235h-380zM129 744h351l201 554z" />
    <glyph glyph-name="zeroinferior" unicode="&#x2080;" horiz-adv-x="994" 
d="M365 0c-201 0 -291 144 -291 324c0 279 217 638 550 638c207 0 296 -139 296 -312c0 -281 -234 -650 -555 -650zM377 50c243 0 467 393 467 649c0 129 -56 223 -178 223c-242 0 -468 -367 -468 -641c0 -148 67 -231 179 -231z" />
    <glyph glyph-name="oneinferior" unicode="&#x2081;" horiz-adv-x="673" 
d="M245 0h-130l283 783c-94 -79 -212 -110 -321 -122l-3 34c153 20 314 81 420 267h105z" />
    <glyph glyph-name="twoinferior" unicode="&#x2082;" horiz-adv-x="886" 
d="M749 130l-45 -130h-630l43 117c79 217 564 346 564 647c0 75 -30 158 -171 158c-161 0 -254 -110 -264 -250h-46c11 133 90 290 336 290c186 0 276 -90 276 -206c0 -295 -575 -441 -639 -626h576z" />
    <glyph glyph-name="threeinferior" unicode="&#x2083;" horiz-adv-x="826" 
d="M116 338l44 -1c-29 -51 -42 -100 -42 -143c0 -88 59 -150 178 -150c174 0 271 135 271 261c0 89 -49 176 -154 206l9 25c134 11 207 118 207 218c0 88 -56 168 -159 168c-66 0 -211 -34 -211 -174h-47c0 144 137 214 273 214c159 0 267 -96 267 -203
c0 -87 -72 -182 -237 -234c91 -26 183 -86 183 -220c0 -175 -157 -305 -374 -305c-174 0 -250 82 -250 190c0 46 15 97 42 148z" />
    <glyph glyph-name="fourinferior" unicode="&#x2084;" horiz-adv-x="936" 
d="M83 235l-9 46l671 681h117l-248 -681h132v-46h-149l-85 -235h-134l85 235h-380zM129 281h351l201 554z" />
    <glyph glyph-name="percent" unicode="%" horiz-adv-x="2115" 
d="M412 -186l1148 1756h117l-1148 -1756h-117zM395 463c-201 0 -290 144 -290 324c0 279 216 638 550 638c207 0 296 -139 296 -312c0 -281 -234 -650 -556 -650zM407 513c244 0 468 392 468 649c0 129 -57 223 -179 223c-241 0 -467 -367 -467 -641
c0 -148 66 -231 178 -231zM1467 0c-201 0 -291 144 -291 324c0 279 216 638 550 638c207 0 296 -139 296 -312c0 -281 -234 -650 -555 -650zM1479 50c243 0 467 393 467 649c0 129 -56 223 -179 223c-241 0 -467 -367 -467 -641c0 -148 67 -231 179 -231z" />
    <glyph glyph-name="perthousand" unicode="&#x2030;" horiz-adv-x="3034" 
d="M412 -186l1148 1756h117l-1148 -1756h-117zM395 463c-201 0 -290 144 -290 324c0 279 216 638 550 638c207 0 296 -139 296 -312c0 -281 -234 -650 -556 -650zM407 513c244 0 468 392 468 649c0 129 -57 223 -179 223c-241 0 -467 -367 -467 -641
c0 -148 66 -231 178 -231zM1471 0c-201 0 -291 144 -291 324c0 279 217 638 550 638c208 0 297 -139 297 -312c0 -281 -235 -650 -556 -650zM1483 50c244 0 468 393 468 649c0 129 -57 223 -179 223c-242 0 -467 -367 -467 -641c0 -148 66 -231 178 -231zM2386 0
c-201 0 -291 144 -291 324c0 279 217 638 550 638c208 0 296 -139 296 -312c0 -281 -234 -650 -555 -650zM2398 50c243 0 468 393 468 649c0 129 -57 223 -179 223c-242 0 -468 -367 -468 -641c0 -148 67 -231 179 -231z" />
    <glyph glyph-name="slash" unicode="/" horiz-adv-x="756" 
d="M0 -186l639 1756h117l-639 -1756h-117z" />
    <glyph glyph-name="onehalf" unicode="&#xbd;" horiz-adv-x="2115" 
d="M235 -186l1148 1756h117l-1148 -1756h-117zM276 463h-131l284 783c-95 -79 -212 -110 -322 -122l-2 34c152 20 313 81 420 267h105zM1855 130l-45 -130h-630l43 117c80 217 565 346 565 647c0 75 -31 158 -171 158c-162 0 -255 -110 -264 -250h-47c11 133 90 290 336 290
c187 0 276 -90 276 -206c0 -295 -575 -441 -638 -626h575z" />
    <glyph glyph-name="onequarter" unicode="&#xbc;" horiz-adv-x="2115" 
d="M244 -186l1148 1756h117l-1148 -1756h-117zM276 463h-131l284 783c-95 -79 -212 -110 -322 -122l-2 34c152 20 313 81 420 267h105zM1162 235l-9 46l671 681h117l-249 -681h133v-46h-149l-85 -235h-135l86 235h-380zM1207 281h351l201 554z" />
    <glyph glyph-name="threequarters" unicode="&#xbe;" horiz-adv-x="2115" 
d="M445 -186l1148 1756h117l-1148 -1756h-117zM161 801l45 -1c-29 -51 -43 -100 -43 -143c0 -88 59 -151 179 -151c174 0 270 136 270 262c0 89 -49 175 -154 206l10 25c133 11 206 118 206 218c0 88 -56 168 -158 168c-67 0 -211 -34 -211 -174h-48c0 144 137 214 274 214
c159 0 266 -96 266 -203c0 -87 -72 -182 -237 -234c91 -26 183 -86 183 -220c0 -175 -157 -305 -374 -305c-174 0 -250 82 -250 190c0 46 15 97 42 148zM1208 235l-9 46l671 681h117l-248 -681h132v-46h-149l-85 -235h-134l85 235h-380zM1254 281h351l200 554z" />
    <glyph glyph-name="backslash" unicode="\" horiz-adv-x="756" 
d="M117 1570l639 -1756h-117l-639 1756h117z" />
    <glyph glyph-name="greater" unicode="&#x3e;" horiz-adv-x="970" 
d="M293 1019l25 68l620 -402l-924 -434l34 95l738 347z" />
    <glyph glyph-name="less" unicode="&#x3c;" horiz-adv-x="938" 
d="M658 318l-24 -67l-620 402l924 434l-34 -95l-738 -348z" />
    <glyph glyph-name="multiply" unicode="&#xd7;" horiz-adv-x="667" 
d="M107 349l-65 66l225 225l-225 226l65 65l225 -225l227 226l66 -65l-227 -227l227 -226l-66 -66l-227 226z" />
    <glyph glyph-name="minus" unicode="&#x2212;" horiz-adv-x="816" 
d="M42 594v93h732v-93h-732z" />
    <glyph glyph-name="plus" unicode="+" horiz-adv-x="816" 
d="M42 594v93h319v319h93v-319h320v-93h-320v-320h-93v320h-319z" />
    <glyph glyph-name="period" unicode="." horiz-adv-x="469" 
d="M32 92c0 52 42 94 93 94s94 -42 94 -93s-43 -93 -95 -93c-51 0 -92 41 -92 92z" />
    <glyph glyph-name="colon" unicode=":" horiz-adv-x="647" 
d="M32 92c0 52 42 94 93 94s94 -42 94 -93s-43 -93 -95 -93c-51 0 -92 41 -92 92zM368 1008c0 52 42 95 93 95s94 -43 94 -94s-43 -92 -95 -92c-51 0 -92 40 -92 91z" />
    <glyph glyph-name="comma" unicode="," horiz-adv-x="473" 
d="M-53 -188l12 35c86 6 169 76 169 130c0 8 -2 17 -8 24c-45 0 -89 37 -89 89c0 45 34 96 92 96c46 0 99 -30 99 -123c0 -152 -138 -251 -275 -251z" />
    <glyph glyph-name="semicolon" unicode=";" horiz-adv-x="647" 
d="M-52 -188l12 35c86 6 169 76 169 130c0 8 -2 17 -8 24c-45 0 -89 37 -89 89c0 45 34 96 92 96c45 0 99 -30 99 -123c0 -152 -138 -251 -275 -251zM368 1008c0 52 42 95 93 95s94 -43 94 -94s-43 -92 -95 -92c-51 0 -92 40 -92 91z" />
    <glyph glyph-name="exclam" unicode="!" horiz-adv-x="742" 
d="M608 1711l168 -42l-508 -1332l-93 27zM42 82c0 48 37 86 83 86s84 -38 84 -85c0 -46 -38 -83 -85 -83c-46 0 -82 36 -82 82z" />
    <glyph glyph-name="exclamdown" unicode="&#xa1;" horiz-adv-x="939" 
d="M133 -525l-167 42l507 1332l94 -27zM700 1104c0 -48 -37 -86 -83 -86c-47 0 -85 38 -85 85c0 46 38 83 86 83c46 0 82 -36 82 -82z" />
    <glyph glyph-name="question" unicode="?" horiz-adv-x="1112" 
d="M473 1096l-9 -24c-186 36 -265 169 -265 278c0 175 169 335 430 335c219 0 398 -114 398 -337c0 -384 -667 -603 -796 -1002l-37 20c103 414 703 579 703 986c0 169 -92 289 -276 289c-219 0 -303 -172 -303 -303c0 -85 43 -190 155 -242zM42 82c0 48 37 86 83 86
s84 -38 84 -85c0 -46 -38 -83 -85 -83c-46 0 -82 36 -82 82z" />
    <glyph glyph-name="questiondown" unicode="&#xbf;" horiz-adv-x="1255" 
d="M554 87l9 24c186 -36 265 -168 265 -278c0 -175 -169 -335 -430 -335c-219 0 -398 114 -398 337c0 384 667 603 795 1002l38 -19c-103 -414 -703 -580 -703 -987c0 -169 92 -288 276 -288c219 0 302 171 302 302c0 86 -42 190 -154 242zM985 1101c0 -47 -37 -85 -83 -85
c-47 0 -84 38 -84 84s37 83 85 83c46 0 82 -36 82 -82z" />
    <glyph glyph-name="equal" unicode="=" horiz-adv-x="1098" 
d="M178 734l32 93h846l-32 -93h-846zM42 361l32 93h846l-32 -93h-846z" />
    <glyph glyph-name="emdash" unicode="&#x2014;" horiz-adv-x="1148" 
d="M65 594l36 93h899l-36 -93h-899z" />
    <glyph glyph-name="underscore" unicode="_" horiz-adv-x="1152" 
d="M-37 -94l36 93h899l-36 -93h-899z" />
    <glyph glyph-name="hyphen" unicode="-" horiz-adv-x="1036" 
d="M159 594l36 93h640l-36 -93h-640z" />
    <glyph glyph-name="endash" unicode="&#x2013;" horiz-adv-x="981" 
d="M65 594l36 93h732l-36 -93h-732z" />
    <glyph glyph-name="parenleft" unicode="(" horiz-adv-x="1010" 
d="M357 10l-14 -47c-199 193 -301 449 -301 701c0 502 358 968 926 1018l-18 -46c-488 -64 -823 -539 -823 -1026c0 -218 79 -435 230 -600z" />
    <glyph glyph-name="parenright" unicode=")" horiz-adv-x="1010" 
d="M653 1635l15 47c199 -193 300 -449 300 -701c0 -501 -358 -968 -926 -1018l18 46c488 64 823 539 823 1026c0 219 -78 435 -230 600z" />
    <glyph glyph-name="bar" unicode="|" horiz-adv-x="463" 
d="M185 -38v1620h93v-1620h-93z" />
    <glyph glyph-name="brokenbar" unicode="&#xa6;" horiz-adv-x="463" 
d="M278 872h-93v710h93v-710zM278 -40h-93v710h93v-710z" />
    <glyph glyph-name="bracketleft" unicode="[" horiz-adv-x="1163" 
d="M42 -189l681 1873h398l-16 -46h-301l-650 -1781h302l-16 -46h-398z" />
    <glyph glyph-name="bracketright" unicode="]" horiz-adv-x="1163" 
d="M1121 1684l-681 -1873h-398l16 46h300l650 1781h-302l17 46h398z" />
    <glyph glyph-name="braceleft" unicode="{" horiz-adv-x="944" 
d="M244 827l26 10c266 105 214 828 459 828c33 0 101 -8 174 -70l-23 -15c-50 33 -78 51 -127 51c-168 0 -69 -661 -429 -818l-15 -7l8 -16c23 -52 32 -107 32 -160c0 -274 -245 -558 -245 -690c0 -75 85 -86 153 -94l9 -27c-140 13 -224 34 -224 151c0 174 239 470 239 711
c0 44 -8 86 -26 124z" />
    <glyph glyph-name="braceright" unicode="}" horiz-adv-x="944" 
d="M700 657l-26 -10c-279 -109 -214 -828 -458 -828c-34 0 -101 8 -174 70l22 16c50 -34 79 -52 128 -52c167 0 68 661 428 818l15 7l-7 16c-23 52 -33 107 -33 161c0 273 246 557 246 689c0 75 -85 86 -154 94l-8 27c139 -13 224 -34 224 -151c0 -174 -239 -470 -239 -710
c0 -45 7 -86 26 -125z" />
    <glyph glyph-name="logicalnot" unicode="&#xac;" horiz-adv-x="1268" 
d="M185 844h898v-340h-132v248h-766v92z" />
    <glyph glyph-name="quotesinglbase" unicode="&#x201a;" horiz-adv-x="358" 
d="M42 -188l12 35c87 6 168 77 168 129c0 9 -2 18 -7 25c-46 0 -70 40 -70 80c0 43 28 88 85 88c60 0 87 -56 87 -112c0 -155 -150 -245 -275 -245z" />
    <glyph glyph-name="quotedblbase" unicode="&#x201e;" horiz-adv-x="645" 
d="M42 -188l12 35c87 6 168 77 168 129c0 9 -2 18 -7 25c-46 0 -70 40 -70 80c0 43 28 88 85 88c60 0 87 -56 87 -112c0 -155 -150 -245 -275 -245zM329 -188l12 35c87 6 168 77 168 129c0 9 -2 18 -7 25c-46 0 -70 40 -70 80c0 43 28 88 85 88c60 0 87 -56 87 -112
c0 -155 -150 -245 -275 -245z" />
    <glyph glyph-name="quotedblright" unicode="&#x201d;" horiz-adv-x="645" 
d="M227 1252l12 35c87 5 168 77 168 129c0 9 -1 17 -7 25c-45 0 -69 39 -69 79c0 44 27 89 84 89c60 0 87 -56 87 -112c0 -155 -150 -245 -275 -245zM514 1252l12 35c87 5 168 77 168 129c0 9 -1 17 -7 25c-45 0 -69 39 -69 79c0 44 27 89 84 89c60 0 87 -56 87 -112
c0 -155 -150 -245 -275 -245z" />
    <glyph glyph-name="quoteright" unicode="&#x2019;" horiz-adv-x="358" 
d="M42 1251l12 35c87 6 168 77 168 129c0 9 -2 17 -7 25c-46 0 -70 40 -70 79c0 44 28 89 85 89c60 0 87 -56 87 -112c0 -155 -150 -245 -275 -245z" />
    <glyph glyph-name="quoteleft" unicode="&#x2018;" horiz-adv-x="358" 
d="M317 1609l-12 -35c-87 -6 -169 -77 -169 -129c0 -9 2 -17 8 -25c45 0 69 -40 69 -79c0 -44 -28 -89 -84 -89c-60 0 -87 56 -87 112c0 155 150 245 275 245z" />
    <glyph glyph-name="quotedblleft" unicode="&#x201c;" horiz-adv-x="645" 
d="M604 1608l-12 -35c-87 -6 -169 -77 -169 -129c0 -9 2 -17 8 -25c45 0 69 -39 69 -79c0 -44 -28 -89 -84 -89c-60 0 -87 56 -87 112c0 155 150 245 275 245zM317 1608l-12 -35c-87 -6 -169 -77 -169 -129c0 -9 2 -17 8 -25c45 0 69 -39 69 -79c0 -44 -28 -89 -84 -89
c-60 0 -87 56 -87 112c0 155 150 245 275 245z" />
    <glyph glyph-name="copyright" unicode="&#xa9;" horiz-adv-x="1108" 
d="M554 1269c283 0 513 -226 513 -505c0 -285 -230 -510 -523 -510c-274 0 -502 231 -502 510s228 505 512 505zM554 1200c-244 0 -432 -194 -432 -436c0 -247 188 -441 425 -441c251 0 439 191 439 441c0 242 -189 436 -432 436zM753 998l-21 -86c-36 27 -114 50 -178 50
c-128 0 -173 -85 -173 -189c0 -115 59 -207 179 -207c65 0 139 28 183 72l14 -95c-43 -29 -126 -61 -213 -61c-181 0 -266 129 -266 284c0 152 78 279 276 279c74 0 154 -18 199 -47z" />
    <glyph glyph-name="registered" unicode="&#xae;" horiz-adv-x="1114" 
d="M556 1271c285 0 516 -229 516 -509c0 -288 -231 -513 -525 -513c-277 0 -505 232 -505 513c0 280 228 509 514 509zM556 1201c-245 0 -435 -195 -435 -439c0 -249 190 -443 428 -443c254 0 444 191 444 443c0 244 -193 439 -437 439zM387 503v557c39 2 102 3 144 3
c124 0 210 -33 210 -157c0 -70 -51 -131 -134 -153l171 -250h-93l-167 245h-50v-245h-81zM534 1000c-24 0 -45 -2 -66 -2v-189c21 -1 42 -1 67 -1c75 0 121 36 121 105c0 51 -33 87 -122 87z" />
    <glyph glyph-name="plusminus" unicode="&#xb1;" horiz-adv-x="816" 
d="M42 594v93h319v319h93v-319h320v-93h-320v-320h-93v320h-319zM42 2v92h732v-92h-732z" />
    <glyph glyph-name="trademark" unicode="&#x2122;" horiz-adv-x="1078" 
d="M727 518l-154 386v-386h-68v523h87l180 -445l177 445h87v-523h-71v385l-155 -385h-83zM436 1041v-73h-154v-450h-87v450h-153v73h394z" />
    <glyph glyph-name="divide" unicode="&#xf7;" horiz-adv-x="905" 
d="M194 89c0 52 42 94 93 94s94 -42 94 -93s-43 -93 -95 -93c-51 0 -92 41 -92 92zM531 1005c0 52 41 95 92 95s94 -43 94 -94s-43 -92 -95 -92c-51 0 -91 41 -91 91zM97 493v92h733v-92h-733z" />
    <glyph glyph-name="asciitilde" unicode="~" horiz-adv-x="1055" 
d="M268 753c172 0 413 -217 554 -217c123 0 175 154 197 217h44c-50 -154 -110 -321 -286 -321c-169 0 -390 214 -533 214s-167 -123 -202 -213h-44c57 148 101 320 270 320z" />
    <glyph glyph-name="guilsinglleft" unicode="&#x2039;" horiz-adv-x="887" 
d="M525 254l-24 -68l-459 467l803 490l-34 -96l-667 -408z" />
    <glyph glyph-name="guilsinglright" unicode="&#x203a;" horiz-adv-x="887" 
d="M362 1075l24 68l459 -467l-803 -490l34 95l667 409z" />
    <glyph glyph-name="guillemotleft" unicode="&#xab;" horiz-adv-x="1341" 
d="M525 254l-24 -68l-459 467l803 490l-34 -96l-667 -408zM979 226l-24 -68l-460 467l804 490l-34 -96l-668 -408z" />
    <glyph glyph-name="guillemotright" unicode="&#xbb;" horiz-adv-x="1341" 
d="M816 1047l24 68l459 -467l-804 -490l35 96l667 408zM362 1080l24 67l459 -466l-803 -490l34 95l667 408z" />
    <glyph glyph-name="dagger" unicode="&#x2020;" horiz-adv-x="852" 
d="M42 891l36 92h302v599h92v-599h338l-36 -92h-302v-929h-92v929h-338z" />
    <glyph glyph-name="oe" unicode="&#x153;" horiz-adv-x="1864" 
d="M1148 -19c-240 0 -377 128 -377 376v19c-127 -231 -311 -395 -506 -395c-190 0 -304 140 -304 373c0 464 357 850 685 850c240 0 271 -158 271 -352c129 213 325 352 517 352c133 0 215 -67 215 -179c0 -210 -259 -385 -659 -385c-39 -108 -62 -227 -62 -347
c0 -185 75 -262 242 -262c282 0 512 241 642 470l52 92l27 -19l-52 -92c-165 -290 -395 -501 -691 -501zM1463 1164c-169 0 -358 -209 -461 -488c145 3 246 27 324 64c122 57 241 183 241 328c0 71 -47 96 -104 96zM280 31c192 0 408 229 523 555c31 88 67 223 67 341
c0 129 -43 237 -188 237c-207 0 -419 -233 -517 -571c-33 -113 -52 -233 -52 -326c0 -158 55 -236 167 -236z" />
    <glyph glyph-name="OE" unicode="&#x152;" horiz-adv-x="2339" 
d="M1767 894c-275 -34 -450 -251 -450 -555c0 -220 92 -326 280 -326c254 0 516 181 690 488l52 92l27 -19l-52 -92c-195 -343 -461 -519 -742 -519c-265 0 -410 179 -410 443c-167 -270 -398 -445 -638 -445c-248 0 -394 187 -394 502c0 97 14 202 40 306
c124 483 494 840 868 840c251 0 352 -162 352 -456c0 -126 -25 -271 -75 -420c98 96 238 157 404 172c-99 56 -155 156 -155 277c0 235 210 427 467 427c164 0 280 -96 280 -232c0 -127 -86 -232 -219 -309l-15 30c103 59 168 170 168 288c0 119 -66 184 -184 184
c-208 0 -381 -202 -381 -443c0 -104 32 -183 87 -215c6 3 24 6 37 6c18 0 28 -5 28 -14c0 -11 -10 -16 -29 -16c-13 0 -28 3 -36 6zM539 10c265 0 566 283 726 730c57 160 90 324 90 448c0 217 -102 383 -274 383c-276 0 -588 -335 -731 -785c-45 -144 -70 -290 -70 -412
c0 -236 91 -364 259 -364z" />
    <glyph glyph-name="cent" unicode="&#xa2;" horiz-adv-x="1165" 
d="M767 161l10 -42c-94 -93 -195 -138 -331 -138c-19 0 -39 1 -56 3l-85 -235h-117l94 259c-131 50 -201 170 -201 348c0 71 11 149 31 226c91 344 344 602 605 621l110 302h116l-113 -312c32 -9 59 -25 80 -45c30 -30 46 -68 46 -107c0 -58 -35 -96 -89 -96
c-46 0 -74 28 -74 73c0 43 25 72 62 72c7 0 13 -1 20 -4c6 -3 8 -3 11 -3c6 0 8 5 8 13c0 36 -57 68 -122 68c-246 0 -536 -464 -536 -858c0 -192 69 -275 229 -275c124 0 216 45 302 130z" />
    <glyph glyph-name="dollar" unicode="$" horiz-adv-x="1254" 
d="M430 -190h-117l71 193c-215 27 -328 180 -328 398c0 160 62 275 145 275c36 0 57 -22 57 -56c0 -58 -63 -68 -98 -84c-32 -15 -60 -44 -60 -145c0 -204 112 -345 337 -345c238 0 384 160 384 384c0 309 -277 335 -277 617c0 202 143 398 399 411l69 189h117l-72 -196
c132 -27 198 -120 198 -261c0 -74 -18 -148 -52 -224l-35 15c30 74 47 139 47 209c0 147 -74 236 -235 236c-205 0 -293 -146 -293 -297c0 -281 299 -398 299 -675c0 -234 -211 -435 -487 -454z" />
    <glyph glyph-name="Euro" unicode="&#x20ac;" horiz-adv-x="1462" 
d="M150 910l32 93h131c166 360 473 606 784 606c174 0 276 -79 323 -225h-56c-21 75 -95 187 -223 187c-231 0 -485 -232 -647 -568h535l-33 -93h-542c-25 -64 -48 -131 -66 -197h532l-32 -93h-522c-18 -87 -27 -171 -27 -246c0 -236 92 -364 259 -364c74 0 170 12 265 71
l82 4c-115 -79 -240 -124 -362 -124c-248 0 -394 187 -394 502c0 51 4 104 11 157h-158l32 93h142c26 105 40 152 58 197h-124z" />
    <glyph glyph-name="numbersign" unicode="#" horiz-adv-x="1337" 
d="M231 882l33 93h230l149 409h117l-149 -409h319l149 409h116l-149 -409h249l-32 -93h-250l-157 -428h249l-32 -93h-250l-131 -361h-117l131 361h-318l-132 -361h-116l131 361h-229l32 93h231l156 428h-230zM578 882l-157 -428h319l156 428h-318z" />
    <glyph glyph-name="tilde" unicode="&#x2dc;" horiz-adv-x="968" 
d="M321 1682c176 0 222 -198 357 -198c102 0 166 112 182 177h44c-39 -140 -105 -281 -264 -281c-187 0 -200 196 -349 196c-127 0 -170 -141 -183 -182h-43c33 106 87 288 256 288z" />
    <glyph glyph-name="grave" unicode="`" horiz-adv-x="378" 
d="M356 1365l-29 -25c-90 30 -305 171 -305 288c0 30 15 56 47 56c57 0 62 -77 141 -185c47 -64 104 -115 146 -134z" />
    <glyph glyph-name="quotesingle" unicode="'" horiz-adv-x="282" 
d="M244 1286l-36 10c29 35 60 109 73 184c25 127 -5 232 64 232c50 0 62 -55 62 -92c0 -109 -102 -276 -163 -334z" />
    <glyph glyph-name="quotedbl" unicode="&#x22;" horiz-adv-x="513" 
d="M365 1286l-36 10c28 35 59 109 73 184c24 127 -6 232 64 232c50 0 62 -55 62 -92c0 -109 -103 -276 -163 -334zM595 1286l-36 10c29 35 59 109 73 184c24 127 -5 232 64 232c50 0 62 -55 62 -92c0 -109 -102 -276 -163 -334z" />
    <glyph glyph-name="acute" unicode="&#xb4;" horiz-adv-x="378" 
d="M51 1340l-29 25c42 19 98 70 146 134c79 108 84 185 140 185c33 0 48 -26 48 -56c0 -117 -215 -258 -305 -288z" />
    <glyph glyph-name="circumflex" unicode="&#x2c6;" horiz-adv-x="653" 
d="M329 1656c14 24 31 28 48 28c24 0 36 -10 41 -29c27 -93 57 -194 211 -290c-2 -2 -24 -27 -24 -27s-168 75 -237 225c1 0 -158 -177 -315 -223c-1 0 -30 25 -30 25c181 92 227 165 306 291z" />
    <glyph glyph-name="caron" unicode="&#x2c7;" horiz-adv-x="653" 
d="M324 1366c-15 -24 -31 -28 -48 -28c-24 0 -36 10 -42 29c-27 93 -56 194 -211 290c2 1 25 27 25 27s168 -75 236 -225c-1 0 159 177 316 223c1 0 30 -25 30 -25c-181 -92 -227 -165 -306 -291z" />
    <glyph glyph-name="apostrophe" unicode="&#x2bc;" horiz-adv-x="274" 
d="M42 1340l1 41c54 26 95 73 95 111c0 8 -2 16 -7 24c-46 0 -70 39 -70 79c0 44 28 89 83 89c62 0 88 -54 88 -116c0 -111 -87 -198 -190 -228z" />
    <glyph glyph-name="hungarumlaut" unicode="&#x2dd;" horiz-adv-x="658" 
d="M51 1340l-29 25c42 19 98 70 146 134c79 108 84 185 140 185c33 0 48 -26 48 -56c0 -117 -215 -258 -305 -288zM331 1340l-28 25c41 19 98 70 145 134c80 108 84 185 141 185c32 0 47 -26 47 -56c0 -117 -215 -258 -305 -288z" />
    <glyph glyph-name="uni2215" unicode="&#x2215;" horiz-adv-x="1393" 
d="M54 -186l1148 1756h116l-1148 -1756h-116z" />
    <glyph glyph-name="schwa" unicode="&#x259;" horiz-adv-x="1323" 
d="M679 1204c222 0 359 -128 359 -376c0 -68 -10 -146 -32 -225c-94 -357 -366 -622 -631 -622c-133 0 -215 67 -215 179c0 127 106 249 273 320c104 43 228 65 386 65c5 16 11 31 15 48c32 108 47 216 47 300c0 178 -72 261 -223 261c-246 0 -452 -264 -589 -507l-52 -91
l-27 18l52 92c171 302 361 538 637 538zM346 21c168 0 359 210 460 488c-145 -3 -245 -28 -323 -64c-122 -57 -240 -183 -240 -328c0 -71 46 -96 103 -96z" />
    <glyph glyph-name="periodcentered" unicode="&#xb7;" horiz-adv-x="740" 
d="M287 594c0 52 42 95 93 95s93 -43 93 -94s-42 -92 -94 -92c-51 0 -92 40 -92 91z" />
    <glyph glyph-name="bullet" unicode="&#x2022;" horiz-adv-x="740" 
d="M230 593c0 86 66 153 150 153c83 0 151 -67 151 -151c0 -83 -68 -150 -153 -150c-84 0 -148 65 -148 148z" />
    <glyph glyph-name="uni00A0" unicode="&#xa0;" horiz-adv-x="741" 
 />
    <glyph glyph-name="CR" unicode="&#xd;" horiz-adv-x="741" 
 />
    <glyph glyph-name="NULL" horiz-adv-x="0" 
 />
    <glyph glyph-name="NULL" horiz-adv-x="0" 
 />
    <glyph glyph-name="uni00AD" unicode="&#xad;" horiz-adv-x="759" 
d="M42 594l36 93h640l-37 -93h-639z" />
    <glyph glyph-name="B" unicode="B" horiz-adv-x="1974" 
d="M744 90l32 33c51 -72 135 -113 229 -113c231 0 424 241 424 525c0 175 -74 281 -215 318c-3 -1 -7 -1 -14 -1c-16 0 -27 5 -27 13c0 7 12 14 29 14c9 0 17 -2 27 -8c215 48 382 250 382 462c0 119 -53 191 -165 222c-71 -29 -154 -98 -199 -163
c-35 -52 -63 -125 -238 -601c-209 -569 -439 -830 -731 -830c-186 0 -278 106 -278 320c0 190 71 421 194 630c252 428 680 698 1105 698c278 0 443 -116 443 -311c0 -230 -227 -428 -500 -437c227 -50 338 -175 338 -363c0 -289 -263 -537 -571 -537
c-116 0 -191 35 -265 129zM1035 1229c118 213 241 291 372 334c-31 5 -67 8 -106 8c-399 0 -820 -270 -1059 -674c-121 -203 -186 -422 -186 -618c0 -192 63 -269 220 -269c207 0 306 134 509 630c104 253 172 449 250 589z" />
    <glyph glyph-name="IJ" unicode="&#x132;" horiz-adv-x="2558" 
d="M1606 1609v-18c-88 -24 -177 -101 -228 -174c-49 -71 -86 -170 -251 -626c-213 -586 -433 -830 -775 -830c-231 0 -352 110 -352 290c0 135 69 249 146 249c34 0 56 -20 56 -54c0 -53 -56 -72 -98 -86c-43 -14 -57 -54 -57 -113c0 -151 108 -248 286 -248
c262 0 369 129 570 641c161 410 202 515 261 613c61 102 146 200 246 268c-90 -28 -191 -45 -265 -45c-141 0 -287 64 -370 64c-102 0 -189 -93 -189 -231c0 -41 7 -75 20 -102l-35 -20c-16 31 -27 71 -27 121c0 188 148 302 344 302c144 0 152 -61 414 -61
c125 0 194 22 304 60zM2046 609c-77 -216 -154 -399 -236 -552c390 30 521 135 696 444l52 92l27 -19l-52 -92c-200 -353 -367 -427 -745 -466c-204 -365 -431 -542 -724 -542c-159 0 -249 80 -249 222c0 193 237 292 836 347c54 114 109 250 172 415
c180 472 250 650 331 792c63 110 138 202 237 268c-88 -26 -185 -42 -257 -42c-142 0 -287 64 -370 64c-102 0 -189 -93 -189 -230c0 -42 7 -76 20 -103l-35 -20c-17 31 -27 71 -27 119c0 190 147 304 344 304c144 0 152 -61 414 -61c136 0 192 18 304 60v-18
c-78 -24 -154 -67 -225 -175c-79 -121 -148 -312 -324 -807zM1070 -477c235 0 382 107 561 479c-412 -36 -766 -108 -766 -305c0 -117 78 -174 205 -174z" />
    <glyph glyph-name="ij" unicode="&#x133;" horiz-adv-x="1340" 
d="M-39 485l255 700h148l-255 -700c-38 -104 -76 -220 -76 -303c0 -92 48 -151 150 -151c180 0 327 155 506 470l50 89l216 595h149l-472 -1297c-97 -268 -249 -415 -416 -415c-69 0 -114 22 -142 73c-16 29 -24 68 -24 105c0 68 34 108 92 108c46 0 75 -27 75 -71
c0 -42 -25 -73 -60 -73c-14 0 -20 6 -32 6c-7 0 -9 -2 -9 -15c0 -57 34 -90 94 -90c105 0 176 102 271 364l193 530c-175 -294 -320 -429 -513 -429c-163 0 -249 103 -249 260c0 69 17 154 49 244zM296 1447c0 47 37 85 84 85c46 0 84 -38 84 -84s-38 -83 -85 -83
s-83 36 -83 82zM1037 1447c0 47 37 85 83 85c47 0 85 -38 85 -84s-38 -83 -86 -83c-46 0 -82 36 -82 82z" />
    <glyph glyph-name="asciicircum" unicode="^" horiz-adv-x="907" 
d="M866 493h-79l-336 391l-331 -391h-78l407 494z" />
    <glyph glyph-name="asterisk" unicode="*" horiz-adv-x="743" 
d="M644 1319l-251 -145l256 -148c11 -7 20 -21 20 -34c0 -22 -21 -37 -39 -37c-11 0 -23 3 -31 11l-214 179l24 -281c0 -21 -11 -44 -36 -44c-27 0 -41 23 -41 49l24 278l-218 -181c-8 -8 -19 -11 -30 -11c-16 0 -34 15 -34 37c0 14 8 30 24 39l246 143l-247 143
c-16 10 -23 25 -23 39c0 20 17 37 35 37c10 0 23 -3 34 -12l213 -180l-24 280c0 29 15 49 41 49c25 0 36 -22 36 -49l-24 -278l215 180c9 9 22 12 32 12c18 0 37 -16 37 -37c0 -14 -9 -29 -25 -39z" />
    <glyph glyph-name="daggerdbl" unicode="&#x2021;" horiz-adv-x="852" 
d="M42 1094l36 93h302v395h92v-395h338l-36 -93h-302v-601h338l-36 -93h-302v-438h-92v438h-338l36 93h302v601h-338z" />
    <glyph glyph-name="breve" unicode="&#x2d8;" horiz-adv-x="477" 
d="M409 1599h45c-4 -83 -83 -189 -219 -189s-209 105 -212 189h43c3 -61 61 -148 170 -148s169 88 173 148z" />
    <glyph glyph-name="at" unicode="@" horiz-adv-x="1895" 
d="M577 587c83 246 287 396 443 396c97 0 127 -60 127 -153l52 142h94l-163 -448c-24 -67 -48 -141 -48 -193c0 -51 24 -102 103 -102c211 0 368 366 368 640c0 230 -110 492 -484 492c-519 0 -800 -505 -800 -915c0 -326 177 -596 576 -596c210 0 360 74 410 106l29 -33
c-131 -68 -285 -108 -434 -108c-382 0 -681 264 -681 670c0 449 365 928 886 928c389 0 594 -268 594 -583c0 -326 -220 -631 -453 -631c-99 0 -191 55 -191 171c0 30 5 71 18 114c-111 -185 -216 -282 -331 -282c-107 0 -150 82 -150 191c0 59 13 128 35 194zM1057 593
c55 123 66 217 66 248c0 89 -47 117 -93 117c-96 0 -243 -115 -339 -364c-40 -103 -60 -195 -60 -253c0 -68 27 -108 77 -108c120 0 270 179 349 360z" />
    <glyph glyph-name="ring" unicode="&#x2da;" horiz-adv-x="384" 
d="M42 1533c0 85 66 153 150 153c83 0 151 -68 151 -151s-68 -150 -153 -150c-84 0 -148 65 -148 148zM81 1533c0 -61 48 -109 109 -109c63 0 112 50 112 111s-49 110 -110 110s-111 -49 -111 -112z" />
    <glyph glyph-name="macron" unicode="&#xaf;" horiz-adv-x="805" 
d="M51 1424l27 68h677l-27 -68h-677z" />
    <glyph glyph-name="cedilla" unicode="&#xb8;" horiz-adv-x="488" 
d="M33 -369l16 18c55 -46 123 -76 176 -76c70 0 123 55 123 127c0 78 -65 125 -171 125c-21 0 -27 0 -33 -1l83 188h58l-76 -168h22c135 0 212 -50 212 -140c0 -94 -86 -163 -202 -163c-75 0 -143 28 -208 90z" />
    <glyph glyph-name="ogonek" unicode="&#x2db;" horiz-adv-x="479" 
d="M159 24l92 -17c-226 -109 -346 -243 -346 -372c0 -71 37 -105 113 -105c48 0 102 14 173 42l12 -18c-80 -37 -137 -52 -206 -52c-123 0 -182 47 -182 144c0 140 129 275 344 378z" />
    <glyph glyph-name="yen" unicode="&#xa5;" horiz-adv-x="1872" 
d="M1472 1535l149 1l-293 -802h302l-32 -92h-304c-42 -121 -74 -204 -105 -281h305l-32 -93h-313c-235 -535 -493 -794 -848 -794c-159 0 -249 80 -249 222c0 192 232 286 829 341c53 110 109 242 219 520c-123 -187 -261 -318 -422 -318c-48 0 -94 10 -133 29h-503l32 93
h371c-28 47 -39 102 -39 157c0 41 6 84 13 124h-241l32 92h234c78 244 248 482 248 710c0 68 -21 127 -88 127c-116 0 -263 -157 -399 -487l-27 19c146 363 303 506 454 506c134 0 220 -81 220 -209c0 -295 -309 -671 -309 -944c0 -101 60 -168 138 -168
c215 0 391 274 547 596zM307 -477c225 0 370 96 558 479c-425 -39 -763 -113 -763 -305c0 -117 78 -174 205 -174z" />
    <glyph glyph-name="paragraph" unicode="&#xb6;" horiz-adv-x="2121" 
d="M89 -75c0 -172 124 -222 256 -222c198 0 275 96 431 518l142 385c-166 6 -346 156 -346 369c0 430 384 601 710 601c147 0 286 -17 390 -26c62 41 129 62 201 62c120 0 206 -66 206 -156c0 -63 -35 -101 -89 -101c-46 0 -73 28 -73 73c0 43 25 72 62 72c9 0 20 -7 29 -7
c6 0 9 4 9 12c0 39 -75 60 -133 60c-127 0 -216 -103 -308 -360l-265 -731c-183 -505 -354 -718 -645 -718h-34c-86 -70 -182 -102 -296 -102c-145 0 -294 74 -294 275c0 135 68 249 146 249c33 0 56 -21 56 -54c0 -53 -56 -72 -99 -86c-41 -14 -56 -54 -56 -113zM1253 1120
l-269 -749c-95 -266 -190 -451 -300 -566c190 3 270 103 421 518l320 874c48 132 111 234 186 305c-189 0 -259 -104 -358 -382z" />
    <glyph glyph-name="section" unicode="&#xa7;" horiz-adv-x="2018" 
d="M650 -87c-9 0 -17 0 -25 1c-97 -169 -228 -260 -377 -260c-120 0 -206 65 -206 155c0 63 35 101 89 101c46 0 74 -28 74 -72s-25 -72 -62 -72c-10 0 -21 6 -30 6c-6 0 -9 -3 -9 -11c0 -40 75 -60 133 -60c124 0 215 103 308 359l178 491c183 505 354 718 645 718
c9 0 17 0 25 -1c97 169 228 261 377 261c121 0 207 -66 207 -156c0 -63 -35 -101 -90 -101c-45 0 -73 28 -73 72s25 73 62 73c9 0 20 -7 29 -7c6 0 10 4 10 11c0 40 -75 60 -134 60c-126 0 -215 -102 -308 -359l-178 -491c-183 -505 -353 -718 -645 -718zM1090 481
c246 671 261 706 277 739c-205 0 -284 -96 -438 -518c-247 -671 -262 -707 -278 -740c205 0 284 96 439 519z" />
    <glyph glyph-name="commaaccent" unicode="&#xf6c3;" horiz-adv-x="339" 
d="M13 -526l12 35c86 6 169 76 169 130c0 8 -2 17 -8 24c-45 0 -89 37 -89 89c0 45 34 96 92 96c45 0 99 -30 99 -123c0 -152 -138 -251 -275 -251z" />
    <glyph glyph-name="sterling" unicode="&#xa3;" horiz-adv-x="1700" 
d="M493 616l36 92h340c153 370 240 620 394 770c91 89 195 131 289 131c112 0 143 -62 143 -140c0 -135 -95 -338 -271 -503l-25 31c156 155 256 346 256 470c0 54 -18 104 -90 104c-75 0 -157 -54 -228 -152c-111 -152 -180 -387 -306 -711h359l-36 -92h-361
c-106 -240 -214 -405 -337 -510c128 -36 318 -83 489 -83c154 0 264 39 360 119h51c-156 -166 -303 -212 -454 -212c-165 0 -347 59 -529 116c-98 -58 -205 -85 -327 -85c-166 0 -204 50 -204 99c0 95 139 110 240 110c111 0 209 -18 293 -40c80 92 155 243 256 486h-338z
M248 -3c109 0 190 17 260 70c-87 27 -200 59 -301 59c-77 0 -126 -20 -126 -66c0 -35 28 -63 167 -63z" />
    <glyph glyph-name="currency" unicode="&#xa4;" horiz-adv-x="934" 
d="M472 1168c96 0 184 -32 253 -86l168 171l65 -66l-166 -169c58 -71 93 -160 93 -257c0 -99 -34 -189 -92 -259l163 -166l-65 -66l-164 167c-71 -55 -163 -87 -262 -87c-94 0 -180 32 -248 87l-164 -167l-66 66l164 167c-57 70 -91 161 -91 258s34 187 93 257l-166 169
l66 66l166 -171c70 54 158 86 253 86zM472 1077c-177 0 -313 -140 -313 -316c0 -180 136 -319 309 -319c182 0 318 138 318 319c0 176 -139 316 -314 316z" />
    <glyph glyph-name="ampersand" unicode="&#x26;" horiz-adv-x="1718" 
d="M989 841c138 0 261 -77 355 -77c75 0 174 49 223 253h43c-29 -182 -174 -341 -381 -341c-16 0 -38 1 -65 10c28 -58 36 -106 36 -160c0 -284 -238 -532 -526 -532c-243 0 -467 176 -467 462c0 299 244 512 597 542c-111 55 -174 159 -174 272c0 204 205 339 431 339
c200 0 289 -105 289 -213c0 -95 -71 -202 -220 -245l-15 30c131 24 194 129 194 216c0 92 -71 173 -211 173c-194 0 -353 -157 -353 -353c0 -98 39 -181 107 -212c5 2 23 5 37 5c18 0 27 -5 27 -15c0 -9 -10 -14 -32 -14c-10 0 -25 1 -33 6c-293 -33 -486 -248 -486 -555
c0 -265 145 -388 324 -388c229 0 453 203 453 480c0 165 -80 210 -182 210c-120 0 -214 -64 -214 -194l-43 -3c-1 12 -2 21 -2 35c0 169 130 269 288 269z" />
    <glyph glyph-name="ordmasculine" unicode="&#xba;" horiz-adv-x="680" 
d="M248 604c-143 0 -206 102 -206 227c0 198 153 450 386 450c148 0 210 -97 210 -218c0 -199 -166 -459 -390 -459zM265 656c156 0 306 261 306 434c0 84 -35 148 -123 148c-152 0 -305 -237 -305 -440c0 -82 43 -142 122 -142z" />
    <glyph glyph-name="ordfeminine" unicode="&#xaa;" horiz-adv-x="742" 
d="M622 628l-4 -30c-124 3 -185 60 -185 145c0 13 1 28 3 44c-76 -122 -164 -189 -242 -189c-95 0 -152 76 -152 176c0 271 192 504 406 504c58 0 114 -25 122 -98l32 85h98l-140 -387c-20 -57 -42 -122 -42 -165c0 -53 33 -83 104 -85zM473 938c53 119 59 174 59 214
c0 79 -45 89 -75 89c-119 0 -325 -239 -325 -493c0 -52 36 -98 81 -98c68 0 166 75 260 288z" />
    <glyph glyph-name="degree" unicode="&#xb0;" horiz-adv-x="670" 
d="M129 1406c0 136 108 246 242 246c135 0 244 -110 244 -244s-109 -242 -246 -242c-134 0 -240 106 -240 240zM204 1406c0 -92 73 -165 165 -165c94 0 168 75 168 167s-74 166 -166 166s-167 -74 -167 -168z" />
    <glyph glyph-name="eng" unicode="&#x14b;" horiz-adv-x="1344" 
d="M-215 0l432 1185h148l-157 -430c181 305 320 449 514 449c163 0 249 -111 249 -278c0 -70 -16 -154 -79 -330l-257 -706c-97 -268 -249 -415 -416 -415c-106 0 -166 63 -166 178c0 67 34 108 91 108c47 0 75 -27 75 -71c0 -42 -25 -73 -59 -73c-15 0 -20 6 -32 6
c-8 0 -9 -3 -9 -16c0 -56 34 -89 94 -89c103 0 176 101 271 363l258 712c70 193 108 309 108 391c0 104 -48 170 -150 170c-180 0 -321 -162 -506 -488l-51 -92l-210 -574h-148z" />
    <glyph glyph-name="thorn" unicode="&#xfe;" horiz-adv-x="1241" 
d="M343 1528h148l-274 -753c171 285 339 429 513 429c163 0 231 -128 231 -300c0 -93 -19 -198 -55 -303c-145 -433 -470 -620 -690 -620c-122 0 -208 38 -256 105l-147 -399h-148zM699 1154c-286 0 -663 -688 -663 -972c0 -99 53 -161 165 -161s340 99 528 571
c64 159 96 293 96 389c0 111 -42 173 -126 173z" />
    <glyph glyph-name="Thorn" unicode="&#xde;" horiz-adv-x="1292" 
d="M148 0h-148l593 1609h149l-136 -371c285 -3 445 -120 445 -325c0 -257 -229 -467 -534 -507c-74 -11 -148 -15 -224 -15zM593 1200l-285 -767c111 3 169 16 198 25c258 76 413 233 413 478c0 185 -92 264 -311 264h-15z" />
    <glyph glyph-name="mu" unicode="&#xb5;" horiz-adv-x="1480" 
d="M-235 -458h-148l599 1643h148l-255 -700c-38 -104 -76 -220 -76 -303c0 -92 48 -151 150 -151c180 0 327 155 506 470l49 88l217 596h149l-255 -700c-38 -104 -76 -220 -76 -303c0 -92 48 -151 150 -151c180 0 327 155 506 470l51 92l27 -19l-52 -92
c-194 -344 -346 -501 -554 -501c-163 0 -249 103 -249 260c0 52 9 114 28 178c-178 -300 -324 -438 -519 -438c-93 0 -161 34 -203 92z" />
    <glyph glyph-name="florin" unicode="&#x192;" horiz-adv-x="1647" 
d="M1102 1273l-44 -120h300v-40h-315l-370 -1019c-86 -238 -251 -357 -425 -357c-120 0 -206 66 -206 156c0 63 35 101 89 101c46 0 74 -28 74 -73c0 -43 -25 -72 -62 -72c-7 0 -12 1 -20 4c-3 1 -7 3 -10 3c-6 0 -9 -4 -9 -12c0 -39 75 -60 133 -60c118 0 206 86 286 305
l372 1024h-277v40h292l41 112c97 266 258 415 448 415c120 0 206 -66 206 -156c0 -63 -35 -101 -89 -101c-46 0 -74 28 -74 72s25 72 63 72c6 0 12 0 19 -3c3 -1 7 -3 10 -3c6 0 9 4 9 11c0 40 -75 60 -133 60c-127 0 -215 -102 -308 -359z" />
    <glyph glyph-name="germandbls" unicode="&#xdf;" horiz-adv-x="1161" 
d="M-96 360l330 791c128 305 293 458 487 458c165 0 251 -131 251 -244c0 -222 -329 -338 -329 -496c0 -117 182 -224 182 -433c0 -262 -288 -461 -573 -461c-121 0 -194 35 -268 129l32 33c51 -72 135 -113 230 -113c203 0 435 185 435 418c0 161 -111 314 -111 432
c0 191 286 306 286 534c0 80 -35 171 -145 171c-102 0 -178 -54 -291 -337l-292 -731c-224 -560 -438 -828 -729 -829l-3 49c202 1 304 142 508 629z" />
    <glyph glyph-name="approxequal" unicode="&#x2248;" horiz-adv-x="1055" 
d="M268 946c172 0 413 -216 554 -216c123 0 175 153 197 216h44c-50 -153 -110 -320 -286 -320c-169 0 -390 214 -533 214s-167 -123 -202 -213h-44c57 147 101 319 270 319zM266 623c171 0 413 -217 553 -217c124 0 175 154 198 217h43c-50 -154 -110 -320 -286 -320
c-168 0 -390 214 -532 214c-144 0 -168 -124 -203 -213h-44c57 147 101 319 271 319z" />
    <glyph glyph-name="notequal" unicode="&#x2260;" horiz-adv-x="1098" 
d="M178 734l32 93h371l130 356h117l-130 -356h358l-32 -93h-360l-102 -280h358l-32 -93h-359l-127 -350h-117l127 350h-370l32 93h372l102 280h-370z" />
    <glyph glyph-name="lessequal" unicode="&#x2264;" horiz-adv-x="1268" 
d="M178 577l32 92l1045 539l-43 -115l-821 -424h665l-32 -92h-846zM42 204l32 92h846l-32 -92h-846z" />
    <glyph glyph-name="greaterequal" unicode="&#x2265;" horiz-adv-x="1007" 
d="M178 577l32 92h708l-539 436l37 103l640 -539l-32 -92h-846zM42 204l32 92h846l-32 -92h-846z" />
    <glyph glyph-name="Eth" unicode="&#xd0;" horiz-adv-x="2184" 
d="M656 694l37 93h165c135 334 155 381 192 437c59 90 193 249 348 316c-79 20 -170 31 -274 31c-426 0 -758 -172 -758 -610c0 -90 14 -204 112 -266l-13 -21c-119 57 -176 150 -176 305c0 378 347 630 830 630c501 0 787 -271 787 -679c0 -254 -111 -494 -269 -666
c-157 -171 -385 -304 -691 -304c-187 0 -339 49 -427 83c-97 -56 -202 -82 -318 -82c-164 0 -201 51 -201 100c0 95 140 108 242 108c109 0 202 -15 288 -41c83 93 166 251 291 566h-165zM1778 996c0 284 -113 459 -343 533c-72 -36 -140 -101 -179 -160
c-46 -68 -83 -169 -235 -582h367l-36 -93h-366c-115 -286 -239 -477 -381 -592c101 -38 242 -93 410 -93c263 0 435 135 551 300c128 184 212 443 212 687zM208 -3c99 0 179 14 253 68c-54 17 -202 60 -305 60c-67 0 -116 -18 -116 -65c0 -35 28 -63 168 -63z" />
    <glyph glyph-name="Oslash" unicode="&#xd8;" horiz-adv-x="1684" 
d="M151 -116l114 174c-87 86 -135 224 -135 405c0 97 14 202 40 306c124 483 494 840 868 840c81 0 151 -17 207 -51l54 83h117l-95 -145c70 -77 106 -193 106 -343c0 -126 -25 -271 -72 -411c-152 -452 -502 -781 -831 -781c-68 0 -128 14 -180 41l-76 -118h-117zM539 10
c265 0 566 320 726 767c57 160 90 324 90 448c0 96 -21 176 -58 234l-913 -1397c41 -34 92 -52 155 -52zM280 374c0 -93 13 -170 41 -229l906 1385c-40 27 -89 41 -146 41c-276 0 -588 -335 -731 -785c-45 -144 -70 -290 -70 -412z" />
    <glyph glyph-name="Eng" unicode="&#x14a;" horiz-adv-x="1590" 
d="M1232 1392c0 113 -64 179 -156 179c-160 0 -289 -179 -471 -502l-50 -88l-357 -982h-148l394 1086c23 60 74 224 74 345c0 80 -23 141 -92 141c-116 0 -263 -150 -399 -479l-27 18c146 363 304 499 455 499c148 0 187 -121 187 -267c0 -51 -9 -119 -29 -192
c177 305 298 459 485 459c148 0 271 -96 271 -276c0 -77 -21 -156 -54 -248l-350 -964c-159 -436 -353 -648 -647 -648c-148 0 -220 37 -279 122l45 24c63 -69 113 -98 244 -98c203 0 315 122 444 478l395 1086c19 54 65 192 65 307z" />
    <glyph glyph-name="onethird" unicode="&#x2153;" horiz-adv-x="2115" 
d="M227 -186l1148 1756h117l-1149 -1756h-116zM276 463h-131l284 783c-95 -79 -212 -110 -322 -122l-2 34c152 20 313 81 420 267h105zM1231 338l45 -1c-29 -51 -43 -100 -43 -143c0 -88 59 -150 179 -150c174 0 270 135 270 261c0 89 -49 176 -153 206l9 25
c133 11 206 118 206 218c0 88 -55 168 -158 168c-67 0 -211 -34 -211 -174h-47c0 144 137 214 273 214c159 0 266 -96 266 -203c0 -87 -72 -182 -237 -234c91 -26 184 -86 184 -220c0 -175 -158 -305 -374 -305c-174 0 -250 82 -250 190c0 46 15 97 41 148z" />
    <glyph glyph-name="twothirds" unicode="&#x2154;" horiz-adv-x="2115" 
d="M513 -186l1148 1756h117l-1148 -1756h-117zM769 593l-45 -130h-630l43 117c80 217 565 346 565 647c0 75 -31 158 -171 158c-162 0 -255 -110 -264 -250h-47c11 133 90 290 336 290c187 0 276 -90 276 -207c0 -294 -575 -440 -638 -625h575zM1385 338l45 -1
c-29 -51 -43 -100 -43 -143c0 -88 59 -150 179 -150c174 0 270 135 270 261c0 89 -49 176 -154 206l10 25c133 11 206 118 206 218c0 88 -56 168 -158 168c-67 0 -211 -34 -211 -174h-48c0 144 137 214 274 214c159 0 266 -96 266 -203c0 -87 -72 -182 -237 -234
c91 -26 183 -86 183 -220c0 -175 -157 -305 -374 -305c-174 0 -250 82 -250 190c0 46 15 97 42 148z" />
    <glyph glyph-name="uni2219" unicode="&#x2219;" horiz-adv-x="740" 
d="M287 594c0 52 42 95 93 95s93 -43 93 -94s-42 -92 -94 -92c-51 0 -92 40 -92 91z" />
    <glyph glyph-name="AE" unicode="&#xc6;" horiz-adv-x="2521" 
d="M1967 894c-327 -1 -513 -251 -513 -555c0 -181 93 -326 279 -326c272 0 559 175 736 488l52 92l27 -19l-52 -92c-196 -347 -484 -519 -791 -519c-308 0 -420 223 -420 488c0 160 40 298 40 298h-439c-160 -368 -272 -788 -546 -788c-253 0 -340 177 -340 328
c0 424 391 510 850 510c198 456 355 810 624 810c163 0 207 -78 207 -181c0 -184 -96 -373 -200 -664c106 91 254 147 436 147c-100 56 -152 150 -152 271c0 235 211 427 467 427c164 0 254 -79 254 -222c0 -127 -70 -242 -194 -319l-14 30c103 59 168 170 168 289
c0 118 -66 183 -184 183c-208 0 -382 -202 -382 -443c0 -104 33 -183 88 -215c5 3 24 6 37 6c17 0 27 -5 27 -14c0 -11 -9 -15 -28 -15c-14 0 -28 2 -37 5zM346 10c220 0 334 397 482 739c-422 0 -772 -72 -772 -460c0 -140 76 -279 290 -279zM1470 1571
c-243 0 -398 -376 -563 -772c75 -1 150 -1 435 -1c104 260 198 490 198 670c0 50 -14 103 -70 103z" />
    <glyph glyph-name="ae" unicode="&#xe6;" horiz-adv-x="1770" 
d="M1083 -19c-222 0 -359 128 -359 376c0 44 4 92 13 141l-9 -16c-185 -333 -368 -501 -555 -501c-164 0 -231 128 -231 300c0 93 19 199 54 303c145 434 471 620 691 620c113 0 200 -49 200 -237l89 243h148l-44 -121c96 72 201 115 307 115c133 0 215 -67 215 -179
c0 -127 -106 -249 -273 -319c-104 -44 -228 -66 -367 -66h-19c-6 -16 -11 -32 -15 -47c-32 -109 -48 -217 -48 -300c0 -179 73 -262 224 -262c256 0 484 239 614 470l52 92l27 -19l-52 -92c-163 -288 -376 -501 -662 -501zM752 593c75 152 97 322 97 386
c0 142 -73 185 -146 185c-112 0 -340 -99 -528 -571c-64 -159 -96 -293 -96 -389c0 -110 41 -173 126 -173c133 0 359 179 547 562zM1416 1164c-169 0 -359 -209 -461 -488c145 3 246 27 324 64c122 57 240 183 240 328c0 71 -46 96 -103 96z" />
    <glyph glyph-name="Schwa" unicode="&#x18f;" horiz-adv-x="1508" 
d="M853 1609c271 0 442 -172 442 -506c0 -96 -14 -203 -38 -304c-107 -453 -430 -840 -804 -840c-181 0 -310 90 -310 254c0 163 129 322 340 414c151 66 334 93 540 93c14 0 26 0 37 -1c59 211 78 352 78 465c0 254 -95 376 -305 376c-294 0 -541 -242 -752 -652l-64 -124
l-34 24l65 124c205 392 456 677 805 677zM409 8c269 0 512 298 639 673c-214 0 -370 -28 -502 -95c-191 -97 -302 -263 -302 -417c0 -107 83 -161 165 -161z" />
    <glyph glyph-name="kgreenlandic" unicode="&#x138;" horiz-adv-x="1406" 
d="M-217 0l432 1185h148l-157 -430c209 356 334 467 519 467c151 0 235 -74 235 -206c0 -110 -57 -206 -161 -273c-68 -44 -164 -78 -318 -116v-4c169 -13 258 -79 258 -192c0 -75 -40 -174 -40 -254c0 -94 55 -146 155 -146c164 0 314 140 501 470l51 92l27 -19l-52 -92
c-204 -361 -358 -501 -549 -501c-156 0 -254 95 -254 246c0 83 30 160 30 229c0 100 -67 153 -205 158v5c139 39 253 98 329 166c75 68 111 145 111 237c0 108 -50 162 -150 162c-156 0 -281 -129 -500 -518l-52 -92l-210 -574h-148z" />
    <glyph glyph-name="adieresis" unicode="&#xe4;" horiz-adv-x="1492" 
d="M-4 584c145 434 471 620 691 620c151 0 200 -97 200 -241l81 222h148l-255 -700c-38 -104 -76 -220 -76 -303c0 -92 48 -151 150 -151c180 0 327 155 506 470l51 92l27 -19l-52 -92c-194 -344 -346 -501 -554 -501c-163 0 -249 103 -249 260c0 52 9 114 28 179
c-174 -292 -344 -439 -519 -439c-164 0 -231 128 -231 300c0 93 19 199 54 303zM209 31c288 0 640 654 640 952c0 136 -73 181 -147 181c-150 0 -378 -182 -529 -570c-62 -160 -94 -304 -94 -396c0 -104 41 -167 130 -167zM567 1447c0 47 33 85 74 85s75 -38 75 -84
s-35 -83 -76 -83s-73 36 -73 82zM881 1447c0 47 34 85 74 85c42 0 75 -38 75 -84s-34 -83 -75 -83s-74 36 -74 82z" />
    <glyph glyph-name="atilde" unicode="&#xe3;" horiz-adv-x="1492" 
d="M-4 584c145 434 471 620 691 620c151 0 200 -97 200 -241l81 222h148l-255 -700c-38 -104 -76 -220 -76 -303c0 -92 48 -151 150 -151c180 0 327 155 506 470l51 92l27 -19l-52 -92c-194 -344 -346 -501 -554 -501c-163 0 -249 103 -249 260c0 52 9 114 28 179
c-174 -292 -344 -439 -519 -439c-164 0 -231 128 -231 300c0 93 19 199 54 303zM209 31c288 0 640 654 640 952c0 136 -73 181 -147 181c-150 0 -378 -182 -529 -570c-62 -160 -94 -304 -94 -396c0 -104 41 -167 130 -167zM634 1682c176 0 221 -198 357 -198
c102 0 166 112 182 177h44c-39 -140 -105 -281 -264 -281c-187 0 -200 196 -349 196c-127 0 -170 -141 -183 -182h-43c33 106 87 288 256 288z" />
    <glyph glyph-name="agrave" unicode="&#xe0;" horiz-adv-x="1492" 
d="M-4 584c145 434 471 620 691 620c151 0 200 -97 200 -241l81 222h148l-255 -700c-38 -104 -76 -220 -76 -303c0 -92 48 -151 150 -151c180 0 327 155 506 470l51 92l27 -19l-52 -92c-194 -344 -346 -501 -554 -501c-163 0 -249 103 -249 260c0 52 9 114 28 179
c-174 -292 -344 -439 -519 -439c-164 0 -231 128 -231 300c0 93 19 199 54 303zM209 31c288 0 640 654 640 952c0 136 -73 181 -147 181c-150 0 -378 -182 -529 -570c-62 -160 -94 -304 -94 -396c0 -104 41 -167 130 -167zM964 1365l-29 -25c-90 30 -304 171 -304 288
c0 30 14 56 47 56c56 0 61 -77 140 -185c48 -64 104 -115 146 -134z" />
    <glyph glyph-name="aacute" unicode="&#xe1;" horiz-adv-x="1492" 
d="M-4 584c145 434 471 620 691 620c151 0 200 -97 200 -241l81 222h148l-255 -700c-38 -104 -76 -220 -76 -303c0 -92 48 -151 150 -151c180 0 327 155 506 470l51 92l27 -19l-52 -92c-194 -344 -346 -501 -554 -501c-163 0 -249 103 -249 260c0 52 9 114 28 179
c-174 -292 -344 -439 -519 -439c-164 0 -231 128 -231 300c0 93 19 199 54 303zM209 31c288 0 640 654 640 952c0 136 -73 181 -147 181c-150 0 -378 -182 -529 -570c-62 -160 -94 -304 -94 -396c0 -104 41 -167 130 -167zM659 1340l-28 25c41 19 98 70 145 134
c79 108 84 185 141 185c32 0 47 -26 47 -56c0 -117 -215 -258 -305 -288z" />
    <glyph glyph-name="acircumflex" unicode="&#xe2;" horiz-adv-x="1492" 
d="M-4 584c145 434 471 620 691 620c151 0 200 -97 200 -241l81 222h148l-255 -700c-38 -104 -76 -220 -76 -303c0 -92 48 -151 150 -151c180 0 327 155 506 470l51 92l27 -19l-52 -92c-194 -344 -346 -501 -554 -501c-163 0 -249 103 -249 260c0 52 9 114 28 179
c-174 -292 -344 -439 -519 -439c-164 0 -231 128 -231 300c0 93 19 199 54 303zM209 31c288 0 640 654 640 952c0 136 -73 181 -147 181c-150 0 -378 -182 -529 -570c-62 -160 -94 -304 -94 -396c0 -104 41 -167 130 -167zM799 1656c15 24 31 28 48 28c24 0 36 -10 42 -29
c27 -93 56 -194 210 -290c-2 -2 -24 -27 -24 -27s-168 75 -236 225c1 0 -158 -177 -316 -223c-1 0 -30 25 -30 25c181 92 227 165 306 291z" />
    <glyph glyph-name="aring" unicode="&#xe5;" horiz-adv-x="1492" 
d="M-4 584c145 434 471 620 691 620c151 0 200 -97 200 -241l81 222h148l-255 -700c-38 -104 -76 -220 -76 -303c0 -92 48 -151 150 -151c180 0 327 155 506 470l51 92l27 -19l-52 -92c-194 -344 -346 -501 -554 -501c-163 0 -249 103 -249 260c0 52 9 114 28 179
c-174 -292 -344 -439 -519 -439c-164 0 -231 128 -231 300c0 93 19 199 54 303zM209 31c288 0 640 654 640 952c0 136 -73 181 -147 181c-150 0 -378 -182 -529 -570c-62 -160 -94 -304 -94 -396c0 -104 41 -167 130 -167zM647 1533c0 85 67 153 150 153s151 -68 151 -151
s-68 -150 -153 -150c-83 0 -148 65 -148 148zM686 1533c0 -61 48 -109 109 -109c63 0 112 50 112 111s-49 110 -110 110s-111 -49 -111 -112z" />
    <glyph glyph-name="amacron" unicode="&#x101;" horiz-adv-x="1492" 
d="M-4 584c145 434 471 620 691 620c151 0 200 -97 200 -241l81 222h148l-255 -700c-38 -104 -76 -220 -76 -303c0 -92 48 -151 150 -151c180 0 327 155 506 470l51 92l27 -19l-52 -92c-194 -344 -346 -501 -554 -501c-163 0 -249 103 -249 260c0 52 9 114 28 179
c-174 -292 -344 -439 -519 -439c-164 0 -231 128 -231 300c0 93 19 199 54 303zM209 31c288 0 640 654 640 952c0 136 -73 181 -147 181c-150 0 -378 -182 -529 -570c-62 -160 -94 -304 -94 -396c0 -104 41 -167 130 -167zM445 1424l27 68h677l-27 -68h-677z" />
    <glyph glyph-name="abreve" unicode="&#x103;" horiz-adv-x="1492" 
d="M-4 584c145 434 471 620 691 620c151 0 200 -97 200 -241l81 222h148l-255 -700c-38 -104 -76 -220 -76 -303c0 -92 48 -151 150 -151c180 0 327 155 506 470l51 92l27 -19l-52 -92c-194 -344 -346 -501 -554 -501c-163 0 -249 103 -249 260c0 52 9 114 28 179
c-174 -292 -344 -439 -519 -439c-164 0 -231 128 -231 300c0 93 19 199 54 303zM209 31c288 0 640 654 640 952c0 136 -73 181 -147 181c-150 0 -378 -182 -529 -570c-62 -160 -94 -304 -94 -396c0 -104 41 -167 130 -167zM970 1599h45c-4 -83 -83 -189 -219 -189
s-209 105 -212 189h43c3 -61 61 -148 170 -148s169 88 173 148z" />
    <glyph glyph-name="aogonek" unicode="&#x105;" horiz-adv-x="1492" 
d="M-4 584c145 434 471 620 691 620c151 0 200 -97 200 -241l81 222h148l-255 -700c-38 -104 -76 -220 -76 -303c0 -92 48 -151 150 -151c180 0 327 155 506 470l51 92l27 -19l-52 -92c-180 -319 -324 -476 -509 -498c-218 -108 -335 -240 -335 -366c0 -72 37 -106 113 -106
c48 0 103 14 173 43l12 -19c-79 -37 -137 -52 -205 -52c-123 0 -183 48 -183 145c0 132 115 260 310 360c-118 26 -179 119 -179 252c0 52 9 114 28 179c-174 -292 -344 -439 -519 -439c-164 0 -231 128 -231 300c0 93 19 199 54 303zM209 31c288 0 640 654 640 952
c0 136 -73 181 -147 181c-150 0 -378 -182 -529 -570c-62 -160 -94 -304 -94 -396c0 -104 41 -167 130 -167z" />
    <glyph glyph-name="aringacute" unicode="&#x1fb;" horiz-adv-x="1492" 
d="M-4 584c145 434 471 620 691 620c151 0 200 -97 200 -241l81 222h148l-255 -700c-38 -104 -76 -220 -76 -303c0 -92 48 -151 150 -151c180 0 327 155 506 470l51 92l27 -19l-52 -92c-194 -344 -346 -501 -554 -501c-163 0 -249 103 -249 260c0 52 9 114 28 179
c-174 -292 -344 -439 -519 -439c-164 0 -231 128 -231 300c0 93 19 199 54 303zM209 31c288 0 640 654 640 952c0 136 -73 181 -147 181c-150 0 -378 -182 -529 -570c-62 -160 -94 -304 -94 -396c0 -104 41 -167 130 -167zM647 1493c0 86 67 153 150 153s151 -67 151 -151
c0 -83 -68 -150 -153 -150c-83 0 -148 65 -148 148zM686 1493c0 -61 48 -109 109 -109c63 0 112 50 112 111s-49 110 -110 110s-111 -49 -111 -112zM891 1686l-29 25c42 19 98 70 145 134c80 109 85 185 141 185c32 0 47 -26 47 -56c0 -117 -215 -257 -304 -288z" />
    <glyph glyph-name="aeacute" unicode="&#x1fd;" horiz-adv-x="1790" 
d="M1103 -19c-223 0 -360 128 -360 376c0 44 4 92 13 141l-9 -16c-185 -333 -367 -501 -554 -501c-164 0 -232 128 -232 300c0 93 20 199 55 303c144 434 470 620 690 620c113 0 200 -49 200 -237l89 243h148l-44 -121c96 72 202 115 307 115c134 0 215 -67 215 -179
c0 -127 -105 -249 -273 -319c-104 -44 -228 -66 -367 -66h-19c-6 -16 -10 -32 -15 -47c-31 -109 -47 -217 -47 -300c0 -179 72 -262 223 -262c257 0 484 239 615 470l52 92l27 -19l-52 -92c-163 -288 -376 -501 -662 -501zM771 593c75 152 97 322 97 386
c0 142 -73 185 -146 185c-112 0 -340 -99 -528 -571c-63 -159 -96 -293 -96 -389c0 -110 42 -173 126 -173c133 0 359 179 547 562zM1435 1164c-168 0 -358 -209 -461 -488c145 3 246 27 324 64c122 57 241 183 241 328c0 71 -47 96 -104 96zM895 1340l-28 25
c41 19 98 70 145 134c80 108 84 185 141 185c32 0 47 -26 47 -56c0 -117 -215 -258 -305 -288z" />
    <glyph glyph-name="cdotaccent" unicode="&#x10b;" 
d="M751 945c-45 0 -73 28 -73 73c0 43 25 72 62 72c6 0 12 -1 19 -4s9 -3 11 -3c6 0 9 5 9 13c0 36 -58 68 -123 68c-246 0 -536 -464 -536 -858c0 -197 69 -275 237 -275c247 0 477 167 648 470l52 92l27 -19l-52 -92c-191 -338 -421 -501 -694 -501
c-247 0 -373 133 -373 375c0 71 11 149 31 226c95 357 364 622 635 622c71 0 126 -19 163 -56c30 -30 47 -68 47 -107c0 -58 -36 -96 -90 -96zM648 1447c0 47 37 85 83 85c47 0 85 -38 85 -84s-38 -83 -85 -83s-83 36 -83 82z" />
    <glyph glyph-name="cacute" unicode="&#x107;" 
d="M751 945c-45 0 -73 28 -73 73c0 43 25 72 62 72c6 0 12 -1 19 -4s9 -3 11 -3c6 0 9 5 9 13c0 36 -58 68 -123 68c-246 0 -536 -464 -536 -858c0 -197 69 -275 237 -275c247 0 477 167 648 470l52 92l27 -19l-52 -92c-191 -338 -421 -501 -694 -501
c-247 0 -373 133 -373 375c0 71 11 149 31 226c95 357 364 622 635 622c71 0 126 -19 163 -56c30 -30 47 -68 47 -107c0 -58 -36 -96 -90 -96zM593 1340l-29 25c42 19 98 70 145 134c80 108 84 185 141 185c32 0 47 -26 47 -56c0 -117 -215 -258 -304 -288z" />
    <glyph glyph-name="ccircumflex" unicode="&#x109;" 
d="M751 945c-45 0 -73 28 -73 73c0 43 25 72 62 72c6 0 12 -1 19 -4s9 -3 11 -3c6 0 9 5 9 13c0 36 -58 68 -123 68c-246 0 -536 -464 -536 -858c0 -197 69 -275 237 -275c247 0 477 167 648 470l52 92l27 -19l-52 -92c-191 -338 -421 -501 -694 -501
c-247 0 -373 133 -373 375c0 71 11 149 31 226c95 357 364 622 635 622c71 0 126 -19 163 -56c30 -30 47 -68 47 -107c0 -58 -36 -96 -90 -96zM645 1656c15 24 32 28 48 28c25 0 37 -10 42 -29c27 -93 57 -194 210 -290c-2 -2 -24 -27 -24 -27s-167 75 -236 225
c1 0 -158 -177 -316 -223c-1 0 -29 25 -29 25c180 92 227 165 305 291z" />
    <glyph glyph-name="ccaron" unicode="&#x10d;" 
d="M751 945c-45 0 -73 28 -73 73c0 43 25 72 62 72c6 0 12 -1 19 -4s9 -3 11 -3c6 0 9 5 9 13c0 36 -58 68 -123 68c-246 0 -536 -464 -536 -858c0 -197 69 -275 237 -275c247 0 477 167 648 470l52 92l27 -19l-52 -92c-191 -338 -421 -501 -694 -501
c-247 0 -373 133 -373 375c0 71 11 149 31 226c95 357 364 622 635 622c71 0 126 -19 163 -56c30 -30 47 -68 47 -107c0 -58 -36 -96 -90 -96zM728 1366c-15 -24 -32 -28 -48 -28c-24 0 -37 10 -42 29c-27 93 -57 194 -211 290c2 1 25 27 25 27s167 -75 236 -225
c-1 0 158 177 316 223c1 0 29 -25 29 -25c-180 -92 -227 -165 -305 -291z" />
    <glyph glyph-name="ccedilla" unicode="&#xe7;" 
d="M81 -369l16 18c55 -46 123 -76 176 -76c70 0 123 55 123 127c0 78 -65 125 -171 125c-21 0 -27 0 -32 -1l70 162c-197 25 -298 154 -298 370c0 71 11 149 31 226c95 357 364 622 635 622c71 0 126 -19 163 -56c30 -30 47 -68 47 -107c0 -58 -36 -96 -90 -96
c-45 0 -73 28 -73 73c0 43 25 72 62 72c6 0 12 -1 19 -4s9 -3 11 -3c6 0 9 5 9 13c0 36 -58 68 -123 68c-246 0 -536 -464 -536 -858c0 -197 69 -275 237 -275c247 0 477 167 648 470l52 92l27 -19l-52 -92c-191 -338 -421 -501 -694 -501c-7 0 -12 1 -19 1l-62 -138h22
c135 0 212 -50 212 -140c0 -94 -85 -163 -202 -163c-75 0 -143 28 -208 90z" />
    <glyph glyph-name="dcaron" unicode="&#x10f;" horiz-adv-x="1492" 
d="M-4 584c145 434 471 620 691 620c151 0 200 -97 200 -241l272 749h148l-446 -1227c-38 -105 -76 -220 -76 -303c0 -92 48 -151 150 -151c180 0 327 155 506 470l51 92l27 -19l-52 -92c-194 -344 -346 -501 -554 -501c-163 0 -249 103 -249 260c0 52 9 114 28 179
c-174 -292 -344 -439 -519 -439c-164 0 -231 128 -231 300c0 93 19 199 54 303zM209 31c288 0 640 654 640 952c0 136 -73 181 -147 181c-150 0 -378 -182 -529 -570c-62 -160 -94 -304 -94 -396c0 -104 41 -167 130 -167zM1320 1251l12 35c87 6 169 77 169 129
c0 9 -2 17 -8 25c-45 0 -69 40 -69 79c0 44 28 89 84 89c60 0 87 -56 87 -112c0 -155 -150 -245 -275 -245z" />
    <glyph glyph-name="dcroat" unicode="&#x111;" horiz-adv-x="1492" 
d="M801 1367l36 92h231l91 253h148l-91 -253h261l-36 -92h-260l-320 -882c-38 -105 -76 -220 -76 -303c0 -92 48 -151 150 -151c180 0 327 155 506 470l51 92l27 -19l-52 -92c-194 -344 -346 -501 -554 -501c-163 0 -249 103 -249 260c0 52 9 114 28 179
c-174 -292 -344 -439 -519 -439c-164 0 -231 128 -231 300c0 93 19 199 54 303c145 434 471 620 691 620c151 0 200 -97 200 -241l146 404h-232zM209 31c288 0 640 654 640 952c0 136 -73 181 -147 181c-150 0 -378 -182 -529 -570c-62 -160 -94 -304 -94 -396
c0 -104 41 -167 130 -167z" />
    <glyph glyph-name="edotaccent" unicode="&#x117;" 
d="M342 -19c-240 0 -377 128 -377 376c0 68 10 146 31 225c95 357 367 622 632 622c133 0 215 -67 215 -179c0 -127 -106 -249 -274 -319c-103 -44 -227 -66 -386 -66c-39 -108 -62 -227 -62 -347c0 -185 75 -262 243 -262c281 0 508 235 641 470l52 92l27 -19l-52 -92
c-164 -290 -394 -501 -690 -501zM656 1164c-168 0 -358 -209 -461 -488c146 3 247 27 324 64c123 57 241 183 241 328c0 71 -46 96 -104 96zM648 1447c0 47 37 85 83 85c47 0 85 -38 85 -84s-38 -83 -85 -83s-83 36 -83 82z" />
    <glyph glyph-name="edieresis" unicode="&#xeb;" 
d="M342 -19c-240 0 -377 128 -377 376c0 68 10 146 31 225c95 357 367 622 632 622c133 0 215 -67 215 -179c0 -127 -106 -249 -274 -319c-103 -44 -227 -66 -386 -66c-39 -108 -62 -227 -62 -347c0 -185 75 -262 243 -262c281 0 508 235 641 470l52 92l27 -19l-52 -92
c-164 -290 -394 -501 -690 -501zM656 1164c-168 0 -358 -209 -461 -488c146 3 247 27 324 64c123 57 241 183 241 328c0 71 -46 96 -104 96zM500 1447c0 47 33 85 74 85c42 0 75 -38 75 -84s-34 -83 -76 -83c-41 0 -73 36 -73 82zM815 1447c0 47 33 85 74 85s75 -38 75 -84
s-34 -83 -76 -83c-41 0 -73 36 -73 82z" />
    <glyph glyph-name="etilde" unicode="&#x1ebd;" 
d="M342 -19c-240 0 -377 128 -377 376c0 68 10 146 31 225c95 357 367 622 632 622c133 0 215 -67 215 -179c0 -127 -106 -249 -274 -319c-103 -44 -227 -66 -386 -66c-39 -108 -62 -227 -62 -347c0 -185 75 -262 243 -262c281 0 508 235 641 470l52 92l27 -19l-52 -92
c-164 -290 -394 -501 -690 -501zM656 1164c-168 0 -358 -209 -461 -488c146 3 247 27 324 64c123 57 241 183 241 328c0 71 -46 96 -104 96zM476 1682c176 0 221 -198 356 -198c102 0 167 112 183 177h43c-39 -140 -104 -281 -264 -281c-187 0 -200 196 -349 196
c-127 0 -169 -141 -182 -182h-44c34 106 87 288 257 288z" />
    <glyph glyph-name="egrave" unicode="&#xe8;" 
d="M342 -19c-240 0 -377 128 -377 376c0 68 10 146 31 225c95 357 367 622 632 622c133 0 215 -67 215 -179c0 -127 -106 -249 -274 -319c-103 -44 -227 -66 -386 -66c-39 -108 -62 -227 -62 -347c0 -185 75 -262 243 -262c281 0 508 235 641 470l52 92l27 -19l-52 -92
c-164 -290 -394 -501 -690 -501zM656 1164c-168 0 -358 -209 -461 -488c146 3 247 27 324 64c123 57 241 183 241 328c0 71 -46 96 -104 96zM743 1365l-28 -25c-90 30 -305 171 -305 288c0 30 15 56 47 56c57 0 61 -77 141 -185c47 -64 104 -115 145 -134z" />
    <glyph glyph-name="eacute" unicode="&#xe9;" 
d="M342 -19c-240 0 -377 128 -377 376c0 68 10 146 31 225c95 357 367 622 632 622c133 0 215 -67 215 -179c0 -127 -106 -249 -274 -319c-103 -44 -227 -66 -386 -66c-39 -108 -62 -227 -62 -347c0 -185 75 -262 243 -262c281 0 508 235 641 470l52 92l27 -19l-52 -92
c-164 -290 -394 -501 -690 -501zM656 1164c-168 0 -358 -209 -461 -488c146 3 247 27 324 64c123 57 241 183 241 328c0 71 -46 96 -104 96zM593 1340l-29 25c42 19 98 70 145 134c80 108 84 185 141 185c32 0 47 -26 47 -56c0 -117 -215 -258 -304 -288z" />
    <glyph glyph-name="ecircumflex" unicode="&#xea;" 
d="M342 -19c-240 0 -377 128 -377 376c0 68 10 146 31 225c95 357 367 622 632 622c133 0 215 -67 215 -179c0 -127 -106 -249 -274 -319c-103 -44 -227 -66 -386 -66c-39 -108 -62 -227 -62 -347c0 -185 75 -262 243 -262c281 0 508 235 641 470l52 92l27 -19l-52 -92
c-164 -290 -394 -501 -690 -501zM656 1164c-168 0 -358 -209 -461 -488c146 3 247 27 324 64c123 57 241 183 241 328c0 71 -46 96 -104 96zM666 1656c15 24 31 28 48 28c24 0 36 -10 42 -29c26 -93 56 -194 210 -290c-2 -2 -24 -27 -24 -27s-168 75 -236 225
c0 0 -159 -177 -316 -223c-1 0 -30 25 -30 25c181 92 227 165 306 291z" />
    <glyph glyph-name="ecaron" unicode="&#x11b;" 
d="M342 -19c-240 0 -377 128 -377 376c0 68 10 146 31 225c95 357 367 622 632 622c133 0 215 -67 215 -179c0 -127 -106 -249 -274 -319c-103 -44 -227 -66 -386 -66c-39 -108 -62 -227 -62 -347c0 -185 75 -262 243 -262c281 0 508 235 641 470l52 92l27 -19l-52 -92
c-164 -290 -394 -501 -690 -501zM656 1164c-168 0 -358 -209 -461 -488c146 3 247 27 324 64c123 57 241 183 241 328c0 71 -46 96 -104 96zM728 1366c-15 -24 -32 -28 -48 -28c-24 0 -37 10 -42 29c-27 93 -57 194 -211 290c2 1 25 27 25 27s167 -75 236 -225
c-1 0 158 177 316 223c1 0 29 -25 29 -25c-180 -92 -227 -165 -305 -291z" />
    <glyph glyph-name="ebreve" unicode="&#x115;" 
d="M342 -19c-240 0 -377 128 -377 376c0 68 10 146 31 225c95 357 367 622 632 622c133 0 215 -67 215 -179c0 -127 -106 -249 -274 -319c-103 -44 -227 -66 -386 -66c-39 -108 -62 -227 -62 -347c0 -185 75 -262 243 -262c281 0 508 235 641 470l52 92l27 -19l-52 -92
c-164 -290 -394 -501 -690 -501zM656 1164c-168 0 -358 -209 -461 -488c146 3 247 27 324 64c123 57 241 183 241 328c0 71 -46 96 -104 96zM841 1599h44c-4 -83 -82 -189 -218 -189s-210 105 -212 189h42c3 -61 61 -148 171 -148c109 0 168 88 173 148z" />
    <glyph glyph-name="emacron" unicode="&#x113;" 
d="M342 -19c-240 0 -377 128 -377 376c0 68 10 146 31 225c95 357 367 622 632 622c133 0 215 -67 215 -179c0 -127 -106 -249 -274 -319c-103 -44 -227 -66 -386 -66c-39 -108 -62 -227 -62 -347c0 -185 75 -262 243 -262c281 0 508 235 641 470l52 92l27 -19l-52 -92
c-164 -290 -394 -501 -690 -501zM656 1164c-168 0 -358 -209 -461 -488c146 3 247 27 324 64c123 57 241 183 241 328c0 71 -46 96 -104 96zM379 1424l27 68h676l-27 -68h-676z" />
    <glyph glyph-name="eogonek" unicode="&#x119;" 
d="M1032 482c-152 -270 -362 -470 -627 -497c-220 -108 -336 -241 -336 -367c0 -72 37 -106 112 -106c49 0 103 14 174 43l12 -19c-80 -37 -137 -52 -206 -52c-123 0 -182 48 -182 145c0 130 111 256 300 356c-201 21 -314 146 -314 372c0 68 10 146 31 225
c95 357 367 622 632 622c133 0 215 -67 215 -179c0 -127 -106 -249 -274 -319c-103 -44 -227 -66 -386 -66c-39 -108 -62 -227 -62 -347c0 -185 75 -262 243 -262c281 0 508 235 641 470l52 92l27 -19zM656 1164c-168 0 -358 -209 -461 -488c146 3 247 27 324 64
c123 57 241 183 241 328c0 71 -46 96 -104 96z" />
    <glyph glyph-name="gdotaccent" unicode="&#x121;" horiz-adv-x="1353" 
d="M83 -527c-128 0 -213 34 -264 108c-26 36 -41 78 -41 118c0 60 34 97 88 97c46 0 75 -27 75 -72c0 -42 -25 -72 -60 -72c-15 0 -21 6 -32 6c-7 0 -9 -2 -9 -13c0 -74 102 -129 239 -129c195 0 321 110 414 364l190 526c-170 -282 -338 -425 -510 -425
c-164 0 -231 128 -231 300c0 93 19 199 54 303c145 434 471 620 691 620c152 0 200 -92 200 -237l80 218h148l-472 -1297c-97 -268 -295 -415 -560 -415zM209 31c288 0 640 654 640 952c0 136 -73 181 -147 181c-150 0 -378 -182 -529 -570c-62 -160 -94 -304 -94 -396
c0 -104 41 -167 130 -167zM714 1447c0 47 37 85 83 85s84 -38 84 -84s-38 -83 -85 -83c-46 0 -82 36 -82 82z" />
    <glyph glyph-name="gcircumflex" unicode="&#x11d;" horiz-adv-x="1353" 
d="M83 -527c-128 0 -213 34 -264 108c-26 36 -41 78 -41 118c0 60 34 97 88 97c46 0 75 -27 75 -72c0 -42 -25 -72 -60 -72c-15 0 -21 6 -32 6c-7 0 -9 -2 -9 -13c0 -74 102 -129 239 -129c195 0 321 110 414 364l190 526c-170 -282 -338 -425 -510 -425
c-164 0 -231 128 -231 300c0 93 19 199 54 303c145 434 471 620 691 620c152 0 200 -92 200 -237l80 218h148l-472 -1297c-97 -268 -295 -415 -560 -415zM209 31c288 0 640 654 640 952c0 136 -73 181 -147 181c-150 0 -378 -182 -529 -570c-62 -160 -94 -304 -94 -396
c0 -104 41 -167 130 -167zM798 1656c15 24 32 28 48 28c24 0 36 -10 42 -29c27 -93 56 -194 210 -290c-2 -2 -24 -27 -24 -27s-168 75 -236 225c1 0 -158 -177 -316 -223c-1 0 -29 25 -29 25c180 92 226 165 305 291z" />
    <glyph glyph-name="gbreve" unicode="&#x11f;" horiz-adv-x="1353" 
d="M83 -527c-128 0 -213 34 -264 108c-26 36 -41 78 -41 118c0 60 34 97 88 97c46 0 75 -27 75 -72c0 -42 -25 -72 -60 -72c-15 0 -21 6 -32 6c-7 0 -9 -2 -9 -13c0 -74 102 -129 239 -129c195 0 321 110 414 364l190 526c-170 -282 -338 -425 -510 -425
c-164 0 -231 128 -231 300c0 93 19 199 54 303c145 434 471 620 691 620c152 0 200 -92 200 -237l80 218h148l-472 -1297c-97 -268 -295 -415 -560 -415zM209 31c288 0 640 654 640 952c0 136 -73 181 -147 181c-150 0 -378 -182 -529 -570c-62 -160 -94 -304 -94 -396
c0 -104 41 -167 130 -167zM969 1599h45c-4 -83 -83 -189 -219 -189s-209 105 -212 189h43c3 -61 61 -148 170 -148s169 88 173 148z" />
    <glyph glyph-name="gcommaaccent" unicode="&#x123;" horiz-adv-x="1353" 
d="M83 -527c-128 0 -213 34 -264 108c-26 36 -41 78 -41 118c0 60 34 97 88 97c46 0 75 -27 75 -72c0 -42 -25 -72 -60 -72c-15 0 -21 6 -32 6c-7 0 -9 -2 -9 -13c0 -74 102 -129 239 -129c195 0 321 110 414 364l190 526c-170 -282 -338 -425 -510 -425
c-164 0 -231 128 -231 300c0 93 19 199 54 303c145 434 471 620 691 620c152 0 200 -92 200 -237l80 218h148l-472 -1297c-97 -268 -295 -415 -560 -415zM209 31c288 0 640 654 640 952c0 136 -73 181 -147 181c-150 0 -378 -182 -529 -570c-62 -160 -94 -304 -94 -396
c0 -104 41 -167 130 -167zM1016 1723l-12 -35c-87 -6 -169 -77 -169 -129c0 -9 2 -17 8 -25c45 0 69 -40 69 -79c0 -44 -28 -89 -84 -89c-60 0 -87 56 -87 112c0 155 150 245 275 245z" />
    <glyph glyph-name="hcircumflex" unicode="&#x125;" horiz-adv-x="1453" 
d="M-217 0l623 1712h149l-349 -957c181 305 320 449 514 449c163 0 249 -111 249 -278c0 -178 -224 -580 -224 -744c0 -92 48 -151 150 -151c180 0 327 155 506 470l52 92l27 -19l-52 -92c-195 -344 -347 -501 -555 -501c-163 0 -249 103 -249 260c0 171 224 587 224 743
c0 104 -48 170 -150 170c-180 0 -329 -162 -557 -580l-210 -574h-148zM842 1656c14 24 31 28 48 28c24 0 36 -10 41 -29c27 -93 57 -194 211 -290c-2 -2 -24 -27 -24 -27s-168 75 -237 225c1 0 -158 -177 -315 -223c-1 0 -30 25 -30 25c181 92 227 165 306 291z" />
    <glyph glyph-name="hbar" unicode="&#x127;" horiz-adv-x="1453" 
d="M43 1424l26 68h257l80 220h149l-81 -220h272l-27 -68h-269l-244 -669c181 305 320 449 514 449c163 0 249 -111 249 -278c0 -178 -224 -580 -224 -744c0 -92 48 -151 150 -151c180 0 327 155 506 470l52 92l27 -19l-52 -92c-195 -344 -347 -501 -555 -501
c-163 0 -249 103 -249 260c0 171 224 587 224 743c0 104 -48 170 -150 170c-180 0 -329 -162 -557 -580l-210 -574h-148l519 1424h-259z" />
    <glyph glyph-name="igrave" unicode="&#xec;" horiz-adv-x="741" 
d="M-39 485l255 700h148l-255 -700c-38 -104 -76 -220 -76 -303c0 -92 48 -151 150 -151c180 0 327 155 506 470l52 92l27 -19l-52 -92c-195 -344 -347 -501 -555 -501c-163 0 -249 103 -249 260c0 69 17 154 49 244zM545 1365l-28 -25c-90 30 -305 171 -305 288
c0 30 15 56 47 56c57 0 61 -77 141 -185c47 -64 104 -115 145 -134z" />
    <glyph glyph-name="iacute" unicode="&#xed;" horiz-adv-x="741" 
d="M-39 485l255 700h148l-255 -700c-38 -104 -76 -220 -76 -303c0 -92 48 -151 150 -151c180 0 327 155 506 470l52 92l27 -19l-52 -92c-195 -344 -347 -501 -555 -501c-163 0 -249 103 -249 260c0 69 17 154 49 244zM241 1340l-29 25c42 19 98 70 145 134
c80 108 85 185 141 185c33 0 47 -26 47 -56c0 -117 -214 -258 -304 -288z" />
    <glyph glyph-name="icircumflex" unicode="&#xee;" horiz-adv-x="741" 
d="M-39 485l255 700h148l-255 -700c-38 -104 -76 -220 -76 -303c0 -92 48 -151 150 -151c180 0 327 155 506 470l52 92l27 -19l-52 -92c-195 -344 -347 -501 -555 -501c-163 0 -249 103 -249 260c0 69 17 154 49 244zM381 1656c14 24 31 28 48 28c24 0 36 -10 41 -29
c27 -93 57 -194 211 -290c-2 -2 -25 -27 -25 -27s-167 75 -236 225c1 0 -158 -177 -315 -223c-1 0 -30 25 -30 25c181 92 227 165 306 291z" />
    <glyph glyph-name="idieresis" unicode="&#xef;" horiz-adv-x="741" 
d="M-39 485l255 700h148l-255 -700c-38 -104 -76 -220 -76 -303c0 -92 48 -151 150 -151c180 0 327 155 506 470l52 92l27 -19l-52 -92c-195 -344 -347 -501 -555 -501c-163 0 -249 103 -249 260c0 69 17 154 49 244zM148 1447c0 47 33 85 74 85c42 0 75 -38 75 -84
s-34 -83 -76 -83c-40 0 -73 36 -73 82zM463 1447c0 47 33 85 74 85c42 0 75 -38 75 -84s-34 -83 -76 -83c-41 0 -73 36 -73 82z" />
    <glyph glyph-name="itilde" unicode="&#x129;" horiz-adv-x="741" 
d="M-39 485l255 700h148l-255 -700c-38 -104 -76 -220 -76 -303c0 -92 48 -151 150 -151c180 0 327 155 506 470l52 92l27 -19l-52 -92c-195 -344 -347 -501 -555 -501c-163 0 -249 103 -249 260c0 69 17 154 49 244zM216 1682c176 0 221 -198 356 -198
c102 0 167 112 183 177h43c-39 -140 -105 -281 -264 -281c-187 0 -200 196 -349 196c-127 0 -169 -141 -182 -182h-44c34 106 87 288 257 288z" />
    <glyph glyph-name="imacron" unicode="&#x12b;" horiz-adv-x="741" 
d="M-39 485l255 700h148l-255 -700c-38 -104 -76 -220 -76 -303c0 -92 48 -151 150 -151c180 0 327 155 506 470l52 92l27 -19l-52 -92c-195 -344 -347 -501 -555 -501c-163 0 -249 103 -249 260c0 69 17 154 49 244zM27 1424l27 68h677l-27 -68h-677z" />
    <glyph glyph-name="iogonek" unicode="&#x12f;" horiz-adv-x="741" 
d="M-39 485l255 700h148l-255 -700c-38 -104 -76 -220 -76 -303c0 -92 48 -151 150 -151c180 0 327 155 506 470l52 92l27 -19l-52 -92c-175 -310 -316 -468 -494 -496c-221 -108 -339 -241 -339 -368c0 -72 37 -106 113 -106c48 0 103 14 173 43l12 -19
c-79 -37 -137 -52 -205 -52c-123 0 -182 48 -182 145c0 131 113 258 305 358c-122 23 -187 119 -187 254c0 69 17 154 49 244zM296 1447c0 47 37 85 84 85c46 0 84 -38 84 -84s-38 -83 -85 -83s-83 36 -83 82z" />
    <glyph glyph-name="ibreve" unicode="&#x12d;" horiz-adv-x="741" 
d="M-39 485l255 700h148l-255 -700c-38 -104 -76 -220 -76 -303c0 -92 48 -151 150 -151c180 0 327 155 506 470l52 92l27 -19l-52 -92c-195 -344 -347 -501 -555 -501c-163 0 -249 103 -249 260c0 69 17 154 49 244zM552 1599h44c-3 -83 -82 -189 -218 -189
s-209 105 -212 189h42c3 -61 61 -148 171 -148c109 0 168 88 173 148z" />
    <glyph glyph-name="jcircumflex" unicode="&#x135;" horiz-adv-x="601" 
d="M-525 -527c-68 0 -114 22 -142 73c-15 29 -24 68 -24 105c0 68 35 108 92 108c46 0 75 -27 75 -71c0 -42 -25 -73 -59 -73c-15 0 -21 6 -33 6c-7 0 -9 -2 -9 -15c0 -57 34 -90 94 -90c105 0 176 102 272 364l474 1305h148l-471 -1297c-98 -268 -249 -415 -417 -415z
M329 1656c14 24 31 28 48 28c24 0 36 -10 41 -29c27 -93 57 -194 211 -290c-2 -2 -24 -27 -24 -27s-168 75 -237 225c1 0 -158 -177 -315 -223c-1 0 -30 25 -30 25c181 92 227 165 306 291z" />
    <glyph glyph-name="kcommaaccent" unicode="&#x137;" horiz-adv-x="1369" 
d="M555 1712l-349 -957c209 356 334 467 519 467c151 0 235 -74 235 -206c0 -111 -58 -206 -161 -273c-66 -42 -153 -75 -318 -116v-4c163 -11 254 -79 254 -174c0 -84 -71 -187 -71 -281c0 -81 53 -137 154 -137c164 0 316 146 499 470l52 92l27 -19l-52 -92
c-218 -387 -364 -501 -571 -501c-122 0 -232 40 -232 176c0 108 67 223 67 308c0 83 -65 145 -205 149v5c139 39 253 98 329 166c75 68 111 145 111 237c0 108 -50 162 -150 162c-156 0 -289 -129 -552 -610l-210 -574h-148l623 1712h149zM5 -526l12 35c86 6 168 76 168 130
c0 8 -2 17 -7 24c-46 0 -89 37 -89 89c0 45 33 96 92 96c45 0 99 -30 99 -123c0 -152 -138 -251 -275 -251z" />
    <glyph glyph-name="lacute" unicode="&#x13a;" horiz-adv-x="740" 
d="M379 1689l-29 25c42 19 98 70 145 134c80 108 85 185 141 185c32 0 47 -26 47 -56c0 -98 -151 -212 -252 -265h125l-447 -1227c-38 -104 -76 -220 -76 -303c0 -92 48 -151 150 -151c180 0 327 155 506 470l52 92l27 -19l-52 -92c-195 -344 -347 -501 -555 -501
c-163 0 -249 103 -249 260c0 69 16 153 49 244l441 1213c-9 -4 -17 -7 -23 -9z" />
    <glyph glyph-name="lcommaaccent" unicode="&#x13c;" horiz-adv-x="740" 
d="M-39 485l446 1227h149l-447 -1227c-38 -104 -76 -220 -76 -303c0 -92 48 -151 150 -151c180 0 327 155 506 470l52 92l27 -19l-52 -92c-195 -344 -347 -501 -555 -501c-163 0 -249 103 -249 260c0 69 16 153 49 244zM6 -526l12 35c86 6 168 76 168 130c0 8 -2 17 -7 24
c-46 0 -89 37 -89 89c0 45 33 96 91 96c46 0 100 -30 100 -123c0 -152 -138 -251 -275 -251z" />
    <glyph glyph-name="lcaron" unicode="&#x13e;" horiz-adv-x="1098" 
d="M-39 485l446 1227h149l-447 -1227c-38 -104 -76 -220 -76 -303c0 -92 48 -151 150 -151c180 0 327 155 506 470l52 92l27 -19l-52 -92c-195 -344 -347 -501 -555 -501c-163 0 -249 103 -249 260c0 69 16 153 49 244zM572 1251l12 35c87 6 169 77 169 129c0 9 -2 17 -8 25
c-45 0 -69 40 -69 79c0 44 28 89 84 89c60 0 87 -56 87 -112c0 -155 -150 -245 -275 -245z" />
    <glyph glyph-name="ldot" unicode="&#x140;" horiz-adv-x="741" 
d="M-39 485l446 1227h149l-447 -1227c-38 -104 -76 -220 -76 -303c0 -92 48 -151 150 -151c180 0 327 155 506 470l52 92l27 -19l-52 -92c-195 -344 -347 -501 -555 -501c-163 0 -249 103 -249 260c0 69 16 153 49 244zM416 843c0 51 41 94 92 94s94 -43 94 -94
c0 -50 -43 -92 -95 -92c-51 0 -91 41 -91 92z" />
    <glyph glyph-name="lslash" unicode="&#x142;" horiz-adv-x="740" 
d="M-39 485l153 420l-323 -158v93l364 178l252 694h149l-221 -606l320 157v-93l-361 -177l-185 -508c-38 -104 -76 -220 -76 -303c0 -92 48 -151 150 -151c180 0 327 155 506 470l52 92l27 -19l-52 -92c-195 -344 -347 -501 -555 -501c-163 0 -249 103 -249 260
c0 69 16 153 49 244z" />
    <glyph glyph-name="nacute" unicode="&#x144;" horiz-adv-x="1453" 
d="M-217 0l432 1185h148l-157 -430c180 305 324 449 510 449c167 0 253 -118 253 -258c0 -226 -224 -597 -224 -773c0 -81 48 -142 155 -142c172 0 324 157 501 470l52 92l27 -19l-52 -92c-191 -337 -345 -501 -550 -501c-168 0 -254 110 -254 240c0 210 224 583 224 775
c0 90 -48 158 -157 158c-169 0 -314 -162 -498 -488l-52 -92l-210 -574h-148zM659 1340l-28 25c41 19 98 70 145 134c79 108 84 185 141 185c32 0 47 -26 47 -56c0 -117 -215 -258 -305 -288z" />
    <glyph glyph-name="napostrophe" unicode="&#x149;" horiz-adv-x="1453" 
d="M-217 0l432 1185h148l-157 -430c180 305 324 449 510 449c167 0 253 -118 253 -258c0 -226 -224 -597 -224 -773c0 -81 48 -142 155 -142c172 0 324 157 501 470l52 92l27 -19l-52 -92c-191 -337 -345 -501 -550 -501c-168 0 -254 110 -254 240c0 210 224 583 224 775
c0 90 -48 158 -157 158c-169 0 -314 -162 -498 -488l-52 -92l-210 -574h-148zM702 1493l1 42c54 26 95 72 95 110c0 9 -2 17 -7 24c-46 0 -70 40 -70 80c0 43 28 89 84 89c61 0 88 -54 88 -116c0 -111 -88 -198 -191 -229z" />
    <glyph glyph-name="ncommaaccent" unicode="&#x146;" horiz-adv-x="1453" 
d="M-217 0l432 1185h148l-157 -430c180 305 324 449 510 449c167 0 253 -118 253 -258c0 -226 -224 -597 -224 -773c0 -81 48 -142 155 -142c172 0 324 157 501 470l52 92l27 -19l-52 -92c-191 -337 -345 -501 -550 -501c-168 0 -254 110 -254 240c0 210 224 583 224 775
c0 90 -48 158 -157 158c-169 0 -314 -162 -498 -488l-52 -92l-210 -574h-148zM144 -526l12 35c86 6 168 76 168 130c0 8 -2 17 -7 24c-46 0 -89 37 -89 89c0 45 33 96 91 96c46 0 99 -30 99 -123c0 -152 -137 -251 -274 -251z" />
    <glyph glyph-name="ncaron" unicode="&#x148;" horiz-adv-x="1453" 
d="M-217 0l432 1185h148l-157 -430c180 305 324 449 510 449c167 0 253 -118 253 -258c0 -226 -224 -597 -224 -773c0 -81 48 -142 155 -142c172 0 324 157 501 470l52 92l27 -19l-52 -92c-191 -337 -345 -501 -550 -501c-168 0 -254 110 -254 240c0 210 224 583 224 775
c0 90 -48 158 -157 158c-169 0 -314 -162 -498 -488l-52 -92l-210 -574h-148zM794 1366c-14 -24 -31 -28 -48 -28c-24 0 -36 10 -41 29c-27 93 -57 194 -212 290c2 1 25 27 25 27s168 -75 237 -225c-1 0 158 177 315 223c1 0 30 -25 30 -25c-181 -92 -227 -165 -306 -291z
" />
    <glyph glyph-name="ntilde" unicode="&#xf1;" horiz-adv-x="1453" 
d="M-217 0l432 1185h148l-157 -430c180 305 324 449 510 449c167 0 253 -118 253 -258c0 -226 -224 -597 -224 -773c0 -81 48 -142 155 -142c172 0 324 157 501 470l52 92l27 -19l-52 -92c-191 -337 -345 -501 -550 -501c-168 0 -254 110 -254 240c0 210 224 583 224 775
c0 90 -48 158 -157 158c-169 0 -314 -162 -498 -488l-52 -92l-210 -574h-148zM634 1682c176 0 221 -198 357 -198c102 0 166 112 182 177h44c-39 -140 -105 -281 -264 -281c-187 0 -200 196 -349 196c-127 0 -170 -141 -183 -182h-43c33 106 87 288 256 288z" />
    <glyph glyph-name="ndotaccent" unicode="&#x1e45;" horiz-adv-x="1453" 
d="M-217 0l432 1185h148l-157 -430c180 305 324 449 510 449c167 0 253 -118 253 -258c0 -226 -224 -597 -224 -773c0 -81 48 -142 155 -142c172 0 324 157 501 470l52 92l27 -19l-52 -92c-191 -337 -345 -501 -550 -501c-168 0 -254 110 -254 240c0 210 224 583 224 775
c0 90 -48 158 -157 158c-169 0 -314 -162 -498 -488l-52 -92l-210 -574h-148zM726 1447c0 47 37 85 83 85s84 -38 84 -84s-38 -83 -85 -83c-46 0 -82 36 -82 82z" />
    <glyph glyph-name="ograve" unicode="&#xf2;" horiz-adv-x="1223" 
d="M-8 581c93 358 376 623 654 623c225 0 299 -163 299 -348c0 -99 -21 -203 -52 -293c-114 -336 -376 -582 -628 -582c-190 0 -304 140 -304 373c0 73 11 152 31 227zM280 31c192 0 408 229 523 555c31 88 67 223 67 341c0 129 -43 237 -188 237
c-207 0 -419 -233 -517 -571c-33 -113 -52 -233 -52 -326c0 -158 55 -236 167 -236zM890 1365l-29 -25c-90 30 -305 171 -305 288c0 30 15 56 48 56c56 0 61 -77 140 -185c48 -64 104 -115 146 -134z" />
    <glyph glyph-name="oacute" unicode="&#xf3;" horiz-adv-x="1223" 
d="M-8 581c93 358 376 623 654 623c225 0 299 -163 299 -348c0 -99 -21 -203 -52 -293c-114 -336 -376 -582 -628 -582c-190 0 -304 140 -304 373c0 73 11 152 31 227zM280 31c192 0 408 229 523 555c31 88 67 223 67 341c0 129 -43 237 -188 237
c-207 0 -419 -233 -517 -571c-33 -113 -52 -233 -52 -326c0 -158 55 -236 167 -236zM656 1340l-28 25c41 19 98 70 145 134c80 108 84 185 141 185c32 0 47 -26 47 -56c0 -117 -215 -258 -305 -288z" />
    <glyph glyph-name="ocircumflex" unicode="&#xf4;" horiz-adv-x="1223" 
d="M-8 581c93 358 376 623 654 623c225 0 299 -163 299 -348c0 -99 -21 -203 -52 -293c-114 -336 -376 -582 -628 -582c-190 0 -304 140 -304 373c0 73 11 152 31 227zM280 31c192 0 408 229 523 555c31 88 67 223 67 341c0 129 -43 237 -188 237
c-207 0 -419 -233 -517 -571c-33 -113 -52 -233 -52 -326c0 -158 55 -236 167 -236zM796 1656c15 24 32 28 48 28c24 0 36 -10 42 -29c27 -93 57 -194 210 -290c-2 -2 -24 -27 -24 -27s-167 75 -236 225c1 0 -158 -177 -316 -223c-1 0 -29 25 -29 25c180 92 227 165 305 291
z" />
    <glyph glyph-name="otilde" unicode="&#xf5;" horiz-adv-x="1223" 
d="M-8 581c93 358 376 623 654 623c225 0 299 -163 299 -348c0 -99 -21 -203 -52 -293c-114 -336 -376 -582 -628 -582c-190 0 -304 140 -304 373c0 73 11 152 31 227zM280 31c192 0 408 229 523 555c31 88 67 223 67 341c0 129 -43 237 -188 237
c-207 0 -419 -233 -517 -571c-33 -113 -52 -233 -52 -326c0 -158 55 -236 167 -236zM631 1682c176 0 222 -198 357 -198c102 0 167 112 182 177h44c-39 -140 -105 -281 -264 -281c-187 0 -200 196 -349 196c-127 0 -170 -141 -183 -182h-43c33 106 87 288 256 288z" />
    <glyph glyph-name="odieresis" unicode="&#xf6;" horiz-adv-x="1223" 
d="M-8 581c93 358 376 623 654 623c225 0 299 -163 299 -348c0 -99 -21 -203 -52 -293c-114 -336 -376 -582 -628 -582c-190 0 -304 140 -304 373c0 73 11 152 31 227zM280 31c192 0 408 229 523 555c31 88 67 223 67 341c0 129 -43 237 -188 237
c-207 0 -419 -233 -517 -571c-33 -113 -52 -233 -52 -326c0 -158 55 -236 167 -236zM564 1447c0 47 33 85 74 85c42 0 75 -38 75 -84s-34 -83 -76 -83c-41 0 -73 36 -73 82zM879 1447c0 47 33 85 74 85s75 -38 75 -84s-35 -83 -76 -83s-73 36 -73 82z" />
    <glyph glyph-name="oslash" unicode="&#xf8;" horiz-adv-x="1223" 
d="M-8 581c93 358 376 623 654 623c107 0 180 -37 227 -96l87 96h117l-160 -174c20 -52 28 -112 28 -174c0 -99 -21 -203 -52 -293c-114 -336 -376 -582 -628 -582c-95 0 -171 35 -222 98l-90 -98h-117l161 175c-23 54 -36 121 -36 198c0 73 11 152 31 227zM280 31
c192 0 408 229 523 555c31 88 67 223 67 341c0 16 -1 33 -2 49l-746 -810c21 -90 72 -135 158 -135zM165 593c-31 -108 -50 -220 -52 -311l729 793c-28 54 -77 89 -160 89c-207 0 -419 -233 -517 -571z" />
    <glyph glyph-name="omacron" unicode="&#x14d;" horiz-adv-x="1223" 
d="M-8 581c93 358 376 623 654 623c225 0 299 -163 299 -348c0 -99 -21 -203 -52 -293c-114 -336 -376 -582 -628 -582c-190 0 -304 140 -304 373c0 73 11 152 31 227zM280 31c192 0 408 229 523 555c31 88 67 223 67 341c0 129 -43 237 -188 237
c-207 0 -419 -233 -517 -571c-33 -113 -52 -233 -52 -326c0 -158 55 -236 167 -236zM443 1424l26 68h677l-27 -68h-676z" />
    <glyph glyph-name="obreve" unicode="&#x14f;" horiz-adv-x="1223" 
d="M-8 581c93 358 376 623 654 623c225 0 299 -163 299 -348c0 -99 -21 -203 -52 -293c-114 -336 -376 -582 -628 -582c-190 0 -304 140 -304 373c0 73 11 152 31 227zM280 31c192 0 408 229 523 555c31 88 67 223 67 341c0 129 -43 237 -188 237
c-207 0 -419 -233 -517 -571c-33 -113 -52 -233 -52 -326c0 -158 55 -236 167 -236zM968 1599h44c-4 -83 -82 -189 -219 -189c-136 0 -209 105 -212 189h43c3 -61 61 -148 170 -148c110 0 169 88 174 148z" />
    <glyph glyph-name="ohungarumlaut" unicode="&#x151;" horiz-adv-x="1223" 
d="M-8 581c93 358 376 623 654 623c225 0 299 -163 299 -348c0 -99 -21 -203 -52 -293c-114 -336 -376 -582 -628 -582c-190 0 -304 140 -304 373c0 73 11 152 31 227zM280 31c192 0 408 229 523 555c31 88 67 223 67 341c0 129 -43 237 -188 237
c-207 0 -419 -233 -517 -571c-33 -113 -52 -233 -52 -326c0 -158 55 -236 167 -236zM518 1340l-29 25c42 19 98 70 145 134c80 108 84 185 141 185c32 0 47 -26 47 -56c0 -117 -215 -258 -304 -288zM798 1340l-29 25c42 19 99 70 146 134c79 108 84 185 140 185
c33 0 48 -26 48 -56c0 -117 -215 -258 -305 -288z" />
    <glyph glyph-name="oslashacute" unicode="&#x1ff;" horiz-adv-x="1223" 
d="M-8 581c93 358 376 623 654 623c225 0 299 -163 299 -348c0 -99 -21 -203 -52 -293c-114 -336 -376 -582 -628 -582c-190 0 -304 140 -304 373c0 73 11 152 31 227zM280 31c192 0 408 229 523 555c31 88 67 223 67 341c0 129 -43 237 -188 237
c-207 0 -419 -233 -517 -571c-33 -113 -52 -233 -52 -326c0 -158 55 -236 167 -236zM656 1340l-28 25c41 19 98 70 145 134c80 108 84 185 141 185c32 0 47 -26 47 -56c0 -117 -215 -258 -305 -288z" />
    <glyph glyph-name="oogonek" unicode="&#x1eb;" horiz-adv-x="1223" 
d="M-8 581c93 358 376 623 654 623c225 0 299 -163 299 -348c0 -99 -21 -203 -52 -293c-106 -310 -337 -543 -569 -577c-221 -108 -339 -241 -339 -368c0 -72 37 -106 113 -106c48 0 103 14 173 43l12 -19c-79 -37 -137 -52 -205 -52c-123 0 -183 48 -183 145
c0 131 113 258 306 358c-151 28 -240 161 -240 367c0 73 11 152 31 227zM280 31c192 0 408 229 523 555c31 88 67 223 67 341c0 129 -43 237 -188 237c-207 0 -419 -233 -517 -571c-33 -113 -52 -233 -52 -326c0 -158 55 -236 167 -236z" />
    <glyph glyph-name="racute" unicode="&#x155;" horiz-adv-x="931" 
d="M747 1114c0 21 -28 49 -80 49c-106 0 -246 -111 -497 -553l-50 -88l-189 -522h-149l432 1185h148l-175 -480c220 376 355 499 485 499c88 0 141 -57 141 -141c0 -70 -36 -127 -96 -127c-43 0 -86 28 -86 81c0 44 30 90 76 90c7 0 16 -1 21 -2c3 -2 8 -5 11 -5
c5 0 8 6 8 14zM427 1340l-29 25c42 19 98 70 145 134c80 108 85 185 141 185c33 0 47 -26 47 -56c0 -117 -214 -258 -304 -288z" />
    <glyph glyph-name="rcommaaccent" unicode="&#x157;" horiz-adv-x="931" 
d="M747 1114c0 21 -28 49 -80 49c-106 0 -246 -111 -497 -553l-50 -88l-189 -522h-149l432 1185h148l-175 -480c220 376 355 499 485 499c88 0 141 -57 141 -141c0 -70 -36 -127 -96 -127c-43 0 -86 28 -86 81c0 44 30 90 76 90c7 0 16 -1 21 -2c3 -2 8 -5 11 -5
c5 0 8 6 8 14zM-290 -526l12 35c86 6 169 76 169 130c0 8 -2 17 -8 24c-45 0 -89 37 -89 89c0 45 34 96 92 96c45 0 99 -30 99 -123c0 -152 -138 -251 -275 -251z" />
    <glyph glyph-name="rcaron" unicode="&#x159;" horiz-adv-x="931" 
d="M747 1114c0 21 -28 49 -80 49c-106 0 -246 -111 -497 -553l-50 -88l-189 -522h-149l432 1185h148l-175 -480c220 376 355 499 485 499c88 0 141 -57 141 -141c0 -70 -36 -127 -96 -127c-43 0 -86 28 -86 81c0 44 30 90 76 90c7 0 16 -1 21 -2c3 -2 8 -5 11 -5
c5 0 8 6 8 14zM562 1366c-15 -24 -31 -28 -48 -28c-24 0 -36 10 -42 29c-27 93 -56 194 -211 290c2 1 25 27 25 27s168 -75 236 -225c-1 0 159 177 316 223c1 0 30 -25 30 -25c-181 -92 -227 -165 -306 -291z" />
    <glyph glyph-name="sacute" unicode="&#x15b;" horiz-adv-x="1026" 
d="M-133 271c0 136 63 276 138 329l422 614c14 108 52 179 103 179c40 0 70 -24 70 -55c0 -22 -9 -38 -36 -60c-61 -50 -82 -87 -82 -147c0 -58 14 -114 84 -338c34 -111 51 -212 51 -308c0 -183 -67 -323 -199 -417c-78 -56 -173 -87 -266 -87c-176 0 -285 112 -285 290z
M421 1121v21l-357 -521c42 0 70 -31 70 -77c0 -48 -30 -90 -65 -90c-22 0 -35 14 -59 14c-57 0 -100 -83 -100 -194c0 -150 86 -243 226 -243c93 0 176 41 235 117c72 92 108 232 108 416c0 92 -8 171 -30 311c-18 118 -28 197 -28 246zM302 1340l-29 25
c42 19 98 70 145 134c80 108 85 185 141 185c33 0 47 -26 47 -56c0 -117 -214 -258 -304 -288z" />
    <glyph glyph-name="scircumflex" unicode="&#x15d;" horiz-adv-x="1026" 
d="M-133 271c0 136 63 276 138 329l422 614c14 108 52 179 103 179c40 0 70 -24 70 -55c0 -22 -9 -38 -36 -60c-61 -50 -82 -87 -82 -147c0 -58 14 -114 84 -338c34 -111 51 -212 51 -308c0 -183 -67 -323 -199 -417c-78 -56 -173 -87 -266 -87c-176 0 -285 112 -285 290z
M421 1121v21l-357 -521c42 0 70 -31 70 -77c0 -48 -30 -90 -65 -90c-22 0 -35 14 -59 14c-57 0 -100 -83 -100 -194c0 -150 86 -243 226 -243c93 0 176 41 235 117c72 92 108 232 108 416c0 92 -8 171 -30 311c-18 118 -28 197 -28 246zM520 1656c15 24 32 28 48 28
c25 0 37 -10 42 -29c27 -93 57 -194 210 -290c-2 -2 -24 -27 -24 -27s-167 75 -236 225c1 0 -158 -177 -316 -223l-29 25c180 92 227 165 305 291z" />
    <glyph glyph-name="scaron" unicode="&#x161;" horiz-adv-x="1026" 
d="M-133 271c0 136 63 276 138 329l422 614c6 51 18 92 34 124c-20 2 -30 12 -35 29c-27 93 -57 194 -211 290c2 1 25 27 25 27s167 -75 236 -225c-1 0 158 177 316 223c1 0 29 -25 29 -25c-166 -86 -219 -154 -288 -264c39 -1 67 -25 67 -55c0 -22 -9 -38 -36 -60
c-61 -50 -82 -87 -82 -147c0 -58 14 -114 84 -338c34 -111 51 -212 51 -308c0 -183 -67 -323 -199 -417c-78 -56 -173 -87 -266 -87c-176 0 -285 112 -285 290zM421 1121v21l-357 -521c42 0 70 -31 70 -77c0 -48 -30 -90 -65 -90c-22 0 -35 14 -59 14
c-57 0 -100 -83 -100 -194c0 -150 86 -243 226 -243c93 0 176 41 235 117c72 92 108 232 108 416c0 92 -8 171 -30 311c-18 118 -28 197 -28 246z" />
    <glyph glyph-name="uni0219" unicode="&#x219;" horiz-adv-x="1026" 
d="M-133 271c0 136 63 276 138 329l422 614c14 108 52 179 103 179c40 0 70 -24 70 -55c0 -22 -9 -38 -36 -60c-61 -50 -82 -87 -82 -147c0 -58 14 -114 84 -338c34 -111 51 -212 51 -308c0 -183 -67 -323 -199 -417c-78 -56 -173 -87 -266 -87c-176 0 -285 112 -285 290z
M421 1121v21l-357 -521c42 0 70 -31 70 -77c0 -48 -30 -90 -65 -90c-22 0 -35 14 -59 14c-57 0 -100 -83 -100 -194c0 -150 86 -243 226 -243c93 0 176 41 235 117c72 92 108 232 108 416c0 92 -8 171 -30 311c-18 118 -28 197 -28 246zM-38 -526l12 35c86 6 169 76 169 130
c0 8 -2 17 -8 24c-45 0 -89 37 -89 89c0 45 34 96 92 96c45 0 99 -30 99 -123c0 -152 -138 -251 -275 -251z" />
    <glyph glyph-name="tbar" unicode="&#x167;" horiz-adv-x="786" 
d="M-79 1145v40h292l95 262h148l-95 -262h300v-40h-315l-126 -345h300v-40h-314l-100 -275c-37 -104 -75 -223 -75 -303c0 -92 50 -151 151 -151c197 0 370 147 552 470l52 92l27 -19l-52 -92c-211 -373 -387 -501 -601 -501c-163 0 -251 103 -251 260c0 69 17 154 49 244
l100 275h-277v40h291l126 345h-277z" />
    <glyph glyph-name="tcaron" unicode="&#x165;" horiz-adv-x="786" 
d="M-79 1145v40h292l95 262h148l-95 -262h300v-40h-315l-240 -660c-37 -104 -75 -223 -75 -303c0 -92 50 -151 151 -151c197 0 370 147 552 470l52 92l27 -19l-52 -92c-211 -373 -387 -501 -601 -501c-163 0 -251 103 -251 260c0 69 17 154 49 244l240 660h-277zM700 1251
l12 35c87 6 168 77 168 129c0 9 -1 17 -7 25c-45 0 -69 40 -69 79c0 44 27 89 84 89c60 0 87 -56 87 -112c0 -155 -150 -245 -275 -245z" />
    <glyph glyph-name="uni021B" unicode="&#x21b;" horiz-adv-x="786" 
d="M-79 1145v40h292l95 262h148l-95 -262h300v-40h-315l-240 -660c-37 -104 -75 -223 -75 -303c0 -92 50 -151 151 -151c197 0 370 147 552 470l52 92l27 -19l-52 -92c-211 -373 -387 -501 -601 -501c-163 0 -251 103 -251 260c0 69 17 154 49 244l240 660h-277zM-312 -526
l12 35c86 6 169 76 169 130c0 8 -2 17 -8 24c-45 0 -89 37 -89 89c0 45 34 96 92 96c45 0 99 -30 99 -123c0 -152 -138 -251 -275 -251z" />
    <glyph glyph-name="ugrave" unicode="&#xf9;" horiz-adv-x="1480" 
d="M-40 485l255 700h148l-255 -700c-38 -104 -76 -220 -76 -303c0 -92 49 -151 150 -151c180 0 327 155 506 470l49 88l218 596h148l-255 -700c-38 -104 -76 -220 -76 -303c0 -92 48 -151 150 -151c180 0 327 155 506 470l52 92l26 -19l-51 -92
c-195 -344 -347 -501 -555 -501c-163 0 -249 103 -249 260c0 52 9 114 28 178c-178 -300 -323 -438 -519 -438c-163 0 -249 103 -249 260c0 69 17 154 49 244zM815 1365l-29 -25c-90 30 -305 171 -305 288c0 30 15 56 48 56c56 0 61 -77 140 -185c48 -64 104 -115 146 -134z
" />
    <glyph glyph-name="uacute" unicode="&#xfa;" horiz-adv-x="1480" 
d="M-40 485l255 700h148l-255 -700c-38 -104 -76 -220 -76 -303c0 -92 49 -151 150 -151c180 0 327 155 506 470l49 88l218 596h148l-255 -700c-38 -104 -76 -220 -76 -303c0 -92 48 -151 150 -151c180 0 327 155 506 470l52 92l26 -19l-51 -92
c-195 -344 -347 -501 -555 -501c-163 0 -249 103 -249 260c0 52 9 114 28 178c-178 -300 -323 -438 -519 -438c-163 0 -249 103 -249 260c0 69 17 154 49 244zM579 1340l-29 25c42 19 98 70 145 134c80 108 85 185 141 185c32 0 47 -26 47 -56c0 -117 -215 -258 -304 -288z
" />
    <glyph glyph-name="ucircumflex" unicode="&#xfb;" horiz-adv-x="1480" 
d="M-40 485l255 700h148l-255 -700c-38 -104 -76 -220 -76 -303c0 -92 49 -151 150 -151c180 0 327 155 506 470l49 88l218 596h148l-255 -700c-38 -104 -76 -220 -76 -303c0 -92 48 -151 150 -151c180 0 327 155 506 470l52 92l26 -19l-51 -92
c-195 -344 -347 -501 -555 -501c-163 0 -249 103 -249 260c0 52 9 114 28 178c-178 -300 -323 -438 -519 -438c-163 0 -249 103 -249 260c0 69 17 154 49 244zM687 1656c15 24 31 28 48 28c24 0 36 -10 42 -29c27 -93 56 -194 210 -290c-2 -2 -24 -27 -24 -27
s-168 75 -236 225c1 0 -159 -177 -316 -223c-1 0 -30 25 -30 25c181 92 227 165 306 291z" />
    <glyph glyph-name="udieresis" unicode="&#xfc;" horiz-adv-x="1480" 
d="M-40 485l255 700h148l-255 -700c-38 -104 -76 -220 -76 -303c0 -92 49 -151 150 -151c180 0 327 155 506 470l49 88l218 596h148l-255 -700c-38 -104 -76 -220 -76 -303c0 -92 48 -151 150 -151c180 0 327 155 506 470l52 92l26 -19l-51 -92
c-195 -344 -347 -501 -555 -501c-163 0 -249 103 -249 260c0 52 9 114 28 178c-178 -300 -323 -438 -519 -438c-163 0 -249 103 -249 260c0 69 17 154 49 244zM486 1447c0 47 33 85 74 85c42 0 75 -38 75 -84s-34 -83 -76 -83c-41 0 -73 36 -73 82zM801 1447
c0 47 33 85 74 85c42 0 75 -38 75 -84s-34 -83 -76 -83c-41 0 -73 36 -73 82z" />
    <glyph glyph-name="utilde" unicode="&#x169;" horiz-adv-x="1480" 
d="M-40 485l255 700h148l-255 -700c-38 -104 -76 -220 -76 -303c0 -92 49 -151 150 -151c180 0 327 155 506 470l49 88l218 596h148l-255 -700c-38 -104 -76 -220 -76 -303c0 -92 48 -151 150 -151c180 0 327 155 506 470l52 92l26 -19l-51 -92
c-195 -344 -347 -501 -555 -501c-163 0 -249 103 -249 260c0 52 9 114 28 178c-178 -300 -323 -438 -519 -438c-163 0 -249 103 -249 260c0 69 17 154 49 244zM554 1682c176 0 221 -198 356 -198c102 0 167 112 183 177h43c-39 -140 -105 -281 -264 -281
c-187 0 -200 196 -349 196c-127 0 -169 -141 -182 -182h-44c34 106 87 288 257 288z" />
    <glyph glyph-name="umacron" unicode="&#x16b;" horiz-adv-x="1480" 
d="M-40 485l255 700h148l-255 -700c-38 -104 -76 -220 -76 -303c0 -92 49 -151 150 -151c180 0 327 155 506 470l49 88l218 596h148l-255 -700c-38 -104 -76 -220 -76 -303c0 -92 48 -151 150 -151c180 0 327 155 506 470l52 92l26 -19l-51 -92
c-195 -344 -347 -501 -555 -501c-163 0 -249 103 -249 260c0 52 9 114 28 178c-178 -300 -323 -438 -519 -438c-163 0 -249 103 -249 260c0 69 17 154 49 244zM365 1424l27 68h676l-26 -68h-677z" />
    <glyph glyph-name="ubreve" unicode="&#x16d;" horiz-adv-x="1480" 
d="M-40 485l255 700h148l-255 -700c-38 -104 -76 -220 -76 -303c0 -92 49 -151 150 -151c180 0 327 155 506 470l49 88l218 596h148l-255 -700c-38 -104 -76 -220 -76 -303c0 -92 48 -151 150 -151c180 0 327 155 506 470l52 92l26 -19l-51 -92
c-195 -344 -347 -501 -555 -501c-163 0 -249 103 -249 260c0 52 9 114 28 178c-178 -300 -323 -438 -519 -438c-163 0 -249 103 -249 260c0 69 17 154 49 244zM890 1599h44c-4 -83 -82 -189 -218 -189s-210 105 -212 189h42c3 -61 61 -148 171 -148c109 0 168 88 173 148z
" />
    <glyph glyph-name="uring" unicode="&#x16f;" horiz-adv-x="1480" 
d="M-40 485l255 700h148l-255 -700c-38 -104 -76 -220 -76 -303c0 -92 49 -151 150 -151c180 0 327 155 506 470l49 88l218 596h148l-255 -700c-38 -104 -76 -220 -76 -303c0 -92 48 -151 150 -151c180 0 327 155 506 470l52 92l26 -19l-51 -92
c-195 -344 -347 -501 -555 -501c-163 0 -249 103 -249 260c0 52 9 114 28 178c-178 -300 -323 -438 -519 -438c-163 0 -249 103 -249 260c0 69 17 154 49 244zM567 1533c0 85 66 153 150 153c83 0 151 -68 151 -151s-68 -150 -153 -150c-84 0 -148 65 -148 148zM606 1533
c0 -61 48 -109 109 -109c63 0 112 50 112 111s-49 110 -110 110s-111 -49 -111 -112z" />
    <glyph glyph-name="uhungarumlaut" unicode="&#x171;" horiz-adv-x="1480" 
d="M-40 485l255 700h148l-255 -700c-38 -104 -76 -220 -76 -303c0 -92 49 -151 150 -151c180 0 327 155 506 470l49 88l218 596h148l-255 -700c-38 -104 -76 -220 -76 -303c0 -92 48 -151 150 -151c180 0 327 155 506 470l52 92l26 -19l-51 -92
c-195 -344 -347 -501 -555 -501c-163 0 -249 103 -249 260c0 52 9 114 28 178c-178 -300 -323 -438 -519 -438c-163 0 -249 103 -249 260c0 69 17 154 49 244zM440 1340l-29 25c42 19 98 70 145 134c80 108 85 185 141 185c33 0 47 -26 47 -56c0 -117 -214 -258 -304 -288z
M720 1340l-28 25c41 19 98 70 145 134c80 108 84 185 141 185c32 0 47 -26 47 -56c0 -117 -215 -258 -305 -288z" />
    <glyph glyph-name="uogonek" unicode="&#x173;" horiz-adv-x="1480" 
d="M-40 485l255 700h148l-255 -700c-38 -104 -76 -220 -76 -303c0 -92 49 -151 150 -151c180 0 327 155 506 470l49 88l218 596h148l-255 -700c-38 -104 -76 -220 -76 -303c0 -92 48 -151 150 -151c180 0 327 155 506 470l52 92l26 -19l-51 -92
c-175 -309 -315 -466 -493 -495c-221 -109 -339 -242 -339 -369c0 -72 37 -106 113 -106c48 0 103 14 173 43l12 -19c-79 -37 -137 -52 -205 -52c-123 0 -183 48 -183 145c0 131 113 258 305 358c-123 23 -187 119 -187 254c0 52 9 114 28 178
c-178 -300 -323 -438 -519 -438c-163 0 -249 103 -249 260c0 69 17 154 49 244z" />
    <glyph glyph-name="wgrave" unicode="&#x1e81;" horiz-adv-x="1727" 
d="M1023 1185l-253 -700c-52 -143 -76 -238 -76 -303c0 -95 46 -151 130 -151c169 0 361 201 467 467c49 124 82 256 82 395c0 202 -62 227 -62 264c0 24 24 46 51 46c58 0 83 -103 83 -229c0 -182 -56 -358 -115 -495c-125 -291 -331 -498 -533 -498
c-141 0 -224 102 -224 260c0 19 1 40 4 63c-122 -196 -284 -323 -442 -323c-141 0 -224 102 -224 260c0 67 17 154 49 244l254 700h148l-254 -700c-52 -143 -76 -238 -76 -303c0 -95 46 -151 130 -151c163 0 370 205 460 454l253 700h148zM1077 1365l-29 -25
c-90 30 -305 171 -305 288c0 30 15 56 48 56c56 0 61 -77 140 -185c48 -64 104 -115 146 -134z" />
    <glyph glyph-name="wacute" unicode="&#x1e83;" horiz-adv-x="1727" 
d="M1023 1185l-253 -700c-52 -143 -76 -238 -76 -303c0 -95 46 -151 130 -151c169 0 361 201 467 467c49 124 82 256 82 395c0 202 -62 227 -62 264c0 24 24 46 51 46c58 0 83 -103 83 -229c0 -182 -56 -358 -115 -495c-125 -291 -331 -498 -533 -498
c-141 0 -224 102 -224 260c0 19 1 40 4 63c-122 -196 -284 -323 -442 -323c-141 0 -224 102 -224 260c0 67 17 154 49 244l254 700h148l-254 -700c-52 -143 -76 -238 -76 -303c0 -95 46 -151 130 -151c163 0 370 205 460 454l253 700h148zM855 1340l-29 25
c42 19 98 70 145 134c80 108 84 185 141 185c32 0 47 -26 47 -56c0 -117 -215 -258 -304 -288z" />
    <glyph glyph-name="wdieresis" unicode="&#x1e85;" horiz-adv-x="1727" 
d="M1023 1185l-253 -700c-52 -143 -76 -238 -76 -303c0 -95 46 -151 130 -151c169 0 361 201 467 467c49 124 82 256 82 395c0 202 -62 227 -62 264c0 24 24 46 51 46c58 0 83 -103 83 -229c0 -182 -56 -358 -115 -495c-125 -291 -331 -498 -533 -498
c-141 0 -224 102 -224 260c0 19 1 40 4 63c-122 -196 -284 -323 -442 -323c-141 0 -224 102 -224 260c0 67 17 154 49 244l254 700h148l-254 -700c-52 -143 -76 -238 -76 -303c0 -95 46 -151 130 -151c163 0 370 205 460 454l253 700h148zM762 1447c0 47 33 85 74 85
c42 0 75 -38 75 -84s-34 -83 -76 -83c-41 0 -73 36 -73 82zM1077 1447c0 47 33 85 74 85c42 0 75 -38 75 -84s-34 -83 -76 -83c-41 0 -73 36 -73 82z" />
    <glyph glyph-name="wcircumflex" unicode="&#x175;" horiz-adv-x="1727" 
d="M1023 1185l-253 -700c-52 -143 -76 -238 -76 -303c0 -95 46 -151 130 -151c169 0 361 201 467 467c49 124 82 256 82 395c0 202 -62 227 -62 264c0 24 24 46 51 46c58 0 83 -103 83 -229c0 -182 -56 -358 -115 -495c-125 -291 -331 -498 -533 -498
c-141 0 -224 102 -224 260c0 19 1 40 4 63c-122 -196 -284 -323 -442 -323c-141 0 -224 102 -224 260c0 67 17 154 49 244l254 700h148l-254 -700c-52 -143 -76 -238 -76 -303c0 -95 46 -151 130 -151c163 0 370 205 460 454l253 700h148zM955 1656c15 24 32 28 49 28
c24 0 36 -10 41 -29c27 -93 57 -194 210 -290c-1 -2 -24 -27 -24 -27s-167 75 -236 225c1 0 -158 -177 -315 -223c-1 0 -30 25 -30 25c180 92 227 165 305 291z" />
    <glyph glyph-name="yacute" unicode="&#xfd;" horiz-adv-x="1342" 
d="M-40 485l255 700h148l-255 -700c-38 -104 -76 -220 -76 -303c0 -92 49 -151 150 -151c180 0 324 156 506 470l53 91l215 593h149l-472 -1297c-97 -268 -295 -415 -560 -415c-129 0 -213 34 -265 108c-26 36 -40 78 -40 118c0 60 34 97 88 97c46 0 75 -27 75 -72
c0 -42 -25 -72 -60 -72c-15 0 -21 6 -32 6c-8 0 -9 -2 -9 -13c0 -74 101 -129 239 -129c195 0 321 110 413 364l196 538c-177 -299 -323 -437 -518 -437c-163 0 -249 103 -249 260c0 69 17 154 49 244zM579 1340l-29 25c42 19 98 70 145 134c80 108 85 185 141 185
c32 0 47 -26 47 -56c0 -117 -215 -258 -304 -288z" />
    <glyph glyph-name="ydieresis" unicode="&#xff;" horiz-adv-x="1342" 
d="M-40 485l255 700h148l-255 -700c-38 -104 -76 -220 -76 -303c0 -92 49 -151 150 -151c180 0 324 156 506 470l53 91l215 593h149l-472 -1297c-97 -268 -295 -415 -560 -415c-129 0 -213 34 -265 108c-26 36 -40 78 -40 118c0 60 34 97 88 97c46 0 75 -27 75 -72
c0 -42 -25 -72 -60 -72c-15 0 -21 6 -32 6c-8 0 -9 -2 -9 -13c0 -74 101 -129 239 -129c195 0 321 110 413 364l196 538c-177 -299 -323 -437 -518 -437c-163 0 -249 103 -249 260c0 69 17 154 49 244zM486 1447c0 47 33 85 74 85c42 0 75 -38 75 -84s-34 -83 -76 -83
c-41 0 -73 36 -73 82zM801 1447c0 47 33 85 74 85c42 0 75 -38 75 -84s-34 -83 -76 -83c-41 0 -73 36 -73 82z" />
    <glyph glyph-name="ycircumflex" unicode="&#x177;" horiz-adv-x="1342" 
d="M-40 485l255 700h148l-255 -700c-38 -104 -76 -220 -76 -303c0 -92 49 -151 150 -151c180 0 324 156 506 470l53 91l215 593h149l-472 -1297c-97 -268 -295 -415 -560 -415c-129 0 -213 34 -265 108c-26 36 -40 78 -40 118c0 60 34 97 88 97c46 0 75 -27 75 -72
c0 -42 -25 -72 -60 -72c-15 0 -21 6 -32 6c-8 0 -9 -2 -9 -13c0 -74 101 -129 239 -129c195 0 321 110 413 364l196 538c-177 -299 -323 -437 -518 -437c-163 0 -249 103 -249 260c0 69 17 154 49 244zM718 1656c15 24 32 28 49 28c24 0 36 -10 41 -29
c27 -93 57 -194 210 -290c-1 -2 -24 -27 -24 -27s-167 75 -236 225c1 0 -158 -177 -315 -223c-1 0 -30 25 -30 25c180 92 227 165 305 291z" />
    <glyph glyph-name="ygrave" unicode="&#x1ef3;" horiz-adv-x="1342" 
d="M-40 485l255 700h148l-255 -700c-38 -104 -76 -220 -76 -303c0 -92 49 -151 150 -151c180 0 324 156 506 470l53 91l215 593h149l-472 -1297c-97 -268 -295 -415 -560 -415c-129 0 -213 34 -265 108c-26 36 -40 78 -40 118c0 60 34 97 88 97c46 0 75 -27 75 -72
c0 -42 -25 -72 -60 -72c-15 0 -21 6 -32 6c-8 0 -9 -2 -9 -13c0 -74 101 -129 239 -129c195 0 321 110 413 364l196 538c-177 -299 -323 -437 -518 -437c-163 0 -249 103 -249 260c0 69 17 154 49 244zM883 1365l-28 -25c-90 30 -305 171 -305 288c0 30 15 56 47 56
c57 0 61 -77 141 -185c47 -64 104 -115 145 -134z" />
    <glyph glyph-name="ytilde" unicode="&#x1ef9;" horiz-adv-x="1342" 
d="M-40 485l255 700h148l-255 -700c-38 -104 -76 -220 -76 -303c0 -92 49 -151 150 -151c180 0 324 156 506 470l53 91l215 593h149l-472 -1297c-97 -268 -295 -415 -560 -415c-129 0 -213 34 -265 108c-26 36 -40 78 -40 118c0 60 34 97 88 97c46 0 75 -27 75 -72
c0 -42 -25 -72 -60 -72c-15 0 -21 6 -32 6c-8 0 -9 -2 -9 -13c0 -74 101 -129 239 -129c195 0 321 110 413 364l196 538c-177 -299 -323 -437 -518 -437c-163 0 -249 103 -249 260c0 69 17 154 49 244zM597 1682c176 0 221 -198 357 -198c101 0 166 112 182 177h44
c-39 -140 -105 -281 -264 -281c-187 0 -200 196 -349 196c-127 0 -170 -141 -183 -182h-43c33 106 87 288 256 288z" />
    <glyph glyph-name="zacute" unicode="&#x17a;" horiz-adv-x="1398" 
d="M1183 1197l27 -40l-937 -972c29 12 61 20 100 20c181 0 428 -134 527 -134c62 0 114 14 171 68c81 76 168 195 267 362l54 92l26 -19l-54 -92c-106 -176 -189 -300 -272 -379c-104 -99 -195 -122 -329 -122c-155 0 -365 130 -511 130c-70 0 -74 -40 -175 -130l-23 38
l1007 1053c-84 -54 -167 -89 -249 -89c-145 0 -322 130 -386 130c-68 0 -199 -171 -366 -467l-53 -93l-26 18l53 94c218 386 326 542 489 542c149 0 268 -130 410 -130c70 0 149 30 250 120zM784 1340l-28 25c41 19 98 70 145 134c79 108 84 185 141 185c32 0 47 -26 47 -56
c0 -117 -215 -258 -305 -288z" />
    <glyph glyph-name="zdotaccent" unicode="&#x17c;" horiz-adv-x="1398" 
d="M1183 1197l27 -40l-937 -972c29 12 61 20 100 20c181 0 428 -134 527 -134c62 0 114 14 171 68c81 76 168 195 267 362l54 92l26 -19l-54 -92c-106 -176 -189 -300 -272 -379c-104 -99 -195 -122 -329 -122c-155 0 -365 130 -511 130c-70 0 -74 -40 -175 -130l-23 38
l1007 1053c-84 -54 -167 -89 -249 -89c-145 0 -322 130 -386 130c-68 0 -199 -171 -366 -467l-53 -93l-26 18l53 94c218 386 326 542 489 542c149 0 268 -130 410 -130c70 0 149 30 250 120zM840 1447c0 47 37 85 83 85s84 -38 84 -84s-38 -83 -85 -83c-46 0 -82 36 -82 82z
" />
    <glyph glyph-name="zcaron" unicode="&#x17e;" horiz-adv-x="1398" 
d="M1183 1197l27 -40l-937 -972c29 12 61 20 100 20c181 0 428 -134 527 -134c62 0 114 14 171 68c81 76 168 195 267 362l54 92l26 -19l-54 -92c-106 -176 -189 -300 -272 -379c-104 -99 -195 -122 -329 -122c-155 0 -365 130 -511 130c-70 0 -74 -40 -175 -130l-23 38
l1007 1053c-84 -54 -167 -89 -249 -89c-145 0 -322 130 -386 130c-68 0 -199 -171 -366 -467l-53 -93l-26 18l53 94c218 386 326 542 489 542c149 0 268 -130 410 -130c70 0 149 30 250 120zM919 1366c-14 -24 -31 -28 -48 -28c-24 0 -36 10 -41 29c-27 93 -57 194 -212 290
c2 1 25 27 25 27s168 -75 237 -225c-1 0 158 177 315 223c1 0 30 -25 30 -25c-181 -92 -227 -165 -306 -291z" />
    <glyph glyph-name="uni015F" unicode="&#x15f;" horiz-adv-x="1026" 
d="M-131 -369l15 18c55 -46 123 -76 176 -76c71 0 123 55 123 127c0 78 -64 125 -171 125c-21 0 -27 0 -32 -1l74 170c-117 35 -187 135 -187 277c0 136 63 276 138 329l422 614c14 108 52 179 103 179c40 0 70 -24 70 -55c0 -22 -9 -38 -36 -60c-61 -50 -82 -87 -82 -147
c0 -58 14 -114 84 -338c34 -111 51 -212 51 -308c0 -183 -67 -323 -199 -417c-78 -56 -173 -87 -266 -87c-16 0 -30 1 -45 3l-63 -140h22c135 0 212 -50 212 -140c0 -94 -85 -163 -202 -163c-75 0 -143 28 -207 90zM421 1121v21l-357 -521c42 0 70 -31 70 -77
c0 -48 -30 -90 -65 -90c-22 0 -35 14 -59 14c-57 0 -100 -83 -100 -194c0 -150 86 -243 226 -243c93 0 176 41 235 117c72 92 108 232 108 416c0 92 -8 171 -30 311c-18 118 -28 197 -28 246z" />
    <glyph glyph-name="uni0163" unicode="&#x163;" horiz-adv-x="786" 
d="M-161 -369l16 18c54 -46 123 -76 176 -76c70 0 123 55 123 127c0 78 -65 125 -172 125c-21 0 -26 0 -32 -1l81 185c-79 41 -122 123 -122 232c0 69 17 154 49 244l240 660h-277v40h292l95 262h148l-95 -262h300v-40h-315l-240 -660c-37 -104 -75 -223 -75 -303
c0 -92 50 -151 151 -151c197 0 370 147 552 470l52 92l27 -19l-52 -92c-211 -373 -387 -501 -601 -501c-29 0 -55 4 -79 10l-66 -147h21c135 0 212 -50 212 -140c0 -94 -85 -163 -202 -163c-75 0 -142 28 -207 90z" />
    <glyph glyph-name="Agrave" unicode="&#xc0;" horiz-adv-x="2097" 
d="M340 589c0 -55 -60 -49 -127 -71c-56 -17 -170 -73 -170 -267c0 -199 120 -259 242 -259c139 0 246 78 365 244c219 307 414 828 583 1131c118 212 181 244 285 244c148 0 212 -65 212 -191c0 -290 -340 -970 -340 -1250c0 -101 44 -160 151 -160c177 0 320 165 504 491
l52 92l27 -19l-52 -92c-197 -348 -344 -521 -553 -521c-164 0 -253 108 -253 244c0 118 67 326 141 544h-421c-99 -205 -205 -406 -305 -543c-130 -180 -251 -253 -399 -253c-178 0 -282 107 -282 302c0 210 120 382 274 382c39 0 66 -11 66 -48zM1278 1355
c-73 -137 -167 -346 -269 -557h415c87 255 178 517 178 662c0 94 -38 113 -95 113c-88 0 -140 -47 -229 -218zM1722 1712l-29 -25c-89 30 -304 171 -304 288c0 30 15 56 47 56c56 0 61 -77 141 -185c47 -64 103 -115 145 -134z" />
    <glyph glyph-name="Aacute" unicode="&#xc1;" horiz-adv-x="2097" 
d="M340 589c0 -55 -60 -49 -127 -71c-56 -17 -170 -73 -170 -267c0 -199 120 -259 242 -259c139 0 246 78 365 244c219 307 414 828 583 1131c118 212 181 244 285 244c148 0 212 -65 212 -191c0 -290 -340 -970 -340 -1250c0 -101 44 -160 151 -160c177 0 320 165 504 491
l52 92l27 -19l-52 -92c-197 -348 -344 -521 -553 -521c-164 0 -253 108 -253 244c0 118 67 326 141 544h-421c-99 -205 -205 -406 -305 -543c-130 -180 -251 -253 -399 -253c-178 0 -282 107 -282 302c0 210 120 382 274 382c39 0 66 -11 66 -48zM1278 1355
c-73 -137 -167 -346 -269 -557h415c87 255 178 517 178 662c0 94 -38 113 -95 113c-88 0 -140 -47 -229 -218zM1558 1687l-28 25c41 19 98 70 145 134c80 108 84 185 141 185c32 0 47 -26 47 -56c0 -117 -215 -258 -305 -288z" />
    <glyph glyph-name="Acircumflex" unicode="&#xc2;" horiz-adv-x="2097" 
d="M340 589c0 -55 -60 -49 -127 -71c-56 -17 -170 -73 -170 -267c0 -199 120 -259 242 -259c139 0 246 78 365 244c219 307 414 828 583 1131c118 212 181 244 285 244c148 0 212 -65 212 -191c0 -290 -340 -970 -340 -1250c0 -101 44 -160 151 -160c177 0 320 165 504 491
l52 92l27 -19l-52 -92c-197 -348 -344 -521 -553 -521c-164 0 -253 108 -253 244c0 118 67 326 141 544h-421c-99 -205 -205 -406 -305 -543c-130 -180 -251 -253 -399 -253c-178 0 -282 107 -282 302c0 210 120 382 274 382c39 0 66 -11 66 -48zM1278 1355
c-73 -137 -167 -346 -269 -557h415c87 255 178 517 178 662c0 94 -38 113 -95 113c-88 0 -140 -47 -229 -218zM1619 2004c15 23 32 27 48 27c25 0 37 -10 42 -29c27 -93 57 -194 210 -290c-2 -2 -24 -27 -24 -27s-167 75 -236 225c1 0 -158 -177 -316 -223
c-1 0 -29 25 -29 25c180 92 227 166 305 292z" />
    <glyph glyph-name="Atilde" unicode="&#xc3;" horiz-adv-x="2097" 
d="M340 589c0 -55 -60 -49 -127 -71c-56 -17 -170 -73 -170 -267c0 -199 120 -259 242 -259c139 0 246 78 365 244c219 307 414 828 583 1131c118 212 181 244 285 244c148 0 212 -65 212 -191c0 -290 -340 -970 -340 -1250c0 -101 44 -160 151 -160c177 0 320 165 504 491
l52 92l27 -19l-52 -92c-197 -348 -344 -521 -553 -521c-164 0 -253 108 -253 244c0 118 67 326 141 544h-421c-99 -205 -205 -406 -305 -543c-130 -180 -251 -253 -399 -253c-178 0 -282 107 -282 302c0 210 120 382 274 382c39 0 66 -11 66 -48zM1278 1355
c-73 -137 -167 -346 -269 -557h415c87 255 178 517 178 662c0 94 -38 113 -95 113c-88 0 -140 -47 -229 -218zM1478 2029c176 0 221 -198 356 -198c102 0 167 112 183 177h43c-39 -140 -105 -280 -264 -280c-187 0 -200 195 -349 195c-127 0 -169 -141 -182 -181h-44
c34 105 87 287 257 287z" />
    <glyph glyph-name="Adieresis" unicode="&#xc4;" horiz-adv-x="2097" 
d="M340 589c0 -55 -60 -49 -127 -71c-56 -17 -170 -73 -170 -267c0 -199 120 -259 242 -259c139 0 246 78 365 244c219 307 414 828 583 1131c118 212 181 244 285 244c148 0 212 -65 212 -191c0 -290 -340 -970 -340 -1250c0 -101 44 -160 151 -160c177 0 320 165 504 491
l52 92l27 -19l-52 -92c-197 -348 -344 -521 -553 -521c-164 0 -253 108 -253 244c0 118 67 326 141 544h-421c-99 -205 -205 -406 -305 -543c-130 -180 -251 -253 -399 -253c-178 0 -282 107 -282 302c0 210 120 382 274 382c39 0 66 -11 66 -48zM1278 1355
c-73 -137 -167 -346 -269 -557h415c87 255 178 517 178 662c0 94 -38 113 -95 113c-88 0 -140 -47 -229 -218zM1387 1794c0 48 33 85 74 85c42 0 75 -37 75 -84c0 -46 -34 -83 -76 -83c-41 0 -73 36 -73 82zM1702 1794c0 48 33 85 74 85s75 -37 75 -84
c0 -46 -34 -83 -76 -83c-41 0 -73 36 -73 82z" />
    <glyph glyph-name="Aring" unicode="&#xc5;" horiz-adv-x="2097" 
d="M340 589c0 -55 -60 -49 -127 -71c-56 -17 -170 -73 -170 -267c0 -199 120 -259 242 -259c139 0 246 78 365 244c219 307 414 828 583 1131c118 212 181 244 285 244c148 0 212 -65 212 -191c0 -290 -340 -970 -340 -1250c0 -101 44 -160 151 -160c177 0 320 165 504 491
l52 92l27 -19l-52 -92c-197 -348 -344 -521 -553 -521c-164 0 -253 108 -253 244c0 118 67 326 141 544h-421c-99 -205 -205 -406 -305 -543c-130 -180 -251 -253 -399 -253c-178 0 -282 107 -282 302c0 210 120 382 274 382c39 0 66 -11 66 -48zM1278 1355
c-73 -137 -167 -346 -269 -557h415c87 255 178 517 178 662c0 94 -38 113 -95 113c-88 0 -140 -47 -229 -218zM1491 1880c0 86 66 153 150 153c83 0 151 -67 151 -151c0 -83 -68 -150 -153 -150c-84 0 -148 65 -148 148zM1530 1880c0 -61 48 -109 109 -109
c63 0 112 50 112 111s-49 110 -110 110s-111 -49 -111 -112z" />
    <glyph glyph-name="Amacron" unicode="&#x100;" horiz-adv-x="2097" 
d="M340 589c0 -55 -60 -49 -127 -71c-56 -17 -170 -73 -170 -267c0 -199 120 -259 242 -259c139 0 246 78 365 244c219 307 414 828 583 1131c118 212 181 244 285 244c148 0 212 -65 212 -191c0 -290 -340 -970 -340 -1250c0 -101 44 -160 151 -160c177 0 320 165 504 491
l52 92l27 -19l-52 -92c-197 -348 -344 -521 -553 -521c-164 0 -253 108 -253 244c0 118 67 326 141 544h-421c-99 -205 -205 -406 -305 -543c-130 -180 -251 -253 -399 -253c-178 0 -282 107 -282 302c0 210 120 382 274 382c39 0 66 -11 66 -48zM1278 1355
c-73 -137 -167 -346 -269 -557h415c87 255 178 517 178 662c0 94 -38 113 -95 113c-88 0 -140 -47 -229 -218zM1266 1771l26 68h677l-27 -68h-676z" />
    <glyph glyph-name="Abreve" unicode="&#x102;" horiz-adv-x="2097" 
d="M340 589c0 -55 -60 -49 -127 -71c-56 -17 -170 -73 -170 -267c0 -199 120 -259 242 -259c139 0 246 78 365 244c219 307 414 828 583 1131c118 212 181 244 285 244c148 0 212 -65 212 -191c0 -290 -340 -970 -340 -1250c0 -101 44 -160 151 -160c177 0 320 165 504 491
l52 92l27 -19l-52 -92c-197 -348 -344 -521 -553 -521c-164 0 -253 108 -253 244c0 118 67 326 141 544h-421c-99 -205 -205 -406 -305 -543c-130 -180 -251 -253 -399 -253c-178 0 -282 107 -282 302c0 210 120 382 274 382c39 0 66 -11 66 -48zM1278 1355
c-73 -137 -167 -346 -269 -557h415c87 255 178 517 178 662c0 94 -38 113 -95 113c-88 0 -140 -47 -229 -218zM1791 1946h44c-4 -83 -82 -189 -218 -189c-137 0 -210 105 -212 189h42c3 -61 61 -148 170 -148c110 0 169 88 174 148z" />
    <glyph glyph-name="Aogonek" unicode="&#x104;" horiz-adv-x="2097" 
d="M340 589c0 -55 -60 -49 -127 -71c-56 -17 -170 -73 -170 -267c0 -199 120 -259 242 -259c139 0 246 78 365 244c219 307 414 828 583 1131c118 212 181 244 285 244c148 0 212 -65 212 -191c0 -290 -340 -970 -340 -1250c0 -101 44 -160 151 -160c177 0 320 165 504 491
l52 92l27 -19l-52 -92c-160 -282 -287 -450 -441 -502c-213 -108 -326 -237 -326 -362c0 -72 37 -106 113 -106c49 0 103 14 174 43l12 -19c-80 -37 -137 -52 -206 -52c-123 0 -182 48 -182 145c0 121 96 239 262 335c-138 17 -212 117 -212 241c0 118 67 326 141 544h-421
c-99 -205 -205 -406 -305 -543c-130 -180 -251 -253 -399 -253c-178 0 -282 107 -282 302c0 210 120 382 274 382c39 0 66 -11 66 -48zM1278 1355c-73 -137 -167 -346 -269 -557h415c87 255 178 517 178 662c0 94 -38 113 -95 113c-88 0 -140 -47 -229 -218z" />
    <glyph glyph-name="Aringacute" unicode="&#x1fa;" horiz-adv-x="2097" 
d="M340 589c0 -55 -60 -49 -127 -71c-56 -17 -170 -73 -170 -267c0 -199 120 -259 242 -259c139 0 246 78 365 244c219 307 414 828 583 1131c118 212 181 244 285 244c148 0 212 -65 212 -191c0 -290 -340 -970 -340 -1250c0 -101 44 -160 151 -160c177 0 320 165 504 491
l52 92l27 -19l-52 -92c-197 -348 -344 -521 -553 -521c-164 0 -253 108 -253 244c0 118 67 326 141 544h-421c-99 -205 -205 -406 -305 -543c-130 -180 -251 -253 -399 -253c-178 0 -282 107 -282 302c0 210 120 382 274 382c39 0 66 -11 66 -48zM1278 1355
c-73 -137 -167 -346 -269 -557h415c87 255 178 517 178 662c0 94 -38 113 -95 113c-88 0 -140 -47 -229 -218zM1450 1689l-29 25c20 9 42 25 65 45c-12 22 -19 46 -19 74c0 85 67 153 150 153c11 0 20 -1 29 -3c18 32 34 50 61 50c33 0 48 -26 48 -56c0 -18 -6 -36 -14 -55
c16 -25 27 -55 27 -87c0 -83 -67 -150 -152 -150c-38 0 -72 13 -98 35c-26 -15 -50 -25 -68 -31zM1728 1835c0 17 -4 33 -11 48c-39 -54 -103 -103 -162 -141c17 -12 37 -18 61 -18c63 0 112 50 112 111zM1506 1833c0 -16 4 -31 10 -45c17 17 34 38 51 60c26 36 44 69 59 96
c-3 0 -6 1 -9 1c-61 0 -111 -49 -111 -112z" />
    <glyph glyph-name="AEacute" unicode="&#x1fc;" horiz-adv-x="2521" 
d="M1967 894c-327 -1 -513 -251 -513 -555c0 -181 93 -326 279 -326c272 0 559 175 736 488l52 92l27 -19l-52 -92c-196 -347 -484 -519 -791 -519c-308 0 -420 223 -420 488c0 160 40 298 40 298h-439c-160 -368 -272 -788 -546 -788c-253 0 -340 177 -340 328
c0 424 391 510 850 510c198 456 355 810 624 810c163 0 207 -78 207 -181c0 -184 -96 -373 -200 -664c106 91 254 147 436 147c-100 56 -152 150 -152 271c0 235 211 427 467 427c164 0 254 -79 254 -222c0 -127 -70 -242 -194 -319l-14 30c103 59 168 170 168 289
c0 118 -66 183 -184 183c-208 0 -382 -202 -382 -443c0 -104 33 -183 88 -215c5 3 24 6 37 6c17 0 27 -5 27 -14c0 -11 -9 -15 -28 -15c-14 0 -28 2 -37 5zM346 10c220 0 334 397 482 739c-422 0 -772 -72 -772 -460c0 -140 76 -279 290 -279zM1470 1571
c-243 0 -398 -376 -563 -772c75 -1 150 -1 435 -1c104 260 198 490 198 670c0 50 -14 103 -70 103zM1816 1659l-29 25c42 20 98 71 145 134c80 109 85 186 141 186c32 0 47 -26 47 -57c0 -117 -215 -257 -304 -288z" />
    <glyph glyph-name="Cacute" unicode="&#x106;" horiz-adv-x="1187" 
d="M468 -39c-296 0 -467 188 -467 513c0 89 13 192 39 294c123 486 492 841 878 841c123 0 262 -53 262 -221c0 -149 -95 -252 -215 -322l-18 25c107 86 158 194 158 308c0 119 -57 172 -163 172c-272 0 -581 -344 -722 -786c-45 -142 -70 -285 -70 -404
c0 -249 110 -371 333 -371c254 0 463 158 652 491l52 92l27 -19l-52 -92c-202 -356 -417 -521 -694 -521zM900 1659l-29 25c42 20 98 71 146 134c79 109 84 186 140 186c33 0 48 -26 48 -57c0 -117 -215 -257 -305 -288z" />
    <glyph glyph-name="Ccedilla" unicode="&#xc7;" horiz-adv-x="1187" 
d="M238 -391l16 19c54 -46 123 -76 176 -76c70 0 123 55 123 127c0 77 -65 125 -172 125c-21 0 -26 0 -32 -1l70 160c-266 20 -418 205 -418 511c0 89 13 192 39 294c123 486 492 841 878 841c123 0 262 -53 262 -221c0 -149 -95 -252 -215 -322l-18 25
c107 86 158 194 158 308c0 119 -57 172 -163 172c-272 0 -581 -344 -722 -786c-45 -142 -70 -285 -70 -404c0 -249 110 -371 333 -371c254 0 463 158 652 491l52 92l27 -19l-52 -92c-200 -353 -413 -517 -686 -521l-62 -138h21c135 0 212 -51 212 -141
c0 -93 -85 -163 -202 -163c-75 0 -142 29 -207 90z" />
    <glyph glyph-name="Ccircumflex" unicode="&#x108;" horiz-adv-x="1187" 
d="M468 -39c-296 0 -467 188 -467 513c0 89 13 192 39 294c123 486 492 841 878 841c123 0 262 -53 262 -221c0 -149 -95 -252 -215 -322l-18 25c107 86 158 194 158 308c0 119 -57 172 -163 172c-272 0 -581 -344 -722 -786c-45 -142 -70 -285 -70 -404
c0 -249 110 -371 333 -371c254 0 463 158 652 491l52 92l27 -19l-52 -92c-202 -356 -417 -521 -694 -521zM965 1976c15 23 31 28 48 28c24 0 36 -11 42 -30c26 -93 56 -194 210 -290c-2 -2 -24 -27 -24 -27s-168 75 -236 225c0 0 -159 -177 -316 -223c-1 0 -30 25 -30 25
c181 93 227 166 306 292z" />
    <glyph glyph-name="Cdotaccent" unicode="&#x10a;" horiz-adv-x="1187" 
d="M468 -39c-296 0 -467 188 -467 513c0 89 13 192 39 294c123 486 492 841 878 841c123 0 262 -53 262 -221c0 -149 -95 -252 -215 -322l-18 25c107 86 158 194 158 308c0 119 -57 172 -163 172c-272 0 -581 -344 -722 -786c-45 -142 -70 -285 -70 -404
c0 -249 110 -371 333 -371c254 0 463 158 652 491l52 92l27 -19l-52 -92c-202 -356 -417 -521 -694 -521zM912 1767c0 47 37 85 83 85c47 0 85 -38 85 -85c0 -46 -38 -83 -86 -83c-46 0 -82 36 -82 83z" />
    <glyph glyph-name="Ccaron" unicode="&#x10c;" horiz-adv-x="1187" 
d="M468 -39c-296 0 -467 188 -467 513c0 89 13 192 39 294c123 486 492 841 878 841c123 0 262 -53 262 -221c0 -149 -95 -252 -215 -322l-18 25c107 86 158 194 158 308c0 119 -57 172 -163 172c-272 0 -581 -344 -722 -786c-45 -142 -70 -285 -70 -404
c0 -249 110 -371 333 -371c254 0 463 158 652 491l52 92l27 -19l-52 -92c-202 -356 -417 -521 -694 -521zM992 1685c-15 -23 -32 -28 -49 -28c-24 0 -36 10 -41 30c-27 93 -57 193 -211 290c2 1 25 27 25 27s167 -75 236 -225c-1 0 158 176 316 223l29 -25
c-180 -93 -227 -166 -305 -292z" />
    <glyph glyph-name="Dcaron" unicode="&#x10e;" horiz-adv-x="2184" 
d="M1050 1224c59 90 193 249 348 316c-79 20 -170 31 -274 31c-426 0 -758 -172 -758 -610c0 -90 14 -204 112 -266l-13 -21c-119 57 -176 150 -176 305c0 378 347 630 830 630c501 0 787 -271 787 -679c0 -254 -111 -494 -269 -666c-157 -171 -385 -304 -691 -304
c-187 0 -339 49 -427 83c-97 -56 -202 -82 -318 -82c-164 0 -201 51 -201 100c0 95 140 108 242 108c109 0 202 -15 288 -41c83 93 166 251 270 512c188 471 208 521 250 584zM1778 996c0 284 -113 459 -343 533c-72 -36 -140 -101 -179 -160c-46 -68 -83 -169 -233 -578
c-125 -340 -260 -561 -418 -689c101 -38 242 -93 410 -93c263 0 435 135 551 300c128 184 212 443 212 687zM1465 1685c-15 -23 -32 -28 -48 -28c-25 0 -37 10 -42 30c-27 93 -57 193 -211 290c2 1 25 27 25 27s167 -75 236 -225c-1 0 158 176 316 223c1 0 29 -25 29 -25
c-180 -93 -227 -166 -305 -292zM208 -3c99 0 179 14 253 68c-54 17 -202 60 -305 60c-67 0 -116 -18 -116 -65c0 -35 28 -63 168 -63z" />
    <glyph glyph-name="Dcroat" unicode="&#x110;" horiz-adv-x="2184" 
d="M656 694l37 93h165c135 334 155 381 192 437c59 90 193 249 348 316c-79 20 -170 31 -274 31c-426 0 -758 -172 -758 -610c0 -90 14 -204 112 -266l-13 -21c-119 57 -176 150 -176 305c0 378 347 630 830 630c501 0 787 -271 787 -679c0 -254 -111 -494 -269 -666
c-157 -171 -385 -304 -691 -304c-187 0 -339 49 -427 83c-97 -56 -202 -82 -318 -82c-164 0 -201 51 -201 100c0 95 140 108 242 108c109 0 202 -15 288 -41c83 93 166 251 270 512l21 54h-165zM1778 996c0 284 -113 459 -343 533c-72 -36 -140 -101 -179 -160
c-46 -68 -83 -169 -235 -582h367l-36 -93h-366c-115 -286 -239 -477 -381 -592c101 -38 242 -93 410 -93c263 0 435 135 551 300c128 184 212 443 212 687zM208 -3c99 0 179 14 253 68c-54 17 -202 60 -305 60c-67 0 -116 -18 -116 -65c0 -35 28 -63 168 -63z" />
    <glyph glyph-name="Egrave" unicode="&#xc8;" horiz-adv-x="1179" 
d="M606 894c-274 -34 -449 -251 -449 -555c0 -220 92 -326 280 -326c254 0 516 181 690 488l52 92l26 -19l-51 -92c-195 -343 -461 -519 -742 -519c-255 0 -412 156 -412 402c0 295 228 510 559 540c-99 56 -155 156 -155 277c0 235 210 427 467 427c164 0 280 -96 280 -232
c0 -127 -86 -232 -220 -309l-14 30c103 59 168 170 168 288c0 119 -66 184 -184 184c-208 0 -382 -202 -382 -443c0 -104 33 -183 88 -215c6 3 24 6 37 6c18 0 28 -5 28 -14c0 -11 -10 -16 -29 -16c-13 0 -28 3 -37 6zM1036 1684l-29 -25c-89 31 -304 171 -304 288
c0 31 15 57 47 57c56 0 61 -77 141 -186c47 -63 103 -114 145 -134z" />
    <glyph glyph-name="Eacute" unicode="&#xc9;" horiz-adv-x="1179" 
d="M606 894c-274 -34 -449 -251 -449 -555c0 -220 92 -326 280 -326c254 0 516 181 690 488l52 92l26 -19l-51 -92c-195 -343 -461 -519 -742 -519c-255 0 -412 156 -412 402c0 295 228 510 559 540c-99 56 -155 156 -155 277c0 235 210 427 467 427c164 0 280 -96 280 -232
c0 -127 -86 -232 -220 -309l-14 30c103 59 168 170 168 288c0 119 -66 184 -184 184c-208 0 -382 -202 -382 -443c0 -104 33 -183 88 -215c6 3 24 6 37 6c18 0 28 -5 28 -14c0 -11 -10 -16 -29 -16c-13 0 -28 3 -37 6zM823 1659l-29 25c42 20 99 71 146 134
c79 109 84 186 140 186c33 0 48 -26 48 -57c0 -117 -215 -257 -305 -288z" />
    <glyph glyph-name="Ecircumflex" unicode="&#xca;" horiz-adv-x="1179" 
d="M606 894c-274 -34 -449 -251 -449 -555c0 -220 92 -326 280 -326c254 0 516 181 690 488l52 92l26 -19l-51 -92c-195 -343 -461 -519 -742 -519c-255 0 -412 156 -412 402c0 295 228 510 559 540c-99 56 -155 156 -155 277c0 235 210 427 467 427c164 0 280 -96 280 -232
c0 -127 -86 -232 -220 -309l-14 30c103 59 168 170 168 288c0 119 -66 184 -184 184c-208 0 -382 -202 -382 -443c0 -104 33 -183 88 -215c6 3 24 6 37 6c18 0 28 -5 28 -14c0 -11 -10 -16 -29 -16c-13 0 -28 3 -37 6zM963 1976c15 23 31 28 48 28c24 0 36 -11 42 -30
c27 -93 56 -194 210 -290c-2 -2 -24 -27 -24 -27s-168 75 -236 225c1 0 -159 -177 -316 -223c-1 0 -30 25 -30 25c181 93 227 166 306 292z" />
    <glyph glyph-name="Edieresis" unicode="&#xcb;" horiz-adv-x="1179" 
d="M606 894c-274 -34 -449 -251 -449 -555c0 -220 92 -326 280 -326c254 0 516 181 690 488l52 92l26 -19l-51 -92c-195 -343 -461 -519 -742 -519c-255 0 -412 156 -412 402c0 295 228 510 559 540c-99 56 -155 156 -155 277c0 235 210 427 467 427c164 0 280 -96 280 -232
c0 -127 -86 -232 -220 -309l-14 30c103 59 168 170 168 288c0 119 -66 184 -184 184c-208 0 -382 -202 -382 -443c0 -104 33 -183 88 -215c6 3 24 6 37 6c18 0 28 -5 28 -14c0 -11 -10 -16 -29 -16c-13 0 -28 3 -37 6zM731 1767c0 47 33 85 74 85s75 -38 75 -85
c0 -46 -35 -83 -76 -83s-73 36 -73 83zM1045 1767c0 47 34 85 74 85c42 0 75 -38 75 -85c0 -46 -34 -83 -76 -83c-40 0 -73 36 -73 83z" />
    <glyph glyph-name="Emacron" unicode="&#x112;" horiz-adv-x="1179" 
d="M606 894c-274 -34 -449 -251 -449 -555c0 -220 92 -326 280 -326c254 0 516 181 690 488l52 92l26 -19l-51 -92c-195 -343 -461 -519 -742 -519c-255 0 -412 156 -412 402c0 295 228 510 559 540c-99 56 -155 156 -155 277c0 235 210 427 467 427c164 0 280 -96 280 -232
c0 -127 -86 -232 -220 -309l-14 30c103 59 168 170 168 288c0 119 -66 184 -184 184c-208 0 -382 -202 -382 -443c0 -104 33 -183 88 -215c6 3 24 6 37 6c18 0 28 -5 28 -14c0 -11 -10 -16 -29 -16c-13 0 -28 3 -37 6zM609 1743l27 68h677l-27 -68h-677z" />
    <glyph glyph-name="Ebreve" unicode="&#x114;" horiz-adv-x="1179" 
d="M606 894c-274 -34 -449 -251 -449 -555c0 -220 92 -326 280 -326c254 0 516 181 690 488l52 92l26 -19l-51 -92c-195 -343 -461 -519 -742 -519c-255 0 -412 156 -412 402c0 295 228 510 559 540c-99 56 -155 156 -155 277c0 235 210 427 467 427c164 0 280 -96 280 -232
c0 -127 -86 -232 -220 -309l-14 30c103 59 168 170 168 288c0 119 -66 184 -184 184c-208 0 -382 -202 -382 -443c0 -104 33 -183 88 -215c6 3 24 6 37 6c18 0 28 -5 28 -14c0 -11 -10 -16 -29 -16c-13 0 -28 3 -37 6zM1134 1918h45c-4 -83 -83 -188 -219 -188
s-209 104 -212 188h43c2 -61 61 -148 170 -148s169 88 173 148z" />
    <glyph glyph-name="Edotaccent" unicode="&#x116;" horiz-adv-x="1179" 
d="M606 894c-274 -34 -449 -251 -449 -555c0 -220 92 -326 280 -326c254 0 516 181 690 488l52 92l26 -19l-51 -92c-195 -343 -461 -519 -742 -519c-255 0 -412 156 -412 402c0 295 228 510 559 540c-99 56 -155 156 -155 277c0 235 210 427 467 427c164 0 280 -96 280 -232
c0 -127 -86 -232 -220 -309l-14 30c103 59 168 170 168 288c0 119 -66 184 -184 184c-208 0 -382 -202 -382 -443c0 -104 33 -183 88 -215c6 3 24 6 37 6c18 0 28 -5 28 -14c0 -11 -10 -16 -29 -16c-13 0 -28 3 -37 6zM879 1767c0 47 37 85 83 85s84 -38 84 -85
c0 -46 -38 -83 -85 -83c-46 0 -82 36 -82 83z" />
    <glyph glyph-name="Eogonek" unicode="&#x118;" horiz-adv-x="1179" 
d="M606 894c-274 -34 -449 -251 -449 -555c0 -220 92 -326 280 -326c254 0 516 181 690 488l52 92l26 -19l-51 -92c-156 -275 -358 -441 -575 -498c-219 -108 -335 -240 -335 -366c0 -72 37 -106 113 -106c49 0 103 14 174 43l12 -19c-80 -37 -137 -52 -206 -52
c-123 0 -182 48 -182 145c0 121 96 239 261 334h-4c-255 0 -412 156 -412 402c0 295 228 510 559 540c-99 56 -155 156 -155 277c0 235 210 427 467 427c164 0 280 -96 280 -232c0 -127 -86 -232 -220 -309l-14 30c103 59 168 170 168 288c0 119 -66 184 -184 184
c-208 0 -382 -202 -382 -443c0 -104 33 -183 88 -215c6 3 24 6 37 6c18 0 28 -5 28 -14c0 -11 -10 -16 -29 -16c-13 0 -28 3 -37 6z" />
    <glyph glyph-name="Etilde" unicode="&#x1ebc;" horiz-adv-x="1179" 
d="M606 894c-274 -34 -449 -251 -449 -555c0 -220 92 -326 280 -326c254 0 516 181 690 488l52 92l26 -19l-51 -92c-195 -343 -461 -519 -742 -519c-255 0 -412 156 -412 402c0 295 228 510 559 540c-99 56 -155 156 -155 277c0 235 210 427 467 427c164 0 280 -96 280 -232
c0 -127 -86 -232 -220 -309l-14 30c103 59 168 170 168 288c0 119 -66 184 -184 184c-208 0 -382 -202 -382 -443c0 -104 33 -183 88 -215c6 3 24 6 37 6c18 0 28 -5 28 -14c0 -11 -10 -16 -29 -16c-13 0 -28 3 -37 6zM803 1986c176 0 221 -198 356 -198
c102 0 167 112 183 177h43c-39 -140 -105 -281 -264 -281c-187 0 -200 195 -349 195c-127 0 -169 -140 -182 -181h-44c34 106 87 288 257 288z" />
    <glyph glyph-name="Ecaron" unicode="&#x11a;" horiz-adv-x="1179" 
d="M606 894c-274 -34 -449 -251 -449 -555c0 -220 92 -326 280 -326c254 0 516 181 690 488l52 92l26 -19l-51 -92c-195 -343 -461 -519 -742 -519c-255 0 -412 156 -412 402c0 295 228 510 559 540c-99 56 -155 156 -155 277c0 235 210 427 467 427c164 0 280 -96 280 -232
c0 -127 -86 -232 -220 -309l-14 30c103 59 168 170 168 288c0 119 -66 184 -184 184c-208 0 -382 -202 -382 -443c0 -104 33 -183 88 -215c6 3 24 6 37 6c18 0 28 -5 28 -14c0 -11 -10 -16 -29 -16c-13 0 -28 3 -37 6zM958 1685c-15 -23 -31 -28 -48 -28
c-24 0 -36 10 -42 30c-26 93 -56 193 -211 290c2 1 25 27 25 27s168 -75 236 -225c0 0 159 176 316 223c1 0 30 -25 30 -25c-181 -93 -227 -166 -306 -292z" />
    <glyph glyph-name="Gcircumflex" unicode="&#x11c;" horiz-adv-x="1743" 
d="M1319 1088l-34 11c45 45 99 184 99 293c0 97 -49 179 -205 179c-287 0 -572 -240 -714 -611c-53 -138 -83 -283 -83 -406c0 -185 67 -271 207 -271c190 0 375 159 567 496l8 13h132l-65 -183c-76 -216 -155 -399 -237 -552c351 38 496 87 698 444l51 92l27 -19l-52 -92
c-201 -355 -343 -426 -747 -466c-204 -366 -430 -542 -701 -542c-183 0 -270 81 -270 206c0 269 437 323 834 362c55 115 111 252 174 416l26 68c-106 -142 -266 -292 -465 -292c-203 0 -338 159 -338 408c0 89 17 193 52 298c135 397 489 669 862 669
c220 0 302 -100 302 -223c0 -98 -52 -210 -128 -298zM274 -477c220 0 369 126 542 479c-423 -36 -766 -92 -766 -317c0 -105 76 -162 224 -162zM1230 1976c15 23 32 28 49 28c24 0 36 -11 41 -30c27 -93 57 -194 210 -290c-1 -2 -24 -27 -24 -27s-167 75 -236 225
c1 0 -158 -177 -315 -223c-1 0 -30 25 -30 25c180 93 227 166 305 292z" />
    <glyph glyph-name="Gbreve" unicode="&#x11e;" horiz-adv-x="1743" 
d="M1319 1088l-34 11c45 45 99 184 99 293c0 97 -49 179 -205 179c-287 0 -572 -240 -714 -611c-53 -138 -83 -283 -83 -406c0 -185 67 -271 207 -271c190 0 375 159 567 496l8 13h132l-65 -183c-76 -216 -155 -399 -237 -552c351 38 496 87 698 444l51 92l27 -19l-52 -92
c-201 -355 -343 -426 -747 -466c-204 -366 -430 -542 -701 -542c-183 0 -270 81 -270 206c0 269 437 323 834 362c55 115 111 252 174 416l26 68c-106 -142 -266 -292 -465 -292c-203 0 -338 159 -338 408c0 89 17 193 52 298c135 397 489 669 862 669
c220 0 302 -100 302 -223c0 -98 -52 -210 -128 -298zM274 -477c220 0 369 126 542 479c-423 -36 -766 -92 -766 -317c0 -105 76 -162 224 -162zM1402 1918h44c-4 -83 -82 -188 -218 -188s-210 104 -212 188h42c3 -61 61 -148 171 -148c109 0 168 88 173 148z" />
    <glyph glyph-name="Gdotaccent" unicode="&#x120;" horiz-adv-x="1743" 
d="M1319 1088l-34 11c45 45 99 184 99 293c0 97 -49 179 -205 179c-287 0 -572 -240 -714 -611c-53 -138 -83 -283 -83 -406c0 -185 67 -271 207 -271c190 0 375 159 567 496l8 13h132l-65 -183c-76 -216 -155 -399 -237 -552c351 38 496 87 698 444l51 92l27 -19l-52 -92
c-201 -355 -343 -426 -747 -466c-204 -366 -430 -542 -701 -542c-183 0 -270 81 -270 206c0 269 437 323 834 362c55 115 111 252 174 416l26 68c-106 -142 -266 -292 -465 -292c-203 0 -338 159 -338 408c0 89 17 193 52 298c135 397 489 669 862 669
c220 0 302 -100 302 -223c0 -98 -52 -210 -128 -298zM274 -477c220 0 369 126 542 479c-423 -36 -766 -92 -766 -317c0 -105 76 -162 224 -162zM1146 1767c0 47 37 85 84 85c46 0 84 -38 84 -85c0 -46 -38 -83 -85 -83s-83 36 -83 83z" />
    <glyph glyph-name="Gcommaaccent" unicode="&#x122;" horiz-adv-x="1743" 
d="M1319 1088l-34 11c45 45 99 184 99 293c0 97 -49 179 -205 179c-287 0 -572 -240 -714 -611c-53 -138 -83 -283 -83 -406c0 -185 67 -271 207 -271c190 0 375 159 567 496l8 13h132l-65 -183c-76 -216 -155 -399 -237 -552c351 38 496 87 698 444l51 92l27 -19l-52 -92
c-201 -355 -343 -426 -747 -466c-204 -366 -430 -542 -701 -542c-183 0 -270 81 -270 206c0 269 437 323 834 362c55 115 111 252 174 416l26 68c-106 -142 -266 -292 -465 -292c-203 0 -338 159 -338 408c0 89 17 193 52 298c135 397 489 669 862 669
c220 0 302 -100 302 -223c0 -98 -52 -210 -128 -298zM274 -477c220 0 369 126 542 479c-423 -36 -766 -92 -766 -317c0 -105 76 -162 224 -162zM926 -527l12 35c86 6 168 76 168 130c0 8 -1 17 -7 24c-45 0 -89 37 -89 89c0 45 33 96 92 96c45 0 99 -30 99 -123
c0 -152 -138 -251 -275 -251z" />
    <glyph glyph-name="Hcircumflex" unicode="&#x124;" horiz-adv-x="2217" 
d="M495 1207l-35 -20c-17 31 -27 71 -27 121c0 188 148 302 344 302c144 0 152 -61 414 -61c135 0 194 20 304 60v-18c-73 -15 -180 -106 -229 -170c-47 -60 -73 -135 -271 -685c140 31 293 69 447 119c155 401 458 754 749 754c112 0 150 -52 150 -129
c0 -189 -236 -372 -473 -496c-86 -45 -176 -84 -265 -118c-80 -204 -130 -422 -130 -608c0 -202 59 -248 155 -248c183 0 352 167 536 491l52 92l26 -19l-51 -92c-203 -358 -375 -521 -580 -521c-215 0 -273 181 -273 382c0 147 31 306 86 461c-153 -48 -304 -84 -445 -113
c-191 -499 -382 -730 -676 -730c-204 0 -303 110 -303 266c0 235 228 349 520 415c77 16 178 35 295 57c130 341 163 444 236 556c51 79 137 188 248 266c-90 -28 -190 -45 -265 -45c-141 0 -286 64 -370 64c-102 0 -189 -93 -189 -231c0 -41 7 -75 20 -102zM289 0
c221 0 303 122 508 654c-100 -21 -192 -38 -271 -56c-258 -59 -480 -145 -480 -375c0 -128 76 -223 243 -223zM2203 1571c-199 0 -430 -297 -578 -650c76 31 152 65 225 104c226 118 449 287 449 453c0 57 -27 93 -96 93zM1726 1976c15 23 31 28 48 28c24 0 36 -11 42 -30
c26 -93 56 -194 210 -290c-2 -2 -24 -27 -24 -27s-168 75 -236 225c1 0 -159 -177 -316 -223c-1 0 -30 25 -30 25c181 93 227 166 306 292z" />
    <glyph glyph-name="Hbar" unicode="&#x126;" horiz-adv-x="2217" 
d="M678 1002l27 67h251c33 79 59 131 95 186c51 79 137 188 248 266c-90 -28 -190 -45 -265 -45c-141 0 -286 64 -370 64c-102 0 -189 -93 -189 -231c0 -41 7 -75 20 -102l-35 -20c-17 31 -27 71 -27 121c0 188 148 302 344 302c144 0 152 -61 414 -61c135 0 194 20 304 60
v-18c-73 -15 -180 -106 -229 -170c-36 -45 -60 -99 -151 -352h266l-26 -67h-264c-27 -74 -59 -161 -96 -266c140 31 293 69 447 119c155 401 458 754 749 754c112 0 150 -52 150 -129c0 -189 -236 -372 -473 -496c-86 -45 -176 -84 -265 -118c-80 -204 -130 -422 -130 -608
c0 -202 59 -248 155 -248c183 0 352 167 536 491l52 92l26 -19l-51 -92c-203 -358 -375 -521 -580 -521c-215 0 -273 181 -273 382c0 147 31 306 86 461c-153 -48 -304 -84 -445 -113c-191 -499 -382 -730 -676 -730c-204 0 -303 110 -303 266c0 235 228 349 520 415
c77 16 178 35 295 57l115 303h-252zM289 0c221 0 303 122 508 654c-100 -21 -192 -38 -271 -56c-258 -59 -480 -145 -480 -375c0 -128 76 -223 243 -223zM2203 1571c-199 0 -430 -297 -578 -650c76 31 152 65 225 104c226 118 449 287 449 453c0 57 -27 93 -96 93z" />
    <glyph glyph-name="Ibreve" unicode="&#x12c;" horiz-adv-x="1530" 
d="M1606 1609v-18c-88 -24 -177 -101 -228 -174c-49 -71 -86 -170 -251 -626c-213 -586 -433 -830 -775 -830c-231 0 -352 110 -352 290c0 135 69 249 146 249c34 0 56 -20 56 -54c0 -53 -56 -72 -98 -86c-43 -14 -57 -54 -57 -113c0 -151 108 -248 286 -248
c262 0 369 129 570 641c161 410 202 515 261 613c61 102 146 200 246 268c-90 -28 -191 -45 -265 -45c-141 0 -287 64 -370 64c-102 0 -189 -93 -189 -231c0 -41 7 -75 20 -102l-35 -20c-16 31 -27 71 -27 121c0 188 148 302 344 302c144 0 152 -61 414 -61
c125 0 194 22 304 60zM1604 1918h44c-4 -83 -82 -188 -218 -188c-137 0 -210 104 -212 188h42c3 -61 61 -148 170 -148c110 0 169 88 174 148z" />
    <glyph glyph-name="Igrave" unicode="&#xcc;" horiz-adv-x="1530" 
d="M1606 1609v-18c-88 -24 -177 -101 -228 -174c-49 -71 -86 -170 -251 -626c-213 -586 -433 -830 -775 -830c-231 0 -352 110 -352 290c0 135 69 249 146 249c34 0 56 -20 56 -54c0 -53 -56 -72 -98 -86c-43 -14 -57 -54 -57 -113c0 -151 108 -248 286 -248
c262 0 369 129 570 641c161 410 202 515 261 613c61 102 146 200 246 268c-90 -28 -191 -45 -265 -45c-141 0 -287 64 -370 64c-102 0 -189 -93 -189 -231c0 -41 7 -75 20 -102l-35 -20c-16 31 -27 71 -27 121c0 188 148 302 344 302c144 0 152 -61 414 -61
c125 0 194 22 304 60zM1449 1684l-29 -25c-90 31 -304 171 -304 288c0 31 14 57 47 57c56 0 61 -77 141 -186c47 -63 103 -114 145 -134z" />
    <glyph glyph-name="Iacute" unicode="&#xcd;" horiz-adv-x="1530" 
d="M1606 1609v-18c-88 -24 -177 -101 -228 -174c-49 -71 -86 -170 -251 -626c-213 -586 -433 -830 -775 -830c-231 0 -352 110 -352 290c0 135 69 249 146 249c34 0 56 -20 56 -54c0 -53 -56 -72 -98 -86c-43 -14 -57 -54 -57 -113c0 -151 108 -248 286 -248
c262 0 369 129 570 641c161 410 202 515 261 613c61 102 146 200 246 268c-90 -28 -191 -45 -265 -45c-141 0 -287 64 -370 64c-102 0 -189 -93 -189 -231c0 -41 7 -75 20 -102l-35 -20c-16 31 -27 71 -27 121c0 188 148 302 344 302c144 0 152 -61 414 -61
c125 0 194 22 304 60zM1292 1659l-28 25c41 20 98 71 145 134c80 109 84 186 141 186c32 0 47 -26 47 -57c0 -117 -215 -257 -305 -288z" />
    <glyph glyph-name="Icircumflex" unicode="&#xce;" horiz-adv-x="1530" 
d="M1606 1609v-18c-88 -24 -177 -101 -228 -174c-49 -71 -86 -170 -251 -626c-213 -586 -433 -830 -775 -830c-231 0 -352 110 -352 290c0 135 69 249 146 249c34 0 56 -20 56 -54c0 -53 -56 -72 -98 -86c-43 -14 -57 -54 -57 -113c0 -151 108 -248 286 -248
c262 0 369 129 570 641c161 410 202 515 261 613c61 102 146 200 246 268c-90 -28 -191 -45 -265 -45c-141 0 -287 64 -370 64c-102 0 -189 -93 -189 -231c0 -41 7 -75 20 -102l-35 -20c-16 31 -27 71 -27 121c0 188 148 302 344 302c144 0 152 -61 414 -61
c125 0 194 22 304 60zM1432 1976c15 23 32 28 48 28c25 0 37 -11 42 -30c27 -93 57 -194 210 -290c-2 -2 -24 -27 -24 -27s-167 75 -236 225c1 0 -158 -177 -316 -223c-1 0 -29 25 -29 25c180 93 227 166 305 292z" />
    <glyph glyph-name="Idieresis" unicode="&#xcf;" horiz-adv-x="1530" 
d="M1606 1609v-18c-88 -24 -177 -101 -228 -174c-49 -71 -86 -170 -251 -626c-213 -586 -433 -830 -775 -830c-231 0 -352 110 -352 290c0 135 69 249 146 249c34 0 56 -20 56 -54c0 -53 -56 -72 -98 -86c-43 -14 -57 -54 -57 -113c0 -151 108 -248 286 -248
c262 0 369 129 570 641c161 410 202 515 261 613c61 102 146 200 246 268c-90 -28 -191 -45 -265 -45c-141 0 -287 64 -370 64c-102 0 -189 -93 -189 -231c0 -41 7 -75 20 -102l-35 -20c-16 31 -27 71 -27 121c0 188 148 302 344 302c144 0 152 -61 414 -61
c125 0 194 22 304 60zM1200 1767c0 47 33 85 74 85c42 0 75 -38 75 -85c0 -46 -34 -83 -76 -83c-41 0 -73 36 -73 83zM1515 1767c0 47 33 85 74 85s75 -38 75 -85c0 -46 -34 -83 -76 -83c-41 0 -73 36 -73 83z" />
    <glyph glyph-name="Idotaccent" unicode="&#x130;" horiz-adv-x="1530" 
d="M1606 1609v-18c-88 -24 -177 -101 -228 -174c-49 -71 -86 -170 -251 -626c-213 -586 -433 -830 -775 -830c-231 0 -352 110 -352 290c0 135 69 249 146 249c34 0 56 -20 56 -54c0 -53 -56 -72 -98 -86c-43 -14 -57 -54 -57 -113c0 -151 108 -248 286 -248
c262 0 369 129 570 641c161 410 202 515 261 613c61 102 146 200 246 268c-90 -28 -191 -45 -265 -45c-141 0 -287 64 -370 64c-102 0 -189 -93 -189 -231c0 -41 7 -75 20 -102l-35 -20c-16 31 -27 71 -27 121c0 188 148 302 344 302c144 0 152 -61 414 -61
c125 0 194 22 304 60zM1348 1767c0 47 37 85 83 85c47 0 85 -38 85 -85c0 -46 -38 -83 -86 -83c-46 0 -82 36 -82 83z" />
    <glyph glyph-name="Itilde" unicode="&#x128;" horiz-adv-x="1530" 
d="M1606 1609v-18c-88 -24 -177 -101 -228 -174c-49 -71 -86 -170 -251 -626c-213 -586 -433 -830 -775 -830c-231 0 -352 110 -352 290c0 135 69 249 146 249c34 0 56 -20 56 -54c0 -53 -56 -72 -98 -86c-43 -14 -57 -54 -57 -113c0 -151 108 -248 286 -248
c262 0 369 129 570 641c161 410 202 515 261 613c61 102 146 200 246 268c-90 -28 -191 -45 -265 -45c-141 0 -287 64 -370 64c-102 0 -189 -93 -189 -231c0 -41 7 -75 20 -102l-35 -20c-16 31 -27 71 -27 121c0 188 148 302 344 302c144 0 152 -61 414 -61
c125 0 194 22 304 60zM1156 2002c176 0 222 -198 357 -198c102 0 167 112 182 176h44c-39 -139 -105 -280 -264 -280c-187 0 -200 195 -349 195c-127 0 -170 -140 -183 -181h-43c33 105 87 288 256 288z" />
    <glyph glyph-name="Imacron" unicode="&#x12a;" horiz-adv-x="1530" 
d="M1606 1609v-18c-88 -24 -177 -101 -228 -174c-49 -71 -86 -170 -251 -626c-213 -586 -433 -830 -775 -830c-231 0 -352 110 -352 290c0 135 69 249 146 249c34 0 56 -20 56 -54c0 -53 -56 -72 -98 -86c-43 -14 -57 -54 -57 -113c0 -151 108 -248 286 -248
c262 0 369 129 570 641c161 410 202 515 261 613c61 102 146 200 246 268c-90 -28 -191 -45 -265 -45c-141 0 -287 64 -370 64c-102 0 -189 -93 -189 -231c0 -41 7 -75 20 -102l-35 -20c-16 31 -27 71 -27 121c0 188 148 302 344 302c144 0 152 -61 414 -61
c125 0 194 22 304 60zM1079 1743l26 68h677l-27 -68h-676z" />
    <glyph glyph-name="Iogonek" unicode="&#x12e;" horiz-adv-x="1530" 
d="M1606 1609v-18c-88 -24 -177 -101 -228 -174c-49 -71 -86 -170 -251 -626c-172 -474 -348 -723 -590 -802c-226 -109 -346 -244 -346 -372c0 -72 37 -106 113 -106c48 0 102 14 173 43l12 -19c-80 -37 -137 -52 -206 -52c-123 0 -182 48 -182 145c0 120 95 238 259 333
h-8c-231 0 -352 110 -352 290c0 135 69 249 146 249c34 0 56 -20 56 -54c0 -53 -56 -72 -98 -86c-43 -14 -57 -54 -57 -113c0 -151 108 -248 286 -248c262 0 369 129 570 641c161 410 202 515 261 613c61 102 146 200 246 268c-90 -28 -191 -45 -265 -45
c-141 0 -287 64 -370 64c-102 0 -189 -93 -189 -231c0 -41 7 -75 20 -102l-35 -20c-16 31 -27 71 -27 121c0 188 148 302 344 302c144 0 152 -61 414 -61c125 0 194 22 304 60z" />
    <glyph glyph-name="Jcircumflex" unicode="&#x134;" horiz-adv-x="1743" 
d="M1231 609c-76 -216 -154 -399 -236 -552c390 30 522 135 697 444l51 92l27 -19l-52 -92c-200 -353 -367 -427 -745 -466c-204 -365 -430 -542 -724 -542c-159 0 -249 80 -249 222c0 193 237 292 836 347c54 114 109 250 172 415c180 472 250 650 331 792
c63 110 138 202 237 268c-88 -26 -184 -42 -257 -42c-141 0 -287 64 -370 64c-102 0 -189 -93 -189 -230c0 -42 8 -76 20 -103l-35 -20c-16 31 -27 71 -27 119c0 190 147 304 344 304c144 0 152 -61 414 -61c136 0 192 18 304 60v-18c-77 -24 -153 -67 -225 -175
c-79 -121 -148 -312 -324 -807zM256 -477c235 0 381 107 561 479c-412 -36 -767 -108 -767 -305c0 -117 78 -174 206 -174zM1604 1976c14 23 31 28 48 28c24 0 36 -11 41 -30c27 -93 57 -194 211 -290c-2 -2 -25 -27 -25 -27s-167 75 -236 225c1 0 -158 -177 -315 -223
c-1 0 -30 25 -30 25c181 93 227 166 306 292z" />
    <glyph glyph-name="Kcommaaccent" unicode="&#x136;" horiz-adv-x="2203" 
d="M606 1207l-35 -20c-16 31 -27 71 -27 121c0 188 148 302 344 302c144 0 152 -61 414 -61c134 0 194 20 304 60v-18c-88 -24 -177 -101 -228 -174c-49 -71 -86 -170 -251 -626c-211 -582 -462 -830 -785 -830c-216 0 -342 110 -342 292c0 133 69 247 146 247
c34 0 56 -20 56 -54c0 -53 -56 -72 -98 -86c-40 -13 -57 -49 -57 -112c0 -149 109 -247 282 -247c247 0 375 133 574 639c161 410 203 517 261 613c62 103 146 200 245 267c-90 -27 -190 -44 -264 -44c-141 0 -286 64 -370 64c-102 0 -189 -93 -189 -231
c0 -41 7 -75 20 -102zM2323 1590l-13 -22c-28 8 -59 12 -88 12c-366 0 -355 -719 -863 -719c136 -27 242 -74 242 -219c0 -139 -97 -301 -97 -449c0 -128 73 -183 171 -183c188 0 308 195 476 491l52 92l26 -19l-51 -92c-200 -353 -304 -521 -540 -521
c-160 0 -299 78 -299 243c0 146 110 365 110 481c0 83 -57 155 -118 168c-5 -1 -11 -1 -14 -1c-17 0 -26 6 -26 13c0 6 11 14 25 14c9 0 18 0 30 -8c346 95 394 738 848 738c55 0 95 -9 129 -19zM849 -526l12 35c86 6 169 76 169 130c0 8 -2 17 -8 24c-45 0 -89 37 -89 89
c0 45 34 96 92 96c45 0 99 -30 99 -123c0 -152 -138 -251 -275 -251z" />
    <glyph glyph-name="Lacute" unicode="&#x139;" horiz-adv-x="1780" 
d="M1382 966l-25 31c157 155 257 346 257 470c0 54 -19 104 -91 104c-75 0 -156 -54 -228 -152c-111 -152 -179 -387 -272 -628c-130 -337 -258 -557 -409 -685c129 -36 318 -83 490 -83c306 0 441 154 625 478l51 92l27 -19l-52 -92c-253 -449 -470 -552 -695 -552
c-153 0 -347 60 -529 116c-98 -58 -204 -85 -326 -85c-167 0 -205 50 -205 99c0 95 136 114 238 114c110 0 211 -22 295 -44c83 95 160 253 267 510c168 401 257 677 421 838c91 89 196 131 289 131c126 0 162 -73 162 -166c0 -157 -103 -320 -290 -477zM206 -3
c110 0 190 17 261 70c-87 27 -200 59 -301 59c-78 0 -126 -20 -126 -66c0 -35 28 -63 166 -63zM1428 1659l-29 25c42 20 98 71 145 134c80 109 85 186 141 186c32 0 47 -26 47 -57c0 -117 -215 -257 -304 -288z" />
    <glyph glyph-name="Lcommaaccent" unicode="&#x13b;" horiz-adv-x="1780" 
d="M1382 966l-25 31c157 155 257 346 257 470c0 54 -19 104 -91 104c-75 0 -156 -54 -228 -152c-111 -152 -179 -387 -272 -628c-130 -337 -258 -557 -409 -685c129 -36 318 -83 490 -83c306 0 441 154 625 478l51 92l27 -19l-52 -92c-253 -449 -470 -552 -695 -552
c-153 0 -347 60 -529 116c-98 -58 -204 -85 -326 -85c-167 0 -205 50 -205 99c0 95 136 114 238 114c110 0 211 -22 295 -44c83 95 160 253 267 510c168 401 257 677 421 838c91 89 196 131 289 131c126 0 162 -73 162 -166c0 -157 -103 -320 -290 -477zM206 -3
c110 0 190 17 261 70c-87 27 -200 59 -301 59c-78 0 -126 -20 -126 -66c0 -35 28 -63 166 -63zM624 -526l12 35c86 6 169 76 169 130c0 8 -2 17 -8 24c-45 0 -89 37 -89 89c0 45 34 96 92 96c45 0 99 -30 99 -123c0 -152 -138 -251 -275 -251z" />
    <glyph glyph-name="Lcaron" unicode="&#x13d;" horiz-adv-x="1780" 
d="M1382 966l-25 31c157 155 257 346 257 470c0 54 -19 104 -91 104c-75 0 -156 -54 -228 -152c-111 -152 -179 -387 -272 -628c-130 -337 -258 -557 -409 -685c129 -36 318 -83 490 -83c306 0 441 154 625 478l51 92l27 -19l-52 -92c-253 -449 -470 -552 -695 -552
c-153 0 -347 60 -529 116c-98 -58 -204 -85 -326 -85c-167 0 -205 50 -205 99c0 95 136 114 238 114c110 0 211 -22 295 -44c83 95 160 253 267 510c168 401 257 677 421 838c91 89 196 131 289 131c126 0 162 -73 162 -166c0 -157 -103 -320 -290 -477zM206 -3
c110 0 190 17 261 70c-87 27 -200 59 -301 59c-78 0 -126 -20 -126 -66c0 -35 28 -63 166 -63zM753 1251l12 35c87 6 168 77 168 129c0 9 -2 17 -7 25c-46 0 -70 40 -70 79c0 44 28 89 85 89c60 0 87 -56 87 -112c0 -155 -150 -245 -275 -245z" />
    <glyph glyph-name="Ldot" unicode="&#x13f;" horiz-adv-x="1780" 
d="M1382 966l-25 31c157 155 257 346 257 470c0 54 -19 104 -91 104c-75 0 -156 -54 -228 -152c-111 -152 -179 -387 -272 -628c-130 -337 -258 -557 -409 -685c129 -36 318 -83 490 -83c306 0 441 154 625 478l51 92l27 -19l-52 -92c-253 -449 -470 -552 -695 -552
c-153 0 -347 60 -529 116c-98 -58 -204 -85 -326 -85c-167 0 -205 50 -205 99c0 95 136 114 238 114c110 0 211 -22 295 -44c83 95 160 253 267 510c168 401 257 677 421 838c91 89 196 131 289 131c126 0 162 -73 162 -166c0 -157 -103 -320 -290 -477zM206 -3
c110 0 190 17 261 70c-87 27 -200 59 -301 59c-78 0 -126 -20 -126 -66c0 -35 28 -63 166 -63zM1176 594c0 52 42 95 92 95c51 0 94 -43 94 -94s-43 -92 -94 -92s-92 40 -92 91z" />
    <glyph glyph-name="Lslash" unicode="&#x141;" horiz-adv-x="1780" 
d="M1382 966l-25 31c157 155 257 346 257 470c0 54 -19 104 -91 104c-75 0 -156 -54 -228 -152c-111 -152 -179 -387 -297 -690l333 117l-23 -85l-349 -126c-108 -251 -219 -422 -345 -529c129 -36 318 -83 490 -83c306 0 441 154 625 478l51 92l27 -19l-52 -92
c-253 -449 -470 -552 -695 -552c-153 0 -347 60 -529 116c-98 -58 -204 -85 -326 -85c-167 0 -205 50 -205 99c0 95 136 114 238 114c110 0 211 -22 295 -44c74 85 144 223 235 436l-370 -134l32 96l379 134c161 389 251 658 412 816c91 89 196 131 289 131
c126 0 162 -73 162 -166c0 -157 -103 -320 -290 -477zM206 -3c110 0 190 17 261 70c-87 27 -200 59 -301 59c-78 0 -126 -20 -126 -66c0 -35 28 -63 166 -63z" />
    <glyph glyph-name="Ntilde" unicode="&#xd1;" horiz-adv-x="1748" 
d="M1396 1333c0 -262 -355 -830 -355 -1166c0 -95 45 -157 152 -157c177 0 319 165 503 491l52 92l27 -19l-52 -92c-201 -354 -346 -521 -555 -521c-200 0 -274 94 -274 241c0 256 365 952 365 1190c0 113 -64 179 -156 179c-160 0 -320 -187 -498 -502l-50 -88l-357 -982
h-148l394 1086c23 60 74 224 74 345c0 80 -23 141 -92 141c-116 0 -263 -150 -399 -479l-27 18c146 363 304 499 455 499c148 0 187 -121 187 -267c0 -51 -9 -120 -29 -193c176 300 325 460 512 460c148 0 271 -96 271 -276zM996 2002c176 0 222 -198 357 -198
c102 0 166 112 182 176h44c-39 -139 -105 -280 -264 -280c-187 0 -200 195 -349 195c-127 0 -170 -140 -183 -181h-43c33 105 87 288 256 288z" />
    <glyph glyph-name="Nacute" unicode="&#x143;" horiz-adv-x="1748" 
d="M1396 1333c0 -262 -355 -830 -355 -1166c0 -95 45 -157 152 -157c177 0 319 165 503 491l52 92l27 -19l-52 -92c-201 -354 -346 -521 -555 -521c-200 0 -274 94 -274 241c0 256 365 952 365 1190c0 113 -64 179 -156 179c-160 0 -320 -187 -498 -502l-50 -88l-357 -982
h-148l394 1086c23 60 74 224 74 345c0 80 -23 141 -92 141c-116 0 -263 -150 -399 -479l-27 18c146 363 304 499 455 499c148 0 187 -121 187 -267c0 -51 -9 -120 -29 -193c176 300 325 460 512 460c148 0 271 -96 271 -276zM1021 1659l-28 25c41 20 98 71 145 134
c80 109 84 186 141 186c32 0 47 -26 47 -57c0 -117 -215 -257 -305 -288z" />
    <glyph glyph-name="Ncommaaccent" unicode="&#x145;" horiz-adv-x="1748" 
d="M1396 1333c0 -262 -355 -830 -355 -1166c0 -95 45 -157 152 -157c177 0 319 165 503 491l52 92l27 -19l-52 -92c-201 -354 -346 -521 -555 -521c-200 0 -274 94 -274 241c0 256 365 952 365 1190c0 113 -64 179 -156 179c-160 0 -320 -187 -498 -502l-50 -88l-357 -982
h-148l394 1086c23 60 74 224 74 345c0 80 -23 141 -92 141c-116 0 -263 -150 -399 -479l-27 18c146 363 304 499 455 499c148 0 187 -121 187 -267c0 -51 -9 -120 -29 -193c176 300 325 460 512 460c148 0 271 -96 271 -276zM388 -526l12 35c86 6 168 76 168 130
c0 8 -1 17 -7 24c-45 0 -89 37 -89 89c0 45 34 96 92 96c45 0 99 -30 99 -123c0 -152 -138 -251 -275 -251z" />
    <glyph glyph-name="Ncaron" unicode="&#x147;" horiz-adv-x="1748" 
d="M1396 1333c0 -262 -355 -830 -355 -1166c0 -95 45 -157 152 -157c177 0 319 165 503 491l52 92l27 -19l-52 -92c-201 -354 -346 -521 -555 -521c-200 0 -274 94 -274 241c0 256 365 952 365 1190c0 113 -64 179 -156 179c-160 0 -320 -187 -498 -502l-50 -88l-357 -982
h-148l394 1086c23 60 74 224 74 345c0 80 -23 141 -92 141c-116 0 -263 -150 -399 -479l-27 18c146 363 304 499 455 499c148 0 187 -121 187 -267c0 -51 -9 -120 -29 -193c176 300 325 460 512 460c148 0 271 -96 271 -276zM1156 1685c-14 -23 -31 -28 -48 -28
c-24 0 -36 10 -41 30c-27 93 -57 193 -212 290c2 1 25 27 25 27s168 -75 237 -225c-1 0 158 176 315 223c1 0 30 -25 30 -25c-181 -93 -227 -166 -306 -292z" />
    <glyph glyph-name="Ndotaccent" unicode="&#x1e44;" horiz-adv-x="1748" 
d="M1396 1333c0 -262 -355 -830 -355 -1166c0 -95 45 -157 152 -157c177 0 319 165 503 491l52 92l27 -19l-52 -92c-201 -354 -346 -521 -555 -521c-200 0 -274 94 -274 241c0 256 365 952 365 1190c0 113 -64 179 -156 179c-160 0 -320 -187 -498 -502l-50 -88l-357 -982
h-148l394 1086c23 60 74 224 74 345c0 80 -23 141 -92 141c-116 0 -263 -150 -399 -479l-27 18c146 363 304 499 455 499c148 0 187 -121 187 -267c0 -51 -9 -120 -29 -193c176 300 325 460 512 460c148 0 271 -96 271 -276zM1154 1766c0 47 37 85 83 85s84 -38 84 -84
c0 -47 -38 -84 -85 -84c-46 0 -82 36 -82 83z" />
    <glyph glyph-name="Ograve" unicode="&#xd2;" horiz-adv-x="1684" 
d="M170 769c124 483 494 840 868 840c251 0 389 -162 389 -456c0 -126 -25 -271 -72 -411c-152 -452 -502 -781 -831 -781c-248 0 -394 187 -394 502c0 97 14 202 40 306zM539 10c265 0 566 320 726 767c57 160 90 324 90 448c0 217 -102 346 -274 346
c-276 0 -588 -335 -731 -785c-45 -144 -70 -290 -70 -412c0 -236 91 -364 259 -364zM1250 1684l-29 -25c-90 31 -304 171 -304 288c0 31 14 57 47 57c56 0 61 -77 141 -186c47 -63 103 -114 145 -134z" />
    <glyph glyph-name="Oacute" unicode="&#xd3;" horiz-adv-x="1684" 
d="M170 769c124 483 494 840 868 840c251 0 389 -162 389 -456c0 -126 -25 -271 -72 -411c-152 -452 -502 -781 -831 -781c-248 0 -394 187 -394 502c0 97 14 202 40 306zM539 10c265 0 566 320 726 767c57 160 90 324 90 448c0 217 -102 346 -274 346
c-276 0 -588 -335 -731 -785c-45 -144 -70 -290 -70 -412c0 -236 91 -364 259 -364zM1029 1659l-29 25c42 20 98 71 145 134c80 109 85 186 141 186c32 0 47 -26 47 -57c0 -117 -215 -257 -304 -288z" />
    <glyph glyph-name="Ocircumflex" unicode="&#xd4;" horiz-adv-x="1684" 
d="M170 769c124 483 494 840 868 840c251 0 389 -162 389 -456c0 -126 -25 -271 -72 -411c-152 -452 -502 -781 -831 -781c-248 0 -394 187 -394 502c0 97 14 202 40 306zM539 10c265 0 566 320 726 767c57 160 90 324 90 448c0 217 -102 346 -274 346
c-276 0 -588 -335 -731 -785c-45 -144 -70 -290 -70 -412c0 -236 91 -364 259 -364zM1168 1976c15 23 32 28 49 28c24 0 36 -11 41 -30c27 -93 57 -194 210 -290c-1 -2 -24 -27 -24 -27s-167 75 -236 225c1 0 -158 -177 -315 -223c-1 0 -30 25 -30 25
c180 93 227 166 305 292z" />
    <glyph glyph-name="Otilde" unicode="&#xd5;" horiz-adv-x="1684" 
d="M170 769c124 483 494 840 868 840c251 0 389 -162 389 -456c0 -126 -25 -271 -72 -411c-152 -452 -502 -781 -831 -781c-248 0 -394 187 -394 502c0 97 14 202 40 306zM539 10c265 0 566 320 726 767c57 160 90 324 90 448c0 217 -102 346 -274 346
c-276 0 -588 -335 -731 -785c-45 -144 -70 -290 -70 -412c0 -236 91 -364 259 -364zM968 2002c176 0 222 -198 357 -198c102 0 167 112 182 176h44c-39 -139 -105 -280 -264 -280c-187 0 -200 195 -349 195c-127 0 -170 -140 -182 -181h-44c33 105 87 288 256 288z" />
    <glyph glyph-name="Odieresis" unicode="&#xd6;" horiz-adv-x="1684" 
d="M170 769c124 483 494 840 868 840c251 0 389 -162 389 -456c0 -126 -25 -271 -72 -411c-152 -452 -502 -781 -831 -781c-248 0 -394 187 -394 502c0 97 14 202 40 306zM539 10c265 0 566 320 726 767c57 160 90 324 90 448c0 217 -102 346 -274 346
c-276 0 -588 -335 -731 -785c-45 -144 -70 -290 -70 -412c0 -236 91 -364 259 -364zM936 1767c0 47 33 85 74 85c42 0 75 -38 75 -85c0 -46 -34 -83 -76 -83c-41 0 -73 36 -73 83zM1251 1767c0 47 33 85 74 85c42 0 75 -38 75 -85c0 -46 -34 -83 -76 -83
c-41 0 -73 36 -73 83z" />
    <glyph glyph-name="Omacron" unicode="&#x14c;" horiz-adv-x="1684" 
d="M170 769c124 483 494 840 868 840c251 0 389 -162 389 -456c0 -126 -25 -271 -72 -411c-152 -452 -502 -781 -831 -781c-248 0 -394 187 -394 502c0 97 14 202 40 306zM539 10c265 0 566 320 726 767c57 160 90 324 90 448c0 217 -102 346 -274 346
c-276 0 -588 -335 -731 -785c-45 -144 -70 -290 -70 -412c0 -236 91 -364 259 -364zM741 1743l27 68h676l-27 -68h-676z" />
    <glyph glyph-name="Obreve" unicode="&#x14e;" horiz-adv-x="1684" 
d="M170 769c124 483 494 840 868 840c251 0 389 -162 389 -456c0 -126 -25 -271 -72 -411c-152 -452 -502 -781 -831 -781c-248 0 -394 187 -394 502c0 97 14 202 40 306zM539 10c265 0 566 320 726 767c57 160 90 324 90 448c0 217 -102 346 -274 346
c-276 0 -588 -335 -731 -785c-45 -144 -70 -290 -70 -412c0 -236 91 -364 259 -364zM1308 1918h45c-4 -83 -83 -188 -219 -188s-209 104 -212 188h43c3 -61 61 -148 170 -148s169 88 173 148z" />
    <glyph glyph-name="Ohungarumlaut" unicode="&#x150;" horiz-adv-x="1684" 
d="M170 769c124 483 494 840 868 840c251 0 389 -162 389 -456c0 -126 -25 -271 -72 -411c-152 -452 -502 -781 -831 -781c-248 0 -394 187 -394 502c0 97 14 202 40 306zM539 10c265 0 566 320 726 767c57 160 90 324 90 448c0 217 -102 346 -274 346
c-276 0 -588 -335 -731 -785c-45 -144 -70 -290 -70 -412c0 -236 91 -364 259 -364zM890 1659l-29 25c42 20 98 71 145 134c80 109 85 186 141 186c33 0 47 -26 47 -57c0 -117 -214 -257 -304 -288zM1170 1659l-28 25c41 20 98 71 145 134c80 109 84 186 141 186
c32 0 47 -26 47 -57c0 -117 -215 -257 -305 -288z" />
    <glyph glyph-name="Oslashacute" unicode="&#x1fe;" horiz-adv-x="1684" 
d="M151 -116l114 174c-87 86 -135 224 -135 405c0 97 14 202 40 306c124 483 494 840 868 840c81 0 151 -17 207 -51l54 83h117l-95 -145c70 -77 106 -193 106 -343c0 -126 -25 -271 -72 -411c-152 -452 -502 -781 -831 -781c-68 0 -128 14 -180 41l-76 -118h-117zM539 10
c265 0 566 320 726 767c57 160 90 324 90 448c0 96 -21 176 -58 234l-913 -1397c41 -34 92 -52 155 -52zM280 374c0 -93 13 -170 41 -229l906 1385c-40 27 -89 41 -146 41c-276 0 -588 -335 -731 -785c-45 -144 -70 -290 -70 -412zM987 1659l-29 25c42 20 98 71 146 134
c79 109 84 186 140 186c33 0 48 -26 48 -57c0 -117 -215 -257 -305 -288z" />
    <glyph glyph-name="Oogonek" unicode="&#x1ea;" horiz-adv-x="1684" 
d="M170 769c124 483 494 840 868 840c251 0 389 -162 389 -456c0 -126 -25 -271 -72 -411c-128 -380 -396 -673 -674 -757c-219 -108 -337 -241 -337 -367c0 -72 37 -106 113 -106c49 0 103 14 174 43l12 -19c-80 -37 -137 -52 -206 -52c-123 0 -182 48 -182 145
c0 120 94 237 258 333c-242 6 -383 191 -383 501c0 97 14 202 40 306zM539 10c265 0 566 320 726 767c57 160 90 324 90 448c0 217 -102 346 -274 346c-276 0 -588 -335 -731 -785c-45 -144 -70 -290 -70 -412c0 -236 91 -364 259 -364z" />
    <glyph glyph-name="Racute" unicode="&#x154;" horiz-adv-x="2085" 
d="M276 -40c-185 0 -276 108 -276 325c0 192 69 411 196 625c260 435 674 699 1096 699c285 0 450 -114 450 -310c0 -231 -226 -429 -500 -438c165 -31 241 -99 241 -214c0 -130 -97 -306 -97 -454c0 -116 62 -182 172 -182c154 0 259 108 475 490l52 92l27 -19l-52 -92
c-243 -429 -339 -521 -541 -521c-182 0 -298 95 -298 245s110 365 110 479c0 78 -52 154 -117 168c-4 -1 -9 -1 -14 -1c-16 0 -27 5 -27 13c0 7 12 14 25 14c14 0 21 -2 31 -8c216 49 382 250 382 464c0 117 -54 189 -165 220c-73 -29 -148 -91 -197 -164
c-42 -62 -65 -121 -240 -600c-206 -568 -440 -831 -733 -831zM1035 1229c94 159 230 280 373 334c-31 5 -67 8 -107 8c-401 0 -807 -259 -1058 -676c-122 -201 -187 -415 -187 -611c0 -195 78 -280 204 -280c208 0 327 140 525 636c182 456 206 513 250 589zM1325 1659
l-29 25c42 20 98 71 146 134c79 109 84 186 140 186c33 0 48 -26 48 -57c0 -117 -215 -257 -305 -288z" />
    <glyph glyph-name="Rcommaaccent" unicode="&#x156;" horiz-adv-x="2085" 
d="M276 -40c-185 0 -276 108 -276 325c0 192 69 411 196 625c260 435 674 699 1096 699c285 0 450 -114 450 -310c0 -231 -226 -429 -500 -438c165 -31 241 -99 241 -214c0 -130 -97 -306 -97 -454c0 -116 62 -182 172 -182c154 0 259 108 475 490l52 92l27 -19l-52 -92
c-243 -429 -339 -521 -541 -521c-182 0 -298 95 -298 245s110 365 110 479c0 78 -52 154 -117 168c-4 -1 -9 -1 -14 -1c-16 0 -27 5 -27 13c0 7 12 14 25 14c14 0 21 -2 31 -8c216 49 382 250 382 464c0 117 -54 189 -165 220c-73 -29 -148 -91 -197 -164
c-42 -62 -65 -121 -240 -600c-206 -568 -440 -831 -733 -831zM1035 1229c94 159 230 280 373 334c-31 5 -67 8 -107 8c-401 0 -807 -259 -1058 -676c-122 -201 -187 -415 -187 -611c0 -195 78 -280 204 -280c208 0 327 140 525 636c182 456 206 513 250 589zM779 -526l12 35
c86 6 168 76 168 130c0 8 -2 17 -7 24c-46 0 -89 37 -89 89c0 45 33 96 92 96c45 0 99 -30 99 -123c0 -152 -138 -251 -275 -251z" />
    <glyph glyph-name="Rcaron" unicode="&#x158;" horiz-adv-x="2085" 
d="M276 -40c-185 0 -276 108 -276 325c0 192 69 411 196 625c260 435 674 699 1096 699c285 0 450 -114 450 -310c0 -231 -226 -429 -500 -438c165 -31 241 -99 241 -214c0 -130 -97 -306 -97 -454c0 -116 62 -182 172 -182c154 0 259 108 475 490l52 92l27 -19l-52 -92
c-243 -429 -339 -521 -541 -521c-182 0 -298 95 -298 245s110 365 110 479c0 78 -52 154 -117 168c-4 -1 -9 -1 -14 -1c-16 0 -27 5 -27 13c0 7 12 14 25 14c14 0 21 -2 31 -8c216 49 382 250 382 464c0 117 -54 189 -165 220c-73 -29 -148 -91 -197 -164
c-42 -62 -65 -121 -240 -600c-206 -568 -440 -831 -733 -831zM1035 1229c94 159 230 280 373 334c-31 5 -67 8 -107 8c-401 0 -807 -259 -1058 -676c-122 -201 -187 -415 -187 -611c0 -195 78 -280 204 -280c208 0 327 140 525 636c182 456 206 513 250 589zM1460 1685
c-15 -23 -31 -28 -48 -28c-24 0 -36 10 -42 30c-27 93 -56 193 -211 290c2 1 25 27 25 27s168 -75 236 -225c-1 0 159 176 316 223c1 0 30 -25 30 -25c-181 -93 -227 -166 -306 -292z" />
    <glyph glyph-name="Sacute" unicode="&#x15a;" horiz-adv-x="1453" 
d="M1277 1114l-34 16c51 75 74 140 74 209c0 143 -97 235 -255 235c-187 0 -310 -127 -310 -320c0 -287 271 -535 271 -811c0 -282 -280 -481 -573 -481c-296 0 -450 202 -450 418c0 137 62 259 145 259c36 0 58 -22 58 -56c0 -57 -64 -68 -98 -84s-61 -50 -61 -131
c0 -166 121 -359 387 -359c231 0 427 141 427 413c0 308 -249 457 -249 751c0 251 181 434 458 434c201 0 326 -97 326 -254c0 -86 -37 -161 -116 -239zM979 1659l-29 25c42 20 98 71 145 134c80 109 85 186 141 186c32 0 47 -26 47 -57c0 -117 -215 -257 -304 -288z" />
    <glyph glyph-name="Scircumflex" unicode="&#x15c;" horiz-adv-x="1453" 
d="M1277 1114l-34 16c51 75 74 140 74 209c0 143 -97 235 -255 235c-187 0 -310 -127 -310 -320c0 -287 271 -535 271 -811c0 -282 -280 -481 -573 -481c-296 0 -450 202 -450 418c0 137 62 259 145 259c36 0 58 -22 58 -56c0 -57 -64 -68 -98 -84s-61 -50 -61 -131
c0 -166 121 -359 387 -359c231 0 427 141 427 413c0 308 -249 457 -249 751c0 251 181 434 458 434c201 0 326 -97 326 -254c0 -86 -37 -161 -116 -239zM1118 1976c15 23 32 28 49 28c24 0 36 -11 41 -30c27 -93 57 -194 210 -290c-1 -2 -24 -27 -24 -27s-167 75 -236 225
c1 0 -158 -177 -315 -223c-1 0 -30 25 -30 25c180 93 227 166 305 292z" />
    <glyph glyph-name="Scaron" unicode="&#x160;" horiz-adv-x="1453" 
d="M1277 1114l-34 16c51 75 74 140 74 209c0 143 -97 235 -255 235c-187 0 -310 -127 -310 -320c0 -287 271 -535 271 -811c0 -282 -280 -481 -573 -481c-296 0 -450 202 -450 418c0 137 62 259 145 259c36 0 58 -22 58 -56c0 -57 -64 -68 -98 -84s-61 -50 -61 -131
c0 -166 121 -359 387 -359c231 0 427 141 427 413c0 308 -249 457 -249 751c0 251 181 434 458 434c201 0 326 -97 326 -254c0 -86 -37 -161 -116 -239zM1114 1685c-15 -23 -32 -28 -48 -28c-24 0 -36 10 -42 30c-27 93 -56 193 -211 290c2 1 25 27 25 27s167 -75 236 -225
c-1 0 158 176 316 223c1 0 29 -25 29 -25c-180 -93 -226 -166 -305 -292z" />
    <glyph glyph-name="uni0218" unicode="&#x218;" horiz-adv-x="1453" 
d="M1277 1114l-34 16c51 75 74 140 74 209c0 143 -97 235 -255 235c-187 0 -310 -127 -310 -320c0 -287 271 -535 271 -811c0 -282 -280 -481 -573 -481c-296 0 -450 202 -450 418c0 137 62 259 145 259c36 0 58 -22 58 -56c0 -57 -64 -68 -98 -84s-61 -50 -61 -131
c0 -166 121 -359 387 -359c231 0 427 141 427 413c0 308 -249 457 -249 751c0 251 181 434 458 434c201 0 326 -97 326 -254c0 -86 -37 -161 -116 -239zM267 -526l12 35c86 6 168 76 168 130c0 8 -2 17 -7 24c-46 0 -89 37 -89 89c0 45 33 96 92 96c45 0 99 -30 99 -123
c0 -152 -138 -251 -275 -251z" />
    <glyph glyph-name="Tbar" unicode="&#x166;" horiz-adv-x="1581" 
d="M1142 1219c46 84 112 161 188 225c-235 22 -463 91 -673 91c-236 0 -322 -88 -322 -218s85 -191 210 -191c86 0 190 29 265 71l20 -24c-87 -50 -195 -80 -287 -80c-155 0 -249 85 -249 226c0 187 164 291 461 291c239 0 458 -68 705 -76c107 61 224 98 335 98
c57 0 74 -9 74 -38c0 -89 -175 -156 -408 -156c-19 0 -37 0 -56 1c-18 -19 -34 -37 -47 -57c-36 -53 -66 -134 -231 -591c-212 -585 -431 -830 -774 -830c-225 0 -353 105 -353 290c0 135 68 249 147 249c34 0 55 -21 55 -60c0 -38 -20 -47 -98 -80
c-39 -17 -57 -43 -57 -111c0 -163 99 -248 298 -248c246 0 348 104 558 639c177 451 201 511 239 579zM1790 1604c-83 0 -173 -27 -253 -70c152 5 298 32 298 58c0 8 -14 12 -45 12zM1073 1743l27 68h677l-27 -68h-677z" />
    <glyph glyph-name="Tcaron" unicode="&#x164;" horiz-adv-x="1581" 
d="M1142 1219c46 84 112 161 188 225c-235 22 -463 91 -673 91c-236 0 -322 -88 -322 -218s85 -191 210 -191c86 0 190 29 265 71l20 -24c-87 -50 -195 -80 -287 -80c-155 0 -249 85 -249 226c0 187 164 291 461 291c239 0 458 -68 705 -76c107 61 224 98 335 98
c57 0 74 -9 74 -38c0 -89 -175 -156 -408 -156c-19 0 -37 0 -56 1c-18 -19 -34 -37 -47 -57c-36 -53 -66 -134 -231 -591c-212 -585 -431 -830 -774 -830c-225 0 -353 105 -353 290c0 135 68 249 147 249c34 0 55 -21 55 -60c0 -38 -20 -47 -98 -80
c-39 -17 -57 -43 -57 -111c0 -163 99 -248 298 -248c246 0 348 104 558 639c177 451 201 511 239 579zM1422 1685c-15 -23 -31 -28 -48 -28c-24 0 -36 10 -42 30c-27 93 -56 193 -211 290c2 1 25 27 25 27s168 -75 236 -225c-1 0 159 176 316 223c1 0 30 -25 30 -25
c-181 -93 -227 -166 -306 -292zM1790 1604c-83 0 -173 -27 -253 -70c152 5 298 32 298 58c0 8 -14 12 -45 12z" />
    <glyph glyph-name="Ugrave" unicode="&#xd9;" horiz-adv-x="1691" 
d="M1319 1609h148l-408 -1124c-40 -110 -76 -234 -76 -318c0 -95 46 -157 153 -157c176 0 319 165 503 491l52 92l26 -19l-51 -92c-201 -354 -347 -521 -555 -521c-163 0 -249 102 -249 267c0 52 8 119 28 192c-176 -304 -298 -459 -484 -459c-149 0 -272 96 -272 276
c0 302 380 955 380 1215c0 67 -21 119 -88 119c-116 0 -263 -150 -399 -479l-27 18c146 363 304 499 455 499c111 0 185 -74 185 -202c0 -267 -369 -956 -369 -1229c0 -112 64 -168 157 -168c160 0 289 169 471 491l49 88zM1125 1684l-29 -25c-90 31 -304 171 -304 288
c0 31 14 57 47 57c56 0 61 -77 141 -186c47 -63 103 -114 145 -134z" />
    <glyph glyph-name="Uacute" unicode="&#xda;" horiz-adv-x="1691" 
d="M1319 1609h148l-408 -1124c-40 -110 -76 -234 -76 -318c0 -95 46 -157 153 -157c176 0 319 165 503 491l52 92l26 -19l-51 -92c-201 -354 -347 -521 -555 -521c-163 0 -249 102 -249 267c0 52 8 119 28 192c-176 -304 -298 -459 -484 -459c-149 0 -272 96 -272 276
c0 302 380 955 380 1215c0 67 -21 119 -88 119c-116 0 -263 -150 -399 -479l-27 18c146 363 304 499 455 499c111 0 185 -74 185 -202c0 -267 -369 -956 -369 -1229c0 -112 64 -168 157 -168c160 0 289 169 471 491l49 88zM820 1659l-28 25c41 20 98 71 145 134
c80 109 84 186 141 186c32 0 47 -26 47 -57c0 -117 -215 -257 -305 -288z" />
    <glyph glyph-name="Ucircumflex" unicode="&#xdb;" horiz-adv-x="1691" 
d="M1319 1609h148l-408 -1124c-40 -110 -76 -234 -76 -318c0 -95 46 -157 153 -157c176 0 319 165 503 491l52 92l26 -19l-51 -92c-201 -354 -347 -521 -555 -521c-163 0 -249 102 -249 267c0 52 8 119 28 192c-176 -304 -298 -459 -484 -459c-149 0 -272 96 -272 276
c0 302 380 955 380 1215c0 67 -21 119 -88 119c-116 0 -263 -150 -399 -479l-27 18c146 363 304 499 455 499c111 0 185 -74 185 -202c0 -267 -369 -956 -369 -1229c0 -112 64 -168 157 -168c160 0 289 169 471 491l49 88zM960 1976c15 23 32 28 48 28c24 0 36 -11 42 -30
c27 -93 56 -194 210 -290c-2 -2 -24 -27 -24 -27s-168 75 -236 225c1 0 -158 -177 -316 -223c-1 0 -29 25 -29 25c180 93 226 166 305 292z" />
    <glyph glyph-name="Udieresis" unicode="&#xdc;" horiz-adv-x="1691" 
d="M1319 1609h148l-408 -1124c-40 -110 -76 -234 -76 -318c0 -95 46 -157 153 -157c176 0 319 165 503 491l52 92l26 -19l-51 -92c-201 -354 -347 -521 -555 -521c-163 0 -249 102 -249 267c0 52 8 119 28 192c-176 -304 -298 -459 -484 -459c-149 0 -272 96 -272 276
c0 302 380 955 380 1215c0 67 -21 119 -88 119c-116 0 -263 -150 -399 -479l-27 18c146 363 304 499 455 499c111 0 185 -74 185 -202c0 -267 -369 -956 -369 -1229c0 -112 64 -168 157 -168c160 0 289 169 471 491l49 88zM728 1767c0 47 33 85 74 85s75 -38 75 -85
c0 -46 -34 -83 -76 -83c-41 0 -73 36 -73 83zM1043 1767c0 47 33 85 74 85s75 -38 75 -85c0 -46 -35 -83 -76 -83s-73 36 -73 83z" />
    <glyph glyph-name="Utilde" unicode="&#x168;" horiz-adv-x="1691" 
d="M1319 1609h148l-408 -1124c-40 -110 -76 -234 -76 -318c0 -95 46 -157 153 -157c176 0 319 165 503 491l52 92l26 -19l-51 -92c-201 -354 -347 -521 -555 -521c-163 0 -249 102 -249 267c0 52 8 119 28 192c-176 -304 -298 -459 -484 -459c-149 0 -272 96 -272 276
c0 302 380 955 380 1215c0 67 -21 119 -88 119c-116 0 -263 -150 -399 -479l-27 18c146 363 304 499 455 499c111 0 185 -74 185 -202c0 -267 -369 -956 -369 -1229c0 -112 64 -168 157 -168c160 0 289 169 471 491l49 88zM795 2002c176 0 222 -198 357 -198
c102 0 166 112 182 176h44c-39 -139 -105 -280 -264 -280c-187 0 -200 195 -349 195c-127 0 -170 -140 -183 -181h-43c33 105 87 288 256 288z" />
    <glyph glyph-name="Umacron" unicode="&#x16a;" horiz-adv-x="1691" 
d="M1319 1609h148l-408 -1124c-40 -110 -76 -234 -76 -318c0 -95 46 -157 153 -157c176 0 319 165 503 491l52 92l26 -19l-51 -92c-201 -354 -347 -521 -555 -521c-163 0 -249 102 -249 267c0 52 8 119 28 192c-176 -304 -298 -459 -484 -459c-149 0 -272 96 -272 276
c0 302 380 955 380 1215c0 67 -21 119 -88 119c-116 0 -263 -150 -399 -479l-27 18c146 363 304 499 455 499c111 0 185 -74 185 -202c0 -267 -369 -956 -369 -1229c0 -112 64 -168 157 -168c160 0 289 169 471 491l49 88zM606 1743l27 68h677l-27 -68h-677z" />
    <glyph glyph-name="Ubreve" unicode="&#x16c;" horiz-adv-x="1691" 
d="M1319 1609h148l-408 -1124c-40 -110 -76 -234 -76 -318c0 -95 46 -157 153 -157c176 0 319 165 503 491l52 92l26 -19l-51 -92c-201 -354 -347 -521 -555 -521c-163 0 -249 102 -249 267c0 52 8 119 28 192c-176 -304 -298 -459 -484 -459c-149 0 -272 96 -272 276
c0 302 380 955 380 1215c0 67 -21 119 -88 119c-116 0 -263 -150 -399 -479l-27 18c146 363 304 499 455 499c111 0 185 -74 185 -202c0 -267 -369 -956 -369 -1229c0 -112 64 -168 157 -168c160 0 289 169 471 491l49 88zM1131 1918h45c-4 -83 -83 -188 -219 -188
s-209 104 -212 188h43c3 -61 61 -148 170 -148c110 0 169 88 173 148z" />
    <glyph glyph-name="Uring" unicode="&#x16e;" horiz-adv-x="1691" 
d="M1319 1609h148l-408 -1124c-40 -110 -76 -234 -76 -318c0 -95 46 -157 153 -157c176 0 319 165 503 491l52 92l26 -19l-51 -92c-201 -354 -347 -521 -555 -521c-163 0 -249 102 -249 267c0 52 8 119 28 192c-176 -304 -298 -459 -484 -459c-149 0 -272 96 -272 276
c0 302 380 955 380 1215c0 67 -21 119 -88 119c-116 0 -263 -150 -399 -479l-27 18c146 363 304 499 455 499c111 0 185 -74 185 -202c0 -267 -369 -956 -369 -1229c0 -112 64 -168 157 -168c160 0 289 169 471 491l49 88zM808 1853c0 85 67 152 150 152
c84 0 151 -67 151 -151c0 -83 -67 -149 -153 -149c-83 0 -148 64 -148 148zM847 1853c0 -61 48 -110 109 -110c63 0 112 50 112 111c0 62 -49 111 -110 111s-111 -49 -111 -112z" />
    <glyph glyph-name="Uhungarumlaut" unicode="&#x170;" horiz-adv-x="1691" 
d="M1319 1609h148l-408 -1124c-40 -110 -76 -234 -76 -318c0 -95 46 -157 153 -157c176 0 319 165 503 491l52 92l26 -19l-51 -92c-201 -354 -347 -521 -555 -521c-163 0 -249 102 -249 267c0 52 8 119 28 192c-176 -304 -298 -459 -484 -459c-149 0 -272 96 -272 276
c0 302 380 955 380 1215c0 67 -21 119 -88 119c-116 0 -263 -150 -399 -479l-27 18c146 363 304 499 455 499c111 0 185 -74 185 -202c0 -267 -369 -956 -369 -1229c0 -112 64 -168 157 -168c160 0 289 169 471 491l49 88zM681 1659l-28 25c41 20 98 71 145 134
c80 109 84 186 141 186c32 0 47 -26 47 -57c0 -117 -215 -257 -305 -288zM962 1659l-29 25c42 20 98 71 146 134c79 109 84 186 140 186c33 0 48 -26 48 -57c0 -117 -215 -257 -305 -288z" />
    <glyph glyph-name="Uogonek" unicode="&#x172;" horiz-adv-x="1691" 
d="M1319 1609h148l-408 -1124c-40 -110 -76 -234 -76 -318c0 -95 46 -157 153 -157c176 0 319 165 503 491l52 92l26 -19l-51 -92c-161 -284 -286 -447 -436 -501c-216 -107 -330 -237 -330 -363c0 -72 37 -106 113 -106c48 0 103 14 173 43l12 -19
c-80 -37 -137 -52 -205 -52c-124 0 -183 48 -183 145c0 121 96 239 262 335c-138 15 -210 113 -210 264c0 52 8 119 28 192c-176 -304 -298 -459 -484 -459c-149 0 -272 96 -272 276c0 302 380 955 380 1215c0 67 -21 119 -88 119c-116 0 -263 -150 -399 -479l-27 18
c146 363 304 499 455 499c111 0 185 -74 185 -202c0 -267 -369 -956 -369 -1229c0 -112 64 -168 157 -168c160 0 289 169 471 491l49 88z" />
    <glyph glyph-name="Wgrave" unicode="&#x1e80;" horiz-adv-x="2178" 
d="M947 622l313 860h148l-363 -997c-36 -100 -66 -207 -66 -291c0 -109 51 -184 157 -184c363 0 841 892 841 1394c0 175 -59 237 -59 269c0 17 17 43 49 43c62 0 82 -107 82 -218c0 -548 -476 -1537 -940 -1537c-174 0 -254 140 -254 302c0 35 4 73 12 110
c-143 -242 -318 -412 -488 -412c-131 0 -260 101 -260 268c0 293 395 945 395 1226c0 65 -21 116 -89 116c-115 0 -262 -150 -398 -479l-27 18c151 371 302 499 465 499c121 0 192 -70 192 -186c0 -275 -401 -993 -401 -1249c0 -96 57 -164 146 -164c180 0 396 282 545 612z
M1547 1684l-29 -25c-89 31 -304 171 -304 288c0 31 15 57 47 57c56 0 61 -77 141 -186c47 -63 103 -114 145 -134z" />
    <glyph glyph-name="Wacute" unicode="&#x1e82;" horiz-adv-x="2178" 
d="M947 622l313 860h148l-363 -997c-36 -100 -66 -207 -66 -291c0 -109 51 -184 157 -184c363 0 841 892 841 1394c0 175 -59 237 -59 269c0 17 17 43 49 43c62 0 82 -107 82 -218c0 -548 -476 -1537 -940 -1537c-174 0 -254 140 -254 302c0 35 4 73 12 110
c-143 -242 -318 -412 -488 -412c-131 0 -260 101 -260 268c0 293 395 945 395 1226c0 65 -21 116 -89 116c-115 0 -262 -150 -398 -479l-27 18c151 371 302 499 465 499c121 0 192 -70 192 -186c0 -275 -401 -993 -401 -1249c0 -96 57 -164 146 -164c180 0 396 282 545 612z
M1243 1659l-29 25c41 20 98 71 145 134c80 109 84 186 141 186c32 0 47 -26 47 -57c0 -117 -215 -257 -304 -288z" />
    <glyph glyph-name="Wdieresis" unicode="&#x1e84;" horiz-adv-x="2178" 
d="M947 622l313 860h148l-363 -997c-36 -100 -66 -207 -66 -291c0 -109 51 -184 157 -184c363 0 841 892 841 1394c0 175 -59 237 -59 269c0 17 17 43 49 43c62 0 82 -107 82 -218c0 -548 -476 -1537 -940 -1537c-174 0 -254 140 -254 302c0 35 4 73 12 110
c-143 -242 -318 -412 -488 -412c-131 0 -260 101 -260 268c0 293 395 945 395 1226c0 65 -21 116 -89 116c-115 0 -262 -150 -398 -479l-27 18c151 371 302 499 465 499c121 0 192 -70 192 -186c0 -275 -401 -993 -401 -1249c0 -96 57 -164 146 -164c180 0 396 282 545 612z
M1150 1767c0 47 33 85 74 85c42 0 75 -38 75 -85c0 -46 -34 -83 -76 -83c-41 0 -73 36 -73 83zM1465 1767c0 47 33 85 74 85s75 -38 75 -85c0 -46 -34 -83 -76 -83c-41 0 -73 36 -73 83z" />
    <glyph glyph-name="Wcircumflex" unicode="&#x174;" horiz-adv-x="2178" 
d="M947 622l313 860h148l-363 -997c-36 -100 -66 -207 -66 -291c0 -109 51 -184 157 -184c363 0 841 892 841 1394c0 175 -59 237 -59 269c0 17 17 43 49 43c62 0 82 -107 82 -218c0 -548 -476 -1537 -940 -1537c-174 0 -254 140 -254 302c0 35 4 73 12 110
c-143 -242 -318 -412 -488 -412c-131 0 -260 101 -260 268c0 293 395 945 395 1226c0 65 -21 116 -89 116c-115 0 -262 -150 -398 -479l-27 18c151 371 302 499 465 499c121 0 192 -70 192 -186c0 -275 -401 -993 -401 -1249c0 -96 57 -164 146 -164c180 0 396 282 545 612z
M1382 1976c15 23 32 28 48 28c25 0 37 -11 42 -30c27 -93 57 -194 210 -290c-2 -2 -24 -27 -24 -27s-167 75 -236 225c1 0 -158 -177 -316 -223c-1 0 -29 25 -29 25c180 93 227 166 305 292z" />
    <glyph glyph-name="Yacute" unicode="&#xdd;" horiz-adv-x="1743" 
d="M1569 1536l-338 -927c-79 -218 -156 -403 -238 -558c368 37 509 115 699 450l51 92l27 -19l-52 -92c-200 -354 -361 -427 -745 -466c-204 -365 -430 -542 -724 -542c-159 0 -249 80 -249 222c0 193 232 286 830 341c52 110 108 242 171 401l47 119
c-123 -187 -261 -318 -422 -318c-148 0 -271 96 -271 276c0 320 285 632 285 929c0 68 -21 127 -88 127c-116 0 -263 -157 -399 -487l-27 19c146 363 304 506 455 506c133 0 219 -81 219 -209c0 -295 -308 -671 -308 -944c0 -101 59 -168 138 -168c233 0 470 394 546 596
l244 652h149zM238 -482c225 0 387 101 575 483c-411 -35 -763 -108 -763 -304c0 -117 60 -179 188 -179zM1014 1659l-29 25c42 20 98 71 145 134c80 109 85 186 141 186c33 0 47 -26 47 -57c0 -117 -214 -257 -304 -288z" />
    <glyph glyph-name="Ycircumflex" unicode="&#x176;" horiz-adv-x="1743" 
d="M1569 1536l-338 -927c-79 -218 -156 -403 -238 -558c368 37 509 115 699 450l51 92l27 -19l-52 -92c-200 -354 -361 -427 -745 -466c-204 -365 -430 -542 -724 -542c-159 0 -249 80 -249 222c0 193 232 286 830 341c52 110 108 242 171 401l47 119
c-123 -187 -261 -318 -422 -318c-148 0 -271 96 -271 276c0 320 285 632 285 929c0 68 -21 127 -88 127c-116 0 -263 -157 -399 -487l-27 19c146 363 304 506 455 506c133 0 219 -81 219 -209c0 -295 -308 -671 -308 -944c0 -101 59 -168 138 -168c233 0 470 394 546 596
l244 652h149zM238 -482c225 0 387 101 575 483c-411 -35 -763 -108 -763 -304c0 -117 60 -179 188 -179zM1154 1976c14 23 31 28 48 28c24 0 36 -11 41 -30c27 -93 57 -194 211 -290c-2 -2 -24 -27 -24 -27s-168 75 -237 225c1 0 -158 -177 -315 -223c-1 0 -30 25 -30 25
c181 93 227 166 306 292z" />
    <glyph glyph-name="Ydieresis" unicode="&#x178;" horiz-adv-x="1743" 
d="M1569 1536l-338 -927c-79 -218 -156 -403 -238 -558c368 37 509 115 699 450l51 92l27 -19l-52 -92c-200 -354 -361 -427 -745 -466c-204 -365 -430 -542 -724 -542c-159 0 -249 80 -249 222c0 193 232 286 830 341c52 110 108 242 171 401l47 119
c-123 -187 -261 -318 -422 -318c-148 0 -271 96 -271 276c0 320 285 632 285 929c0 68 -21 127 -88 127c-116 0 -263 -157 -399 -487l-27 19c146 363 304 506 455 506c133 0 219 -81 219 -209c0 -295 -308 -671 -308 -944c0 -101 59 -168 138 -168c233 0 470 394 546 596
l244 652h149zM238 -482c225 0 387 101 575 483c-411 -35 -763 -108 -763 -304c0 -117 60 -179 188 -179zM921 1767c0 47 34 85 74 85c42 0 75 -38 75 -85c0 -46 -34 -83 -76 -83c-40 0 -73 36 -73 83zM1236 1767c0 47 33 85 74 85c42 0 75 -38 75 -85c0 -46 -34 -83 -76 -83
c-41 0 -73 36 -73 83z" />
    <glyph glyph-name="Ygrave" unicode="&#x1ef2;" horiz-adv-x="1743" 
d="M1569 1536l-338 -927c-79 -218 -156 -403 -238 -558c368 37 509 115 699 450l51 92l27 -19l-52 -92c-200 -354 -361 -427 -745 -466c-204 -365 -430 -542 -724 -542c-159 0 -249 80 -249 222c0 193 232 286 830 341c52 110 108 242 171 401l47 119
c-123 -187 -261 -318 -422 -318c-148 0 -271 96 -271 276c0 320 285 632 285 929c0 68 -21 127 -88 127c-116 0 -263 -157 -399 -487l-27 19c146 363 304 506 455 506c133 0 219 -81 219 -209c0 -295 -308 -671 -308 -944c0 -101 59 -168 138 -168c233 0 470 394 546 596
l244 652h149zM238 -482c225 0 387 101 575 483c-411 -35 -763 -108 -763 -304c0 -117 60 -179 188 -179zM1218 1684l-28 -25c-90 31 -305 171 -305 288c0 31 15 57 47 57c57 0 61 -77 141 -186c47 -63 104 -114 145 -134z" />
    <glyph glyph-name="Ytilde" unicode="&#x1ef8;" horiz-adv-x="1743" 
d="M1569 1536l-338 -927c-79 -218 -156 -403 -238 -558c368 37 509 115 699 450l51 92l27 -19l-52 -92c-200 -354 -361 -427 -745 -466c-204 -365 -430 -542 -724 -542c-159 0 -249 80 -249 222c0 193 232 286 830 341c52 110 108 242 171 401l47 119
c-123 -187 -261 -318 -422 -318c-148 0 -271 96 -271 276c0 320 285 632 285 929c0 68 -21 127 -88 127c-116 0 -263 -157 -399 -487l-27 19c146 363 304 506 455 506c133 0 219 -81 219 -209c0 -295 -308 -671 -308 -944c0 -101 59 -168 138 -168c233 0 470 394 546 596
l244 652h149zM238 -482c225 0 387 101 575 483c-411 -35 -763 -108 -763 -304c0 -117 60 -179 188 -179zM1046 1986c176 0 222 -198 357 -198c102 0 166 112 182 177h44c-39 -140 -105 -281 -264 -281c-187 0 -200 195 -349 195c-127 0 -170 -140 -183 -181h-43
c33 106 87 288 256 288z" />
    <glyph glyph-name="Zacute" unicode="&#x179;" horiz-adv-x="1514" 
d="M1396 1611l27 -40l-563 -707h309v-40h-340l-514 -645c33 15 71 26 123 26c191 0 456 -134 600 -134c46 0 93 14 154 68c76 68 169 197 267 362l55 92l26 -19l-55 -92c-109 -183 -189 -300 -273 -379c-105 -99 -201 -122 -298 -122c-235 0 -434 130 -598 130
c-81 0 -72 -31 -183 -130l-23 38l644 805h-324v40h355l515 644c-124 -69 -284 -120 -372 -120c-142 0 -302 118 -412 118c-65 0 -134 -33 -291 -312l-53 -93l-26 18l53 94c185 328 245 399 377 399c156 0 260 -131 410 -131c65 0 240 24 410 130zM965 1659l-29 25
c42 20 98 71 145 134c80 109 85 186 141 186c33 0 47 -26 47 -57c0 -117 -214 -257 -304 -288z" />
    <glyph glyph-name="Zdotaccent" unicode="&#x17b;" horiz-adv-x="1514" 
d="M1396 1611l27 -40l-563 -707h309v-40h-340l-514 -645c33 15 71 26 123 26c191 0 456 -134 600 -134c46 0 93 14 154 68c76 68 169 197 267 362l55 92l26 -19l-55 -92c-109 -183 -189 -300 -273 -379c-105 -99 -201 -122 -298 -122c-235 0 -434 130 -598 130
c-81 0 -72 -31 -183 -130l-23 38l644 805h-324v40h355l515 644c-124 -69 -284 -120 -372 -120c-142 0 -302 118 -412 118c-65 0 -134 -33 -291 -312l-53 -93l-26 18l53 94c185 328 245 399 377 399c156 0 260 -131 410 -131c65 0 240 24 410 130zM955 1767c0 47 38 85 84 85
s84 -38 84 -85c0 -46 -38 -83 -85 -83c-46 0 -83 36 -83 83z" />
    </font>
</defs>
</svg>
